<svg width="388" height="21" viewBox="0 0 388 21" fill="none" xmlns="http://www.w3.org/2000/svg">
<path d="M6.64355 12.333H3.34766V10.4346H6.64355C7.18262 10.4346 7.61914 10.3467 7.95312 10.1709C8.29297 9.98926 8.54199 9.74316 8.7002 9.43262C8.8584 9.11621 8.9375 8.75586 8.9375 8.35156C8.9375 7.95898 8.8584 7.59277 8.7002 7.25293C8.54199 6.91309 8.29297 6.6377 7.95312 6.42676C7.61914 6.21582 7.18262 6.11035 6.64355 6.11035H4.13867V17H1.72168V4.20312H6.64355C7.63965 4.20312 8.48926 4.38184 9.19238 4.73926C9.90137 5.09082 10.4404 5.58008 10.8096 6.20703C11.1846 6.82813 11.3721 7.53711 11.3721 8.33398C11.3721 9.16016 11.1846 9.87207 10.8096 10.4697C10.4404 11.0674 9.90137 11.5273 9.19238 11.8496C8.48926 12.1719 7.63965 12.333 6.64355 12.333ZM12.5586 12.3418V12.1572C12.5586 11.46 12.6582 10.8184 12.8574 10.2324C13.0566 9.64062 13.3467 9.12793 13.7275 8.69434C14.1084 8.26074 14.5742 7.92383 15.125 7.68359C15.6758 7.4375 16.3027 7.31445 17.0059 7.31445C17.7207 7.31445 18.3535 7.4375 18.9043 7.68359C19.4609 7.92383 19.9297 8.26074 20.3105 8.69434C20.6914 9.12793 20.9814 9.64062 21.1807 10.2324C21.3799 10.8184 21.4795 11.46 21.4795 12.1572V12.3418C21.4795 13.0332 21.3799 13.6748 21.1807 14.2666C20.9814 14.8525 20.6914 15.3652 20.3105 15.8047C19.9297 16.2383 19.4639 16.5752 18.9131 16.8154C18.3623 17.0557 17.7324 17.1758 17.0234 17.1758C16.3203 17.1758 15.6904 17.0557 15.1338 16.8154C14.5771 16.5752 14.1084 16.2383 13.7275 15.8047C13.3467 15.3652 13.0566 14.8525 12.8574 14.2666C12.6582 13.6748 12.5586 13.0332 12.5586 12.3418ZM14.8789 12.1572V12.3418C14.8789 12.7578 14.9199 13.1475 15.002 13.5107C15.084 13.874 15.21 14.1934 15.3799 14.4688C15.5498 14.7441 15.7695 14.9609 16.0391 15.1191C16.3145 15.2715 16.6426 15.3477 17.0234 15.3477C17.3984 15.3477 17.7207 15.2715 17.9902 15.1191C18.2598 14.9609 18.4795 14.7441 18.6494 14.4688C18.8252 14.1934 18.9541 13.874 19.0361 13.5107C19.1182 13.1475 19.1592 12.7578 19.1592 12.3418V12.1572C19.1592 11.7471 19.1182 11.3633 19.0361 11.0059C18.9541 10.6426 18.8252 10.3232 18.6494 10.0479C18.4795 9.7666 18.2568 9.54688 17.9814 9.38867C17.7119 9.22461 17.3867 9.14258 17.0059 9.14258C16.6309 9.14258 16.3086 9.22461 16.0391 9.38867C15.7695 9.54688 15.5498 9.7666 15.3799 10.0479C15.21 10.3232 15.084 10.6426 15.002 11.0059C14.9199 11.3633 14.8789 11.7471 14.8789 12.1572ZM28.3965 14.3984C28.3965 14.1992 28.3438 14.0205 28.2383 13.8623C28.1328 13.7041 27.9336 13.5605 27.6406 13.4316C27.3535 13.2969 26.9316 13.1709 26.375 13.0537C25.8828 12.9482 25.4287 12.8164 25.0127 12.6582C24.5967 12.5 24.2393 12.3096 23.9404 12.0869C23.6416 11.8584 23.4072 11.5918 23.2373 11.2871C23.0732 10.9766 22.9912 10.6191 22.9912 10.2148C22.9912 9.82227 23.0762 9.45312 23.2461 9.10742C23.416 8.75586 23.6621 8.44824 23.9844 8.18457C24.3066 7.91504 24.6992 7.7041 25.1621 7.55176C25.625 7.39355 26.1465 7.31445 26.7266 7.31445C27.5352 7.31445 28.2295 7.44629 28.8096 7.70996C29.3955 7.97363 29.8438 8.33691 30.1543 8.7998C30.4648 9.25684 30.6201 9.77246 30.6201 10.3467H28.2998C28.2998 10.0947 28.2412 9.86621 28.124 9.66113C28.0127 9.45605 27.8398 9.29199 27.6055 9.16895C27.3711 9.04004 27.0752 8.97559 26.7178 8.97559C26.3955 8.97559 26.123 9.02832 25.9004 9.13379C25.6836 9.23926 25.5195 9.37695 25.4082 9.54688C25.2969 9.7168 25.2412 9.9043 25.2412 10.1094C25.2412 10.2617 25.2705 10.3994 25.3291 10.5225C25.3936 10.6396 25.4961 10.748 25.6367 10.8477C25.7773 10.9473 25.9678 11.0381 26.208 11.1201C26.4541 11.2021 26.7559 11.2812 27.1133 11.3574C27.8223 11.498 28.4404 11.6855 28.9678 11.9199C29.501 12.1484 29.917 12.4531 30.2158 12.834C30.5146 13.2148 30.6641 13.7012 30.6641 14.293C30.6641 14.7148 30.5732 15.1016 30.3916 15.4531C30.21 15.7988 29.9463 16.1006 29.6006 16.3584C29.2549 16.6162 28.8418 16.8184 28.3613 16.9648C27.8809 17.1055 27.3389 17.1758 26.7354 17.1758C25.8623 17.1758 25.124 17.0205 24.5205 16.71C23.917 16.3936 23.46 15.9951 23.1494 15.5146C22.8389 15.0283 22.6836 14.5244 22.6836 14.0029H24.9072C24.9248 14.3721 25.0244 14.668 25.2061 14.8906C25.3877 15.1133 25.6162 15.2744 25.8916 15.374C26.1729 15.4678 26.4688 15.5146 26.7793 15.5146C27.1309 15.5146 27.4268 15.4678 27.667 15.374C27.9072 15.2744 28.0889 15.1426 28.2119 14.9785C28.335 14.8086 28.3965 14.6152 28.3965 14.3984ZM36.9307 7.49023V9.16016H31.4814V7.49023H36.9307ZM32.9404 5.15234H35.2695V14.2578C35.2695 14.5391 35.3076 14.7559 35.3838 14.9082C35.46 15.0605 35.5742 15.1631 35.7266 15.2158C35.8789 15.2686 36.0605 15.2949 36.2715 15.2949C36.4238 15.2949 36.5645 15.2861 36.6934 15.2686C36.8223 15.251 36.9307 15.2334 37.0186 15.2158L37.0273 16.9561C36.834 17.0205 36.6143 17.0732 36.3682 17.1143C36.1279 17.1553 35.8555 17.1758 35.5508 17.1758C35.0293 17.1758 34.5723 17.0879 34.1797 16.9121C33.7871 16.7305 33.4824 16.4404 33.2656 16.042C33.0488 15.6377 32.9404 15.1045 32.9404 14.4424V5.15234ZM42.749 17.1758C42.0283 17.1758 41.3809 17.0586 40.8066 16.8242C40.2324 16.5898 39.7432 16.2646 39.3389 15.8486C38.9404 15.4268 38.6328 14.9375 38.416 14.3809C38.2051 13.8184 38.0996 13.2148 38.0996 12.5703V12.2188C38.0996 11.4863 38.2051 10.8213 38.416 10.2236C38.627 9.62012 38.9258 9.10156 39.3125 8.66797C39.6992 8.23438 40.1621 7.90039 40.7012 7.66602C41.2402 7.43164 41.835 7.31445 42.4854 7.31445C43.1592 7.31445 43.7539 7.42871 44.2695 7.65723C44.7852 7.87988 45.2158 8.19629 45.5615 8.60645C45.9072 9.0166 46.168 9.50879 46.3438 10.083C46.5195 10.6514 46.6074 11.2812 46.6074 11.9727V12.9482H39.1543V11.3486H44.3223V11.1729C44.3105 10.8037 44.2402 10.4668 44.1113 10.1621C43.9824 9.85156 43.7832 9.60547 43.5137 9.42383C43.2441 9.23633 42.8955 9.14258 42.4678 9.14258C42.1221 9.14258 41.8203 9.21875 41.5625 9.37109C41.3105 9.51758 41.0996 9.72852 40.9297 10.0039C40.7656 10.2734 40.6426 10.5957 40.5605 10.9707C40.4785 11.3457 40.4375 11.7617 40.4375 12.2188V12.5703C40.4375 12.9688 40.4902 13.3379 40.5957 13.6777C40.707 14.0176 40.8682 14.3135 41.0791 14.5654C41.2959 14.8115 41.5537 15.0049 41.8525 15.1455C42.1572 15.2803 42.5029 15.3477 42.8896 15.3477C43.376 15.3477 43.8154 15.2539 44.208 15.0664C44.6064 14.873 44.9521 14.5889 45.2451 14.2139L46.4141 15.4268C46.2148 15.7197 45.9453 16.001 45.6055 16.2705C45.2715 16.54 44.8672 16.7598 44.3926 16.9297C43.918 17.0938 43.3701 17.1758 42.749 17.1758ZM53.8672 14.9785V3.5H56.2051V17H54.0957L53.8672 14.9785ZM47.7588 12.3594V12.1748C47.7588 11.4482 47.8408 10.7891 48.0049 10.1973C48.1748 9.59961 48.4209 9.08691 48.7432 8.65918C49.0654 8.23145 49.4551 7.90039 49.9121 7.66602C50.375 7.43164 50.8994 7.31445 51.4854 7.31445C52.0537 7.31445 52.5488 7.42871 52.9707 7.65723C53.3984 7.88574 53.7617 8.21094 54.0605 8.63281C54.3652 9.05469 54.6084 9.55566 54.79 10.1357C54.9717 10.71 55.1035 11.3428 55.1855 12.0342V12.5352C55.1035 13.209 54.9717 13.8271 54.79 14.3896C54.6084 14.9521 54.3652 15.4443 54.0605 15.8662C53.7617 16.2822 53.3984 16.6045 52.9707 16.833C52.543 17.0615 52.042 17.1758 51.4678 17.1758C50.8877 17.1758 50.3662 17.0557 49.9033 16.8154C49.4463 16.5752 49.0566 16.2383 48.7344 15.8047C48.418 15.3711 48.1748 14.8613 48.0049 14.2754C47.8408 13.6895 47.7588 13.0508 47.7588 12.3594ZM50.0879 12.1748V12.3594C50.0879 12.7695 50.123 13.1533 50.1934 13.5107C50.2637 13.8682 50.3779 14.1846 50.5361 14.46C50.6943 14.7295 50.8965 14.9404 51.1426 15.0928C51.3945 15.2451 51.6992 15.3213 52.0566 15.3213C52.5137 15.3213 52.8887 15.2217 53.1816 15.0225C53.4805 14.8174 53.7119 14.5391 53.876 14.1875C54.04 13.8301 54.1455 13.4287 54.1924 12.9834V11.6035C54.1689 11.252 54.1074 10.9268 54.0078 10.6279C53.9141 10.3291 53.7793 10.0713 53.6035 9.85449C53.4336 9.6377 53.2227 9.46777 52.9707 9.34473C52.7188 9.22168 52.4199 9.16016 52.0742 9.16016C51.7168 9.16016 51.4121 9.23926 51.1602 9.39746C50.9082 9.5498 50.7031 9.76367 50.5449 10.0391C50.3867 10.3145 50.2695 10.6338 50.1934 10.9971C50.123 11.3604 50.0879 11.7529 50.0879 12.1748ZM73.3262 10.2764V10.9355C73.3262 11.9023 73.1973 12.7725 72.9395 13.5459C72.6816 14.3135 72.3154 14.9668 71.8408 15.5059C71.3662 16.0449 70.8008 16.458 70.1445 16.7451C69.4883 17.0322 68.7588 17.1758 67.9561 17.1758C67.165 17.1758 66.4385 17.0322 65.7764 16.7451C65.1201 16.458 64.5518 16.0449 64.0713 15.5059C63.5908 14.9668 63.2188 14.3135 62.9551 13.5459C62.6914 12.7725 62.5596 11.9023 62.5596 10.9355V10.2764C62.5596 9.30371 62.6914 8.43359 62.9551 7.66602C63.2188 6.89844 63.5879 6.24512 64.0625 5.70605C64.5371 5.16113 65.1025 4.74512 65.7588 4.45801C66.4209 4.1709 67.1475 4.02734 67.9385 4.02734C68.7412 4.02734 69.4707 4.1709 70.127 4.45801C70.7832 4.74512 71.3486 5.16113 71.8232 5.70605C72.3037 6.24512 72.6729 6.89844 72.9307 7.66602C73.1943 8.43359 73.3262 9.30371 73.3262 10.2764ZM70.8828 10.9355V10.2588C70.8828 9.56152 70.8184 8.94922 70.6895 8.42188C70.5605 7.88867 70.3701 7.44043 70.1182 7.07715C69.8662 6.71387 69.5557 6.44141 69.1865 6.25977C68.8174 6.07227 68.4014 5.97852 67.9385 5.97852C67.4697 5.97852 67.0537 6.07227 66.6904 6.25977C66.333 6.44141 66.0283 6.71387 65.7764 7.07715C65.5244 7.44043 65.3311 7.88867 65.1963 8.42188C65.0674 8.94922 65.0029 9.56152 65.0029 10.2588V10.9355C65.0029 11.627 65.0674 12.2393 65.1963 12.7725C65.3311 13.3057 65.5244 13.7568 65.7764 14.126C66.0342 14.4893 66.3447 14.7646 66.708 14.9521C67.0713 15.1396 67.4873 15.2334 67.9561 15.2334C68.4248 15.2334 68.8408 15.1396 69.2041 14.9521C69.5674 14.7646 69.8721 14.4893 70.1182 14.126C70.3701 13.7568 70.5605 13.3057 70.6895 12.7725C70.8184 12.2393 70.8828 11.627 70.8828 10.9355ZM77.4746 9.52051V17H75.1543V7.49023H77.334L77.4746 9.52051ZM77.1055 11.9023H76.4199C76.4258 11.2109 76.5195 10.584 76.7012 10.0215C76.8828 9.45898 77.1377 8.97559 77.4658 8.57129C77.7998 8.16699 78.1953 7.85645 78.6523 7.63965C79.1094 7.42285 79.6191 7.31445 80.1816 7.31445C80.6387 7.31445 81.0518 7.37891 81.4209 7.50781C81.79 7.63672 82.1064 7.8418 82.3701 8.12305C82.6396 8.4043 82.8447 8.77344 82.9854 9.23047C83.1318 9.68164 83.2051 10.2383 83.2051 10.9004V17H80.8672V10.8828C80.8672 10.4492 80.8027 10.1064 80.6738 9.85449C80.5508 9.60254 80.3691 9.42383 80.1289 9.31836C79.8945 9.21289 79.6045 9.16016 79.2588 9.16016C78.9014 9.16016 78.5879 9.2334 78.3184 9.37988C78.0547 9.52051 77.832 9.7168 77.6504 9.96875C77.4746 10.2207 77.3398 10.5107 77.2461 10.8389C77.1523 11.167 77.1055 11.5215 77.1055 11.9023ZM85.376 16.1387C85.376 15.8633 85.4609 15.6318 85.6309 15.4443C85.8066 15.251 86.0586 15.1543 86.3867 15.1543C86.7148 15.1543 86.9639 15.251 87.1338 15.4443C87.3096 15.6318 87.3975 15.8633 87.3975 16.1387C87.3975 16.4082 87.3096 16.6367 87.1338 16.8242C86.9639 17.0117 86.7148 17.1055 86.3867 17.1055C86.0586 17.1055 85.8066 17.0117 85.6309 16.8242C85.4609 16.6367 85.376 16.4082 85.376 16.1387ZM85.3848 8.37793C85.3848 8.10254 85.4697 7.87109 85.6396 7.68359C85.8154 7.49023 86.0674 7.39355 86.3955 7.39355C86.7236 7.39355 86.9727 7.49023 87.1426 7.68359C87.3184 7.87109 87.4062 8.10254 87.4062 8.37793C87.4062 8.64746 87.3184 8.87598 87.1426 9.06348C86.9727 9.25098 86.7236 9.34473 86.3955 9.34473C86.0674 9.34473 85.8154 9.25098 85.6396 9.06348C85.4697 8.87598 85.3848 8.64746 85.3848 8.37793ZM99.8867 13.2646V4.20312H101.574V13.2646C101.574 14.1084 101.401 14.8203 101.056 15.4004C100.71 15.9805 100.232 16.4229 99.623 16.7275C99.0195 17.0264 98.3252 17.1758 97.54 17.1758C96.7549 17.1758 96.0576 17.041 95.4482 16.7715C94.8389 16.502 94.3613 16.0918 94.0156 15.541C93.6699 14.9902 93.4971 14.2959 93.4971 13.458H95.1934C95.1934 13.9971 95.293 14.4395 95.4922 14.7852C95.6914 15.1309 95.9668 15.3857 96.3184 15.5498C96.6758 15.7139 97.083 15.7959 97.54 15.7959C97.9854 15.7959 98.3838 15.7021 98.7354 15.5146C99.0928 15.3213 99.374 15.0371 99.5791 14.6621C99.7842 14.2812 99.8867 13.8154 99.8867 13.2646ZM109.81 15.374V10.4785C109.81 10.1035 109.733 9.77832 109.581 9.50293C109.435 9.22168 109.212 9.00488 108.913 8.85254C108.614 8.7002 108.245 8.62402 107.806 8.62402C107.396 8.62402 107.035 8.69434 106.725 8.83496C106.42 8.97559 106.18 9.16016 106.004 9.38867C105.834 9.61719 105.749 9.86328 105.749 10.127H104.123C104.123 9.78711 104.211 9.4502 104.387 9.11621C104.562 8.78223 104.814 8.48047 105.143 8.21094C105.477 7.93555 105.875 7.71875 106.338 7.56055C106.807 7.39648 107.328 7.31445 107.902 7.31445C108.594 7.31445 109.203 7.43164 109.73 7.66602C110.264 7.90039 110.68 8.25488 110.979 8.72949C111.283 9.19824 111.436 9.78711 111.436 10.4961V14.9258C111.436 15.2422 111.462 15.5791 111.515 15.9365C111.573 16.2939 111.658 16.6016 111.77 16.8594V17H110.073C109.991 16.8125 109.927 16.5635 109.88 16.2529C109.833 15.9365 109.81 15.6436 109.81 15.374ZM110.091 11.2344L110.108 12.377H108.465C108.002 12.377 107.589 12.415 107.226 12.4912C106.862 12.5615 106.558 12.6699 106.312 12.8164C106.065 12.9629 105.878 13.1475 105.749 13.3701C105.62 13.5869 105.556 13.8418 105.556 14.1348C105.556 14.4336 105.623 14.7061 105.758 14.9521C105.893 15.1982 106.095 15.3945 106.364 15.541C106.64 15.6816 106.977 15.752 107.375 15.752C107.873 15.752 108.312 15.6465 108.693 15.4355C109.074 15.2246 109.376 14.9668 109.599 14.6621C109.827 14.3574 109.95 14.0615 109.968 13.7744L110.662 14.5566C110.621 14.8027 110.51 15.0752 110.328 15.374C110.146 15.6729 109.903 15.96 109.599 16.2354C109.3 16.5049 108.942 16.7305 108.526 16.9121C108.116 17.0879 107.653 17.1758 107.138 17.1758C106.493 17.1758 105.928 17.0498 105.441 16.7979C104.961 16.5459 104.586 16.209 104.316 15.7871C104.053 15.3594 103.921 14.8818 103.921 14.3545C103.921 13.8447 104.021 13.3965 104.22 13.0098C104.419 12.6172 104.706 12.292 105.081 12.0342C105.456 11.7705 105.907 11.5713 106.435 11.4365C106.962 11.3018 107.551 11.2344 108.201 11.2344H110.091ZM115.619 9.52051V17H113.993V7.49023H115.531L115.619 9.52051ZM115.232 11.8848L114.556 11.8584C114.562 11.208 114.658 10.6074 114.846 10.0566C115.033 9.5 115.297 9.0166 115.637 8.60645C115.977 8.19629 116.381 7.87988 116.85 7.65723C117.324 7.42871 117.849 7.31445 118.423 7.31445C118.892 7.31445 119.313 7.37891 119.688 7.50781C120.063 7.63086 120.383 7.83008 120.646 8.10547C120.916 8.38086 121.121 8.73828 121.262 9.17773C121.402 9.61133 121.473 10.1416 121.473 10.7686V17H119.838V10.751C119.838 10.2529 119.765 9.85449 119.618 9.55566C119.472 9.25098 119.258 9.03125 118.977 8.89648C118.695 8.75586 118.35 8.68555 117.939 8.68555C117.535 8.68555 117.166 8.77051 116.832 8.94043C116.504 9.11035 116.22 9.34473 115.979 9.64355C115.745 9.94238 115.561 10.2852 115.426 10.6719C115.297 11.0527 115.232 11.457 115.232 11.8848ZM129.761 14.8027V7.49023H131.396V17H129.84L129.761 14.8027ZM130.068 12.7988L130.745 12.7812C130.745 13.4141 130.678 14 130.543 14.5391C130.414 15.0723 130.203 15.5352 129.91 15.9277C129.617 16.3203 129.233 16.6279 128.759 16.8506C128.284 17.0674 127.707 17.1758 127.027 17.1758C126.564 17.1758 126.14 17.1084 125.753 16.9736C125.372 16.8389 125.044 16.6309 124.769 16.3496C124.493 16.0684 124.279 15.7021 124.127 15.251C123.98 14.7998 123.907 14.2578 123.907 13.625V7.49023H125.533V13.6426C125.533 14.0703 125.58 14.4248 125.674 14.7061C125.773 14.9814 125.905 15.2012 126.069 15.3652C126.239 15.5234 126.427 15.6348 126.632 15.6992C126.843 15.7637 127.06 15.7959 127.282 15.7959C127.974 15.7959 128.521 15.6641 128.926 15.4004C129.33 15.1309 129.62 14.7705 129.796 14.3193C129.978 13.8623 130.068 13.3555 130.068 12.7988ZM139.481 15.374V10.4785C139.481 10.1035 139.405 9.77832 139.253 9.50293C139.106 9.22168 138.884 9.00488 138.585 8.85254C138.286 8.7002 137.917 8.62402 137.478 8.62402C137.067 8.62402 136.707 8.69434 136.396 8.83496C136.092 8.97559 135.852 9.16016 135.676 9.38867C135.506 9.61719 135.421 9.86328 135.421 10.127H133.795C133.795 9.78711 133.883 9.4502 134.059 9.11621C134.234 8.78223 134.486 8.48047 134.814 8.21094C135.148 7.93555 135.547 7.71875 136.01 7.56055C136.479 7.39648 137 7.31445 137.574 7.31445C138.266 7.31445 138.875 7.43164 139.402 7.66602C139.936 7.90039 140.352 8.25488 140.65 8.72949C140.955 9.19824 141.107 9.78711 141.107 10.4961V14.9258C141.107 15.2422 141.134 15.5791 141.187 15.9365C141.245 16.2939 141.33 16.6016 141.441 16.8594V17H139.745C139.663 16.8125 139.599 16.5635 139.552 16.2529C139.505 15.9365 139.481 15.6436 139.481 15.374ZM139.763 11.2344L139.78 12.377H138.137C137.674 12.377 137.261 12.415 136.897 12.4912C136.534 12.5615 136.229 12.6699 135.983 12.8164C135.737 12.9629 135.55 13.1475 135.421 13.3701C135.292 13.5869 135.228 13.8418 135.228 14.1348C135.228 14.4336 135.295 14.7061 135.43 14.9521C135.564 15.1982 135.767 15.3945 136.036 15.541C136.312 15.6816 136.648 15.752 137.047 15.752C137.545 15.752 137.984 15.6465 138.365 15.4355C138.746 15.2246 139.048 14.9668 139.271 14.6621C139.499 14.3574 139.622 14.0615 139.64 13.7744L140.334 14.5566C140.293 14.8027 140.182 15.0752 140 15.374C139.818 15.6729 139.575 15.96 139.271 16.2354C138.972 16.5049 138.614 16.7305 138.198 16.9121C137.788 17.0879 137.325 17.1758 136.81 17.1758C136.165 17.1758 135.6 17.0498 135.113 16.7979C134.633 16.5459 134.258 16.209 133.988 15.7871C133.725 15.3594 133.593 14.8818 133.593 14.3545C133.593 13.8447 133.692 13.3965 133.892 13.0098C134.091 12.6172 134.378 12.292 134.753 12.0342C135.128 11.7705 135.579 11.5713 136.106 11.4365C136.634 11.3018 137.223 11.2344 137.873 11.2344H139.763ZM145.291 8.98438V17H143.665V7.49023H145.247L145.291 8.98438ZM148.262 7.4375L148.253 8.94922C148.118 8.91992 147.989 8.90234 147.866 8.89648C147.749 8.88477 147.614 8.87891 147.462 8.87891C147.087 8.87891 146.756 8.9375 146.469 9.05469C146.182 9.17188 145.938 9.33594 145.739 9.54688C145.54 9.75781 145.382 10.0098 145.265 10.3027C145.153 10.5898 145.08 10.9062 145.045 11.252L144.588 11.5156C144.588 10.9414 144.644 10.4023 144.755 9.89844C144.872 9.39453 145.051 8.94922 145.291 8.5625C145.531 8.16992 145.836 7.86523 146.205 7.64844C146.58 7.42578 147.025 7.31445 147.541 7.31445C147.658 7.31445 147.793 7.3291 147.945 7.3584C148.098 7.38184 148.203 7.4082 148.262 7.4375ZM152.595 16.0156L155.24 7.49023H156.98L153.166 18.4678C153.078 18.7021 152.961 18.9541 152.814 19.2236C152.674 19.499 152.492 19.7598 152.27 20.0059C152.047 20.252 151.777 20.4512 151.461 20.6035C151.15 20.7617 150.778 20.8408 150.345 20.8408C150.216 20.8408 150.052 20.8232 149.853 20.7881C149.653 20.7529 149.513 20.7236 149.431 20.7002L149.422 19.3818C149.469 19.3877 149.542 19.3936 149.642 19.3994C149.747 19.4111 149.82 19.417 149.861 19.417C150.23 19.417 150.544 19.3672 150.802 19.2676C151.06 19.1738 151.276 19.0127 151.452 18.7842C151.634 18.5615 151.789 18.2539 151.918 17.8613L152.595 16.0156ZM150.652 7.49023L153.122 14.873L153.544 16.5869L152.375 17.1846L148.877 7.49023H150.652ZM168.978 4.18555H169.118V5.56543H168.978C168.116 5.56543 167.396 5.70605 166.815 5.9873C166.235 6.2627 165.775 6.63477 165.436 7.10352C165.096 7.56641 164.85 8.08789 164.697 8.66797C164.551 9.24805 164.478 9.83691 164.478 10.4346V12.3154C164.478 12.8838 164.545 13.3877 164.68 13.8271C164.814 14.2607 164.999 14.627 165.233 14.9258C165.468 15.2246 165.731 15.4502 166.024 15.6025C166.323 15.7549 166.634 15.8311 166.956 15.8311C167.331 15.8311 167.665 15.7607 167.958 15.6201C168.251 15.4736 168.497 15.2715 168.696 15.0137C168.901 14.75 169.057 14.4395 169.162 14.082C169.268 13.7246 169.32 13.332 169.32 12.9043C169.32 12.5234 169.273 12.1572 169.18 11.8057C169.086 11.4482 168.942 11.1318 168.749 10.8564C168.556 10.5752 168.312 10.3555 168.02 10.1973C167.732 10.0332 167.39 9.95117 166.991 9.95117C166.54 9.95117 166.118 10.0625 165.726 10.2852C165.339 10.502 165.02 10.7891 164.768 11.1465C164.521 11.498 164.381 11.8818 164.346 12.2979L163.484 12.2891C163.566 11.6328 163.719 11.0732 163.941 10.6104C164.17 10.1416 164.451 9.76074 164.785 9.46777C165.125 9.16895 165.503 8.95215 165.919 8.81738C166.341 8.67676 166.786 8.60645 167.255 8.60645C167.894 8.60645 168.444 8.72656 168.907 8.9668C169.37 9.20703 169.751 9.5293 170.05 9.93359C170.349 10.332 170.568 10.7832 170.709 11.2871C170.855 11.7852 170.929 12.2979 170.929 12.8252C170.929 13.4287 170.844 13.9941 170.674 14.5215C170.504 15.0488 170.249 15.5117 169.909 15.9102C169.575 16.3086 169.162 16.6191 168.67 16.8418C168.178 17.0645 167.606 17.1758 166.956 17.1758C166.265 17.1758 165.661 17.0352 165.146 16.7539C164.63 16.4668 164.202 16.0859 163.862 15.6113C163.522 15.1367 163.268 14.6094 163.098 14.0293C162.928 13.4492 162.843 12.8604 162.843 12.2627V11.498C162.843 10.5957 162.934 9.71094 163.115 8.84375C163.297 7.97656 163.61 7.19141 164.056 6.48828C164.507 5.78516 165.131 5.22559 165.928 4.80957C166.725 4.39355 167.741 4.18555 168.978 4.18555ZM174.515 15.0664V16.376C174.515 16.9092 174.38 17.4717 174.11 18.0635C173.841 18.6611 173.463 19.1592 172.977 19.5576L172.054 18.916C172.241 18.6582 172.399 18.3945 172.528 18.125C172.657 17.8613 172.754 17.5859 172.818 17.2988C172.889 17.0176 172.924 16.7188 172.924 16.4023V15.0664H174.515ZM189.263 15.6641V17H180.887V15.8311L185.079 11.1641C185.595 10.5898 185.993 10.1035 186.274 9.70508C186.562 9.30078 186.761 8.94043 186.872 8.62402C186.989 8.30176 187.048 7.97363 187.048 7.63965C187.048 7.21777 186.96 6.83691 186.784 6.49707C186.614 6.15137 186.362 5.87598 186.028 5.6709C185.694 5.46582 185.29 5.36328 184.815 5.36328C184.247 5.36328 183.772 5.47461 183.392 5.69727C183.017 5.91406 182.735 6.21875 182.548 6.61133C182.36 7.00391 182.267 7.45508 182.267 7.96484H180.641C180.641 7.24414 180.799 6.58496 181.115 5.9873C181.432 5.38965 181.9 4.91504 182.521 4.56348C183.143 4.20605 183.907 4.02734 184.815 4.02734C185.624 4.02734 186.315 4.1709 186.89 4.45801C187.464 4.73926 187.903 5.1377 188.208 5.65332C188.519 6.16309 188.674 6.76074 188.674 7.44629C188.674 7.82129 188.609 8.20215 188.48 8.58887C188.357 8.96973 188.185 9.35059 187.962 9.73145C187.745 10.1123 187.49 10.4873 187.197 10.8564C186.91 11.2256 186.603 11.5889 186.274 11.9463L182.847 15.6641H189.263ZM199.036 9.58203V11.5332C199.036 12.582 198.942 13.4668 198.755 14.1875C198.567 14.9082 198.298 15.4883 197.946 15.9277C197.595 16.3672 197.17 16.6865 196.672 16.8857C196.18 17.0791 195.623 17.1758 195.002 17.1758C194.51 17.1758 194.056 17.1143 193.64 16.9912C193.224 16.8682 192.849 16.6719 192.515 16.4023C192.187 16.127 191.905 15.7695 191.671 15.3301C191.437 14.8906 191.258 14.3574 191.135 13.7305C191.012 13.1035 190.95 12.3711 190.95 11.5332V9.58203C190.95 8.5332 191.044 7.6543 191.231 6.94531C191.425 6.23633 191.697 5.66797 192.049 5.24023C192.4 4.80664 192.822 4.49609 193.314 4.30859C193.812 4.12109 194.369 4.02734 194.984 4.02734C195.482 4.02734 195.939 4.08887 196.355 4.21191C196.777 4.3291 197.152 4.51953 197.48 4.7832C197.809 5.04102 198.087 5.38672 198.315 5.82031C198.55 6.24805 198.729 6.77246 198.852 7.39355C198.975 8.01465 199.036 8.74414 199.036 9.58203ZM197.401 11.7969V9.30957C197.401 8.73535 197.366 8.23145 197.296 7.79785C197.231 7.3584 197.135 6.9834 197.006 6.67285C196.877 6.3623 196.713 6.11035 196.514 5.91699C196.32 5.72363 196.095 5.58301 195.837 5.49512C195.585 5.40137 195.301 5.35449 194.984 5.35449C194.598 5.35449 194.255 5.42773 193.956 5.57422C193.657 5.71484 193.405 5.94043 193.2 6.25098C193.001 6.56152 192.849 6.96875 192.743 7.47266C192.638 7.97656 192.585 8.58887 192.585 9.30957V11.7969C192.585 12.3711 192.617 12.8779 192.682 13.3174C192.752 13.7568 192.854 14.1377 192.989 14.46C193.124 14.7764 193.288 15.0371 193.481 15.2422C193.675 15.4473 193.897 15.5996 194.149 15.6992C194.407 15.793 194.691 15.8398 195.002 15.8398C195.4 15.8398 195.749 15.7637 196.048 15.6113C196.347 15.459 196.596 15.2217 196.795 14.8994C197 14.5713 197.152 14.1523 197.252 13.6426C197.352 13.127 197.401 12.5117 197.401 11.7969ZM209.513 15.6641V17H201.137V15.8311L205.329 11.1641C205.845 10.5898 206.243 10.1035 206.524 9.70508C206.812 9.30078 207.011 8.94043 207.122 8.62402C207.239 8.30176 207.298 7.97363 207.298 7.63965C207.298 7.21777 207.21 6.83691 207.034 6.49707C206.864 6.15137 206.612 5.87598 206.278 5.6709C205.944 5.46582 205.54 5.36328 205.065 5.36328C204.497 5.36328 204.022 5.47461 203.642 5.69727C203.267 5.91406 202.985 6.21875 202.798 6.61133C202.61 7.00391 202.517 7.45508 202.517 7.96484H200.891C200.891 7.24414 201.049 6.58496 201.365 5.9873C201.682 5.38965 202.15 4.91504 202.771 4.56348C203.393 4.20605 204.157 4.02734 205.065 4.02734C205.874 4.02734 206.565 4.1709 207.14 4.45801C207.714 4.73926 208.153 5.1377 208.458 5.65332C208.769 6.16309 208.924 6.76074 208.924 7.44629C208.924 7.82129 208.859 8.20215 208.73 8.58887C208.607 8.96973 208.435 9.35059 208.212 9.73145C207.995 10.1123 207.74 10.4873 207.447 10.8564C207.16 11.2256 206.853 11.5889 206.524 11.9463L203.097 15.6641H209.513ZM219.638 15.6641V17H211.262V15.8311L215.454 11.1641C215.97 10.5898 216.368 10.1035 216.649 9.70508C216.937 9.30078 217.136 8.94043 217.247 8.62402C217.364 8.30176 217.423 7.97363 217.423 7.63965C217.423 7.21777 217.335 6.83691 217.159 6.49707C216.989 6.15137 216.737 5.87598 216.403 5.6709C216.069 5.46582 215.665 5.36328 215.19 5.36328C214.622 5.36328 214.147 5.47461 213.767 5.69727C213.392 5.91406 213.11 6.21875 212.923 6.61133C212.735 7.00391 212.642 7.45508 212.642 7.96484H211.016C211.016 7.24414 211.174 6.58496 211.49 5.9873C211.807 5.38965 212.275 4.91504 212.896 4.56348C213.518 4.20605 214.282 4.02734 215.19 4.02734C215.999 4.02734 216.69 4.1709 217.265 4.45801C217.839 4.73926 218.278 5.1377 218.583 5.65332C218.894 6.16309 219.049 6.76074 219.049 7.44629C219.049 7.82129 218.984 8.20215 218.855 8.58887C218.732 8.96973 218.56 9.35059 218.337 9.73145C218.12 10.1123 217.865 10.4873 217.572 10.8564C217.285 11.2256 216.978 11.5889 216.649 11.9463L213.222 15.6641H219.638Z" fill="#274C5B"/>
<path d="M282.547 11.0146H279.304L279.286 9.65234H282.23C282.717 9.65234 283.142 9.57031 283.505 9.40625C283.868 9.24219 284.149 9.00781 284.349 8.70312C284.554 8.39258 284.656 8.02344 284.656 7.5957C284.656 7.12695 284.565 6.74609 284.384 6.45312C284.208 6.1543 283.936 5.9375 283.566 5.80273C283.203 5.66211 282.74 5.5918 282.178 5.5918H279.682V17H277.985V4.20312H282.178C282.834 4.20312 283.42 4.27051 283.936 4.40527C284.451 4.53418 284.888 4.73926 285.245 5.02051C285.608 5.2959 285.884 5.64746 286.071 6.0752C286.259 6.50293 286.353 7.01562 286.353 7.61328C286.353 8.14062 286.218 8.61816 285.948 9.0459C285.679 9.46777 285.304 9.81348 284.823 10.083C284.349 10.3525 283.792 10.5254 283.153 10.6016L282.547 11.0146ZM282.468 17H278.636L279.594 15.6201H282.468C283.007 15.6201 283.464 15.5264 283.839 15.3389C284.22 15.1514 284.51 14.8877 284.709 14.5479C284.908 14.2021 285.008 13.7949 285.008 13.3262C285.008 12.8516 284.923 12.4414 284.753 12.0957C284.583 11.75 284.316 11.4834 283.953 11.2959C283.59 11.1084 283.121 11.0146 282.547 11.0146H280.13L280.147 9.65234H283.452L283.812 10.1445C284.428 10.1973 284.949 10.373 285.377 10.6719C285.805 10.9648 286.13 11.3398 286.353 11.7969C286.581 12.2539 286.695 12.7578 286.695 13.3086C286.695 14.1055 286.52 14.7793 286.168 15.3301C285.822 15.875 285.333 16.291 284.7 16.5781C284.067 16.8594 283.323 17 282.468 17ZM291.626 16.0156L294.271 7.49023H296.012L292.197 18.4678C292.109 18.7021 291.992 18.9541 291.846 19.2236C291.705 19.499 291.523 19.7598 291.301 20.0059C291.078 20.252 290.809 20.4512 290.492 20.6035C290.182 20.7617 289.81 20.8408 289.376 20.8408C289.247 20.8408 289.083 20.8232 288.884 20.7881C288.685 20.7529 288.544 20.7236 288.462 20.7002L288.453 19.3818C288.5 19.3877 288.573 19.3936 288.673 19.3994C288.778 19.4111 288.852 19.417 288.893 19.417C289.262 19.417 289.575 19.3672 289.833 19.2676C290.091 19.1738 290.308 19.0127 290.483 18.7842C290.665 18.5615 290.82 18.2539 290.949 17.8613L291.626 16.0156ZM289.684 7.49023L292.153 14.873L292.575 16.5869L291.406 17.1846L287.908 7.49023H289.684ZM302.19 4.20312H306.427C307.388 4.20312 308.199 4.34961 308.861 4.64258C309.529 4.93555 310.036 5.36914 310.382 5.94336C310.733 6.51172 310.909 7.21191 310.909 8.04395C310.909 8.62988 310.789 9.16602 310.549 9.65234C310.314 10.1328 309.975 10.543 309.529 10.8828C309.09 11.2168 308.562 11.4658 307.947 11.6299L307.473 11.8145H303.491L303.474 10.4346H306.479C307.089 10.4346 307.596 10.3291 308 10.1182C308.404 9.90137 308.709 9.61133 308.914 9.24805C309.119 8.88477 309.222 8.4834 309.222 8.04395C309.222 7.55176 309.125 7.12109 308.932 6.75195C308.738 6.38281 308.434 6.09863 308.018 5.89941C307.607 5.69434 307.077 5.5918 306.427 5.5918H303.887V17H302.19V4.20312ZM309.67 17L306.559 11.1992L308.325 11.1904L311.48 16.8945V17H309.67ZM318.644 15.374V10.4785C318.644 10.1035 318.567 9.77832 318.415 9.50293C318.269 9.22168 318.046 9.00488 317.747 8.85254C317.448 8.7002 317.079 8.62402 316.64 8.62402C316.229 8.62402 315.869 8.69434 315.559 8.83496C315.254 8.97559 315.014 9.16016 314.838 9.38867C314.668 9.61719 314.583 9.86328 314.583 10.127H312.957C312.957 9.78711 313.045 9.4502 313.221 9.11621C313.396 8.78223 313.648 8.48047 313.977 8.21094C314.311 7.93555 314.709 7.71875 315.172 7.56055C315.641 7.39648 316.162 7.31445 316.736 7.31445C317.428 7.31445 318.037 7.43164 318.564 7.66602C319.098 7.90039 319.514 8.25488 319.812 8.72949C320.117 9.19824 320.27 9.78711 320.27 10.4961V14.9258C320.27 15.2422 320.296 15.5791 320.349 15.9365C320.407 16.2939 320.492 16.6016 320.604 16.8594V17H318.907C318.825 16.8125 318.761 16.5635 318.714 16.2529C318.667 15.9365 318.644 15.6436 318.644 15.374ZM318.925 11.2344L318.942 12.377H317.299C316.836 12.377 316.423 12.415 316.06 12.4912C315.696 12.5615 315.392 12.6699 315.146 12.8164C314.899 12.9629 314.712 13.1475 314.583 13.3701C314.454 13.5869 314.39 13.8418 314.39 14.1348C314.39 14.4336 314.457 14.7061 314.592 14.9521C314.727 15.1982 314.929 15.3945 315.198 15.541C315.474 15.6816 315.811 15.752 316.209 15.752C316.707 15.752 317.146 15.6465 317.527 15.4355C317.908 15.2246 318.21 14.9668 318.433 14.6621C318.661 14.3574 318.784 14.0615 318.802 13.7744L319.496 14.5566C319.455 14.8027 319.344 15.0752 319.162 15.374C318.98 15.6729 318.737 15.96 318.433 16.2354C318.134 16.5049 317.776 16.7305 317.36 16.9121C316.95 17.0879 316.487 17.1758 315.972 17.1758C315.327 17.1758 314.762 17.0498 314.275 16.7979C313.795 16.5459 313.42 16.209 313.15 15.7871C312.887 15.3594 312.755 14.8818 312.755 14.3545C312.755 13.8447 312.854 13.3965 313.054 13.0098C313.253 12.6172 313.54 12.292 313.915 12.0342C314.29 11.7705 314.741 11.5713 315.269 11.4365C315.796 11.3018 316.385 11.2344 317.035 11.2344H318.925ZM326.633 15.8398C327.02 15.8398 327.377 15.7607 327.705 15.6025C328.033 15.4443 328.303 15.2275 328.514 14.9521C328.725 14.6709 328.845 14.3516 328.874 13.9941H330.421C330.392 14.5566 330.201 15.0811 329.85 15.5674C329.504 16.0479 329.05 16.4375 328.487 16.7363C327.925 17.0293 327.307 17.1758 326.633 17.1758C325.918 17.1758 325.294 17.0498 324.761 16.7979C324.233 16.5459 323.794 16.2002 323.442 15.7607C323.097 15.3213 322.836 14.8174 322.66 14.249C322.49 13.6748 322.405 13.0684 322.405 12.4297V12.0605C322.405 11.4219 322.49 10.8184 322.66 10.25C322.836 9.67578 323.097 9.16895 323.442 8.72949C323.794 8.29004 324.233 7.94434 324.761 7.69238C325.294 7.44043 325.918 7.31445 326.633 7.31445C327.377 7.31445 328.027 7.4668 328.584 7.77148C329.141 8.07031 329.577 8.48047 329.894 9.00195C330.216 9.51758 330.392 10.1035 330.421 10.7598H328.874C328.845 10.3672 328.733 10.0127 328.54 9.69629C328.353 9.37988 328.095 9.12793 327.767 8.94043C327.444 8.74707 327.066 8.65039 326.633 8.65039C326.135 8.65039 325.716 8.75 325.376 8.94922C325.042 9.14258 324.775 9.40625 324.576 9.74023C324.383 10.0684 324.242 10.4346 324.154 10.8389C324.072 11.2373 324.031 11.6445 324.031 12.0605V12.4297C324.031 12.8457 324.072 13.2559 324.154 13.6602C324.236 14.0645 324.374 14.4307 324.567 14.7588C324.767 15.0869 325.033 15.3506 325.367 15.5498C325.707 15.7432 326.129 15.8398 326.633 15.8398ZM333.875 3.5V17H332.249V3.5H333.875ZM333.488 11.8848L332.812 11.8584C332.817 11.208 332.914 10.6074 333.102 10.0566C333.289 9.5 333.553 9.0166 333.893 8.60645C334.232 8.19629 334.637 7.87988 335.105 7.65723C335.58 7.42871 336.104 7.31445 336.679 7.31445C337.147 7.31445 337.569 7.37891 337.944 7.50781C338.319 7.63086 338.639 7.83008 338.902 8.10547C339.172 8.38086 339.377 8.73828 339.518 9.17773C339.658 9.61133 339.729 10.1416 339.729 10.7686V17H338.094V10.751C338.094 10.2529 338.021 9.85449 337.874 9.55566C337.728 9.25098 337.514 9.03125 337.232 8.89648C336.951 8.75586 336.605 8.68555 336.195 8.68555C335.791 8.68555 335.422 8.77051 335.088 8.94043C334.76 9.11035 334.476 9.34473 334.235 9.64355C334.001 9.94238 333.816 10.2852 333.682 10.6719C333.553 11.0527 333.488 11.457 333.488 11.8848ZM343.93 7.49023V17H342.295V7.49023H343.93ZM342.172 4.96777C342.172 4.7041 342.251 4.48145 342.409 4.2998C342.573 4.11816 342.813 4.02734 343.13 4.02734C343.44 4.02734 343.678 4.11816 343.842 4.2998C344.012 4.48145 344.097 4.7041 344.097 4.96777C344.097 5.21973 344.012 5.43652 343.842 5.61816C343.678 5.79395 343.44 5.88184 343.13 5.88184C342.813 5.88184 342.573 5.79395 342.409 5.61816C342.251 5.43652 342.172 5.21973 342.172 4.96777ZM358.977 12.9307H360.664C360.576 13.7393 360.345 14.4629 359.97 15.1016C359.595 15.7402 359.064 16.2471 358.379 16.6221C357.693 16.9912 356.838 17.1758 355.812 17.1758C355.062 17.1758 354.38 17.0352 353.765 16.7539C353.155 16.4727 352.631 16.0742 352.191 15.5586C351.752 15.0371 351.412 14.4131 351.172 13.6865C350.938 12.9541 350.82 12.1396 350.82 11.2432V9.96875C350.82 9.07227 350.938 8.26074 351.172 7.53418C351.412 6.80176 351.755 6.1748 352.2 5.65332C352.651 5.13184 353.193 4.73047 353.826 4.44922C354.459 4.16797 355.171 4.02734 355.962 4.02734C356.929 4.02734 357.746 4.20898 358.414 4.57227C359.082 4.93555 359.601 5.43945 359.97 6.08398C360.345 6.72266 360.576 7.46387 360.664 8.30762H358.977C358.895 7.70996 358.742 7.19727 358.52 6.76953C358.297 6.33594 357.98 6.00195 357.57 5.76758C357.16 5.5332 356.624 5.41602 355.962 5.41602C355.394 5.41602 354.893 5.52441 354.459 5.74121C354.031 5.95801 353.671 6.26563 353.378 6.66406C353.091 7.0625 352.874 7.54004 352.728 8.09668C352.581 8.65332 352.508 9.27148 352.508 9.95117V11.2432C352.508 11.8701 352.572 12.459 352.701 13.0098C352.836 13.5605 353.038 14.0439 353.308 14.46C353.577 14.876 353.92 15.2041 354.336 15.4443C354.752 15.6787 355.244 15.7959 355.812 15.7959C356.533 15.7959 357.107 15.6816 357.535 15.4531C357.963 15.2246 358.285 14.8965 358.502 14.4688C358.725 14.041 358.883 13.5283 358.977 12.9307ZM368.337 15.374V10.4785C368.337 10.1035 368.261 9.77832 368.108 9.50293C367.962 9.22168 367.739 9.00488 367.44 8.85254C367.142 8.7002 366.772 8.62402 366.333 8.62402C365.923 8.62402 365.562 8.69434 365.252 8.83496C364.947 8.97559 364.707 9.16016 364.531 9.38867C364.361 9.61719 364.276 9.86328 364.276 10.127H362.65C362.65 9.78711 362.738 9.4502 362.914 9.11621C363.09 8.78223 363.342 8.48047 363.67 8.21094C364.004 7.93555 364.402 7.71875 364.865 7.56055C365.334 7.39648 365.855 7.31445 366.43 7.31445C367.121 7.31445 367.73 7.43164 368.258 7.66602C368.791 7.90039 369.207 8.25488 369.506 8.72949C369.811 9.19824 369.963 9.78711 369.963 10.4961V14.9258C369.963 15.2422 369.989 15.5791 370.042 15.9365C370.101 16.2939 370.186 16.6016 370.297 16.8594V17H368.601C368.519 16.8125 368.454 16.5635 368.407 16.2529C368.36 15.9365 368.337 15.6436 368.337 15.374ZM368.618 11.2344L368.636 12.377H366.992C366.529 12.377 366.116 12.415 365.753 12.4912C365.39 12.5615 365.085 12.6699 364.839 12.8164C364.593 12.9629 364.405 13.1475 364.276 13.3701C364.147 13.5869 364.083 13.8418 364.083 14.1348C364.083 14.4336 364.15 14.7061 364.285 14.9521C364.42 15.1982 364.622 15.3945 364.892 15.541C365.167 15.6816 365.504 15.752 365.902 15.752C366.4 15.752 366.84 15.6465 367.221 15.4355C367.602 15.2246 367.903 14.9668 368.126 14.6621C368.354 14.3574 368.478 14.0615 368.495 13.7744L369.189 14.5566C369.148 14.8027 369.037 15.0752 368.855 15.374C368.674 15.6729 368.431 15.96 368.126 16.2354C367.827 16.5049 367.47 16.7305 367.054 16.9121C366.644 17.0879 366.181 17.1758 365.665 17.1758C365.021 17.1758 364.455 17.0498 363.969 16.7979C363.488 16.5459 363.113 16.209 362.844 15.7871C362.58 15.3594 362.448 14.8818 362.448 14.3545C362.448 13.8447 362.548 13.3965 362.747 13.0098C362.946 12.6172 363.233 12.292 363.608 12.0342C363.983 11.7705 364.435 11.5713 364.962 11.4365C365.489 11.3018 366.078 11.2344 366.729 11.2344H368.618ZM374.146 8.98438V17H372.521V7.49023H374.103L374.146 8.98438ZM377.117 7.4375L377.108 8.94922C376.974 8.91992 376.845 8.90234 376.722 8.89648C376.604 8.88477 376.47 8.87891 376.317 8.87891C375.942 8.87891 375.611 8.9375 375.324 9.05469C375.037 9.17188 374.794 9.33594 374.595 9.54688C374.396 9.75781 374.237 10.0098 374.12 10.3027C374.009 10.5898 373.936 10.9062 373.9 11.252L373.443 11.5156C373.443 10.9414 373.499 10.4023 373.61 9.89844C373.728 9.39453 373.906 8.94922 374.146 8.5625C374.387 8.16992 374.691 7.86523 375.061 7.64844C375.436 7.42578 375.881 7.31445 376.396 7.31445C376.514 7.31445 376.648 7.3291 376.801 7.3584C376.953 7.38184 377.059 7.4082 377.117 7.4375ZM384.438 15.1543V3.5H386.073V17H384.579L384.438 15.1543ZM378.04 12.3506V12.166C378.04 11.4395 378.128 10.7803 378.304 10.1885C378.485 9.59082 378.74 9.07812 379.068 8.65039C379.402 8.22266 379.798 7.89453 380.255 7.66602C380.718 7.43164 381.233 7.31445 381.802 7.31445C382.399 7.31445 382.921 7.41992 383.366 7.63086C383.817 7.83594 384.198 8.1377 384.509 8.53613C384.825 8.92871 385.074 9.40332 385.256 9.95996C385.438 10.5166 385.563 11.1465 385.634 11.8496V12.6582C385.569 13.3555 385.443 13.9824 385.256 14.5391C385.074 15.0957 384.825 15.5703 384.509 15.9629C384.198 16.3555 383.817 16.6572 383.366 16.8682C382.915 17.0732 382.388 17.1758 381.784 17.1758C381.228 17.1758 380.718 17.0557 380.255 16.8154C379.798 16.5752 379.402 16.2383 379.068 15.8047C378.74 15.3711 378.485 14.8613 378.304 14.2754C378.128 13.6836 378.04 13.042 378.04 12.3506ZM379.675 12.166V12.3506C379.675 12.8252 379.722 13.2705 379.815 13.6865C379.915 14.1025 380.067 14.4688 380.272 14.7852C380.478 15.1016 380.738 15.3506 381.055 15.5322C381.371 15.708 381.749 15.7959 382.188 15.7959C382.728 15.7959 383.17 15.6816 383.516 15.4531C383.867 15.2246 384.148 14.9229 384.359 14.5479C384.57 14.1729 384.734 13.7656 384.852 13.3262V11.208C384.781 10.8857 384.679 10.5752 384.544 10.2764C384.415 9.97168 384.245 9.70215 384.034 9.46777C383.829 9.22754 383.574 9.03711 383.27 8.89648C382.971 8.75586 382.616 8.68555 382.206 8.68555C381.761 8.68555 381.377 8.7793 381.055 8.9668C380.738 9.14844 380.478 9.40039 380.272 9.72266C380.067 10.0391 379.915 10.4082 379.815 10.8301C379.722 11.2461 379.675 11.6914 379.675 12.166Z" fill="#274C5B"/>
<path d="M262.816 1.45446C261.974 0.516515 260.798 0 259.5 0C258.195 0 257.015 0.51339 256.177 1.44553C255.33 2.38793 254.917 3.66873 255.014 5.05176C255.206 7.78031 257.218 9.99994 259.5 9.99994C261.782 9.99994 263.79 7.78076 263.986 5.05265C264.084 3.68212 263.668 2.404 262.816 1.45446ZM267.115 19.9999H251.885C251.685 20.0026 251.488 19.9594 251.307 19.8734C251.126 19.7874 250.966 19.6609 250.838 19.503C250.556 19.1561 250.443 18.6825 250.527 18.2035C250.892 16.1133 252.032 14.3575 253.823 13.1249C255.415 12.0307 257.43 11.4285 259.5 11.4285C261.57 11.4285 263.585 12.0312 265.177 13.1249C266.968 14.3571 268.108 16.1129 268.473 18.203C268.557 18.682 268.444 19.1557 268.162 19.5026C268.035 19.6606 267.874 19.7872 267.693 19.8732C267.512 19.9592 267.315 20.0025 267.115 19.9999Z" fill="#7EB693"/>
</svg>
