<svg width="1920" height="48" viewBox="0 0 1920 48" fill="none" xmlns="http://www.w3.org/2000/svg">
<line y1="0.5" x2="1920" y2="0.5" stroke="#D5D5D5"/>
<path d="M874.253 28.2842C873.544 28.2842 872.905 28.4072 872.337 28.6533C871.774 28.8936 871.294 29.2451 870.896 29.708C870.503 30.165 870.201 30.7188 869.99 31.3691C869.779 32.0195 869.674 32.752 869.674 33.5664C869.674 34.6445 869.841 35.582 870.175 36.3789C870.515 37.1699 871.019 37.7822 871.687 38.2158C872.36 38.6494 873.201 38.8662 874.209 38.8662C874.783 38.8662 875.322 38.8193 875.826 38.7256C876.336 38.626 876.831 38.5029 877.312 38.3564V39.6572C876.843 39.833 876.351 39.9619 875.835 40.0439C875.319 40.1318 874.707 40.1758 873.998 40.1758C872.691 40.1758 871.599 39.9062 870.72 39.3672C869.847 38.8223 869.19 38.0547 868.751 37.0645C868.317 36.0742 868.101 34.9053 868.101 33.5576C868.101 32.585 868.235 31.6973 868.505 30.8945C868.78 30.0859 869.179 29.3887 869.7 28.8027C870.228 28.2168 870.872 27.7656 871.634 27.4492C872.401 27.127 873.28 26.9658 874.271 26.9658C874.921 26.9658 875.548 27.0303 876.151 27.1592C876.755 27.2881 877.3 27.4727 877.786 27.7129L877.188 28.9785C876.778 28.791 876.327 28.6299 875.835 28.4951C875.349 28.3545 874.821 28.2842 874.253 28.2842ZM888.184 35.166C888.184 35.957 888.081 36.6631 887.876 37.2842C887.671 37.9053 887.375 38.4297 886.988 38.8574C886.602 39.2852 886.133 39.6133 885.582 39.8418C885.037 40.0645 884.419 40.1758 883.728 40.1758C883.083 40.1758 882.491 40.0645 881.952 39.8418C881.419 39.6133 880.956 39.2852 880.563 38.8574C880.177 38.4297 879.875 37.9053 879.658 37.2842C879.447 36.6631 879.342 35.957 879.342 35.166C879.342 34.1113 879.521 33.2148 879.878 32.4766C880.235 31.7324 880.745 31.167 881.407 30.7803C882.075 30.3877 882.869 30.1914 883.789 30.1914C884.668 30.1914 885.436 30.3877 886.092 30.7803C886.754 31.1729 887.267 31.7412 887.63 32.4854C887.999 33.2236 888.184 34.1172 888.184 35.166ZM880.854 35.166C880.854 35.9395 880.956 36.6104 881.161 37.1787C881.366 37.7471 881.683 38.1865 882.11 38.4971C882.538 38.8076 883.089 38.9629 883.763 38.9629C884.431 38.9629 884.979 38.8076 885.406 38.4971C885.84 38.1865 886.159 37.7471 886.364 37.1787C886.569 36.6104 886.672 35.9395 886.672 35.166C886.672 34.3984 886.569 33.7363 886.364 33.1797C886.159 32.6172 885.843 32.1836 885.415 31.8789C884.987 31.5742 884.434 31.4219 883.754 31.4219C882.752 31.4219 882.017 31.7529 881.548 32.415C881.085 33.0771 880.854 33.9941 880.854 35.166ZM895.232 30.1914C896.434 30.1914 897.392 30.6045 898.106 31.4307C898.821 32.2568 899.179 33.499 899.179 35.1572C899.179 36.2529 899.015 37.1729 898.687 37.917C898.358 38.6611 897.896 39.2236 897.298 39.6045C896.706 39.9854 896.006 40.1758 895.197 40.1758C894.688 40.1758 894.239 40.1084 893.853 39.9736C893.466 39.8389 893.135 39.6572 892.859 39.4287C892.584 39.2002 892.355 38.9512 892.174 38.6816H892.068C892.086 38.9102 892.106 39.1855 892.13 39.5078C892.159 39.8301 892.174 40.1113 892.174 40.3516V44.3066H890.706V30.3672H891.91L892.104 31.791H892.174C892.361 31.498 892.59 31.2314 892.859 30.9912C893.129 30.7451 893.457 30.5518 893.844 30.4111C894.236 30.2646 894.699 30.1914 895.232 30.1914ZM894.978 31.4219C894.31 31.4219 893.771 31.5508 893.36 31.8086C892.956 32.0664 892.66 32.4531 892.473 32.9688C892.285 33.4785 892.186 34.1201 892.174 34.8936V35.1748C892.174 35.9893 892.262 36.6777 892.438 37.2402C892.619 37.8027 892.915 38.2305 893.325 38.5234C893.741 38.8164 894.298 38.9629 894.995 38.9629C895.593 38.9629 896.091 38.8018 896.489 38.4795C896.888 38.1572 897.184 37.709 897.377 37.1348C897.576 36.5547 897.676 35.8896 897.676 35.1396C897.676 34.0029 897.453 33.1006 897.008 32.4326C896.568 31.7588 895.892 31.4219 894.978 31.4219ZM900.207 30.3672H901.771L903.898 35.957C904.021 36.2852 904.136 36.6016 904.241 36.9062C904.347 37.2051 904.44 37.4922 904.522 37.7676C904.604 38.043 904.669 38.3096 904.716 38.5674H904.777C904.859 38.2744 904.977 37.8906 905.129 37.416C905.281 36.9355 905.445 36.4463 905.621 35.9482L907.634 30.3672H909.207L905.015 41.415C904.792 42.0068 904.531 42.5225 904.232 42.9619C903.939 43.4014 903.582 43.7383 903.16 43.9727C902.738 44.2129 902.229 44.333 901.631 44.333C901.355 44.333 901.112 44.3154 900.901 44.2803C900.69 44.251 900.509 44.2158 900.356 44.1748V43.0059C900.485 43.0352 900.641 43.0615 900.822 43.085C901.01 43.1084 901.203 43.1201 901.402 43.1201C901.766 43.1201 902.079 43.0498 902.343 42.9092C902.612 42.7744 902.844 42.5752 903.037 42.3115C903.23 42.0479 903.397 41.7344 903.538 41.3711L904.065 40.0176L900.207 30.3672ZM915.122 30.1914C915.315 30.1914 915.518 30.2031 915.729 30.2266C915.939 30.2441 916.127 30.2705 916.291 30.3057L916.106 31.6592C915.948 31.6182 915.772 31.5859 915.579 31.5625C915.386 31.5391 915.204 31.5273 915.034 31.5273C914.647 31.5273 914.281 31.6064 913.936 31.7646C913.596 31.917 913.297 32.1396 913.039 32.4326C912.781 32.7197 912.579 33.0684 912.433 33.4785C912.286 33.8828 912.213 34.334 912.213 34.832V40H910.745V30.3672H911.958L912.116 32.1426H912.178C912.377 31.7852 912.617 31.46 912.898 31.167C913.18 30.8682 913.505 30.6309 913.874 30.4551C914.249 30.2793 914.665 30.1914 915.122 30.1914ZM919.569 30.3672V40H918.11V30.3672H919.569ZM918.857 26.7637C919.098 26.7637 919.303 26.8428 919.473 27.001C919.648 27.1533 919.736 27.3936 919.736 27.7217C919.736 28.0439 919.648 28.2842 919.473 28.4424C919.303 28.6006 919.098 28.6797 918.857 28.6797C918.605 28.6797 918.395 28.6006 918.225 28.4424C918.061 28.2842 917.979 28.0439 917.979 27.7217C917.979 27.3936 918.061 27.1533 918.225 27.001C918.395 26.8428 918.605 26.7637 918.857 26.7637ZM925.353 44.3242C924.087 44.3242 923.111 44.0869 922.426 43.6123C921.74 43.1436 921.397 42.4844 921.397 41.6348C921.397 41.0312 921.588 40.5156 921.969 40.0879C922.355 39.6602 922.889 39.376 923.568 39.2354C923.316 39.1182 923.1 38.9424 922.918 38.708C922.742 38.4736 922.654 38.2041 922.654 37.8994C922.654 37.5479 922.751 37.2402 922.944 36.9766C923.144 36.707 923.445 36.4492 923.85 36.2031C923.346 35.998 922.936 35.6523 922.619 35.166C922.309 34.6738 922.153 34.1025 922.153 33.4521C922.153 32.7607 922.297 32.1719 922.584 31.6855C922.871 31.1934 923.287 30.8184 923.832 30.5605C924.377 30.3027 925.036 30.1738 925.81 30.1738C925.979 30.1738 926.149 30.1826 926.319 30.2002C926.495 30.2119 926.662 30.2324 926.82 30.2617C926.979 30.2852 927.116 30.3145 927.233 30.3496H930.538V31.29L928.763 31.5098C928.938 31.7383 929.085 32.0137 929.202 32.3359C929.319 32.6582 929.378 33.0156 929.378 33.4082C929.378 34.3691 929.053 35.1338 928.402 35.7021C927.752 36.2646 926.858 36.5459 925.722 36.5459C925.452 36.5459 925.177 36.5225 924.896 36.4756C924.608 36.6338 924.389 36.8096 924.236 37.0029C924.09 37.1963 924.017 37.4189 924.017 37.6709C924.017 37.8584 924.072 38.0078 924.184 38.1191C924.301 38.2305 924.468 38.3125 924.685 38.3652C924.901 38.4121 925.162 38.4355 925.467 38.4355H927.163C928.212 38.4355 929.015 38.6553 929.571 39.0947C930.134 39.5342 930.415 40.1758 930.415 41.0195C930.415 42.0859 929.981 42.9033 929.114 43.4717C928.247 44.04 926.993 44.3242 925.353 44.3242ZM925.396 43.1816C926.193 43.1816 926.853 43.0996 927.374 42.9355C927.901 42.7773 928.294 42.5459 928.552 42.2412C928.815 41.9424 928.947 41.585 928.947 41.1689C928.947 40.7822 928.859 40.4893 928.684 40.29C928.508 40.0967 928.25 39.9678 927.91 39.9033C927.57 39.833 927.154 39.7979 926.662 39.7979H924.992C924.559 39.7979 924.181 39.8652 923.858 40C923.536 40.1348 923.287 40.334 923.111 40.5977C922.941 40.8613 922.856 41.1895 922.856 41.582C922.856 42.1035 923.076 42.499 923.516 42.7686C923.955 43.0439 924.582 43.1816 925.396 43.1816ZM925.774 35.4824C926.472 35.4824 926.996 35.3066 927.348 34.9551C927.699 34.6035 927.875 34.0908 927.875 33.417C927.875 32.6963 927.696 32.1572 927.339 31.7998C926.981 31.4365 926.454 31.2549 925.757 31.2549C925.089 31.2549 924.573 31.4424 924.21 31.8174C923.853 32.1865 923.674 32.7285 923.674 33.4434C923.674 34.0996 923.855 34.6035 924.219 34.9551C924.582 35.3066 925.101 35.4824 925.774 35.4824ZM933.896 26.3242V30.4111C933.896 30.6455 933.89 30.8828 933.878 31.123C933.866 31.3574 933.846 31.5742 933.816 31.7734H933.913C934.112 31.4336 934.364 31.1494 934.669 30.9209C934.979 30.6865 935.331 30.5107 935.724 30.3936C936.116 30.2705 936.532 30.209 936.972 30.209C937.745 30.209 938.39 30.332 938.905 30.5781C939.427 30.8242 939.816 31.2051 940.074 31.7207C940.338 32.2363 940.47 32.9043 940.47 33.7246V40H939.028V33.8213C939.028 33.0186 938.844 32.418 938.475 32.0195C938.111 31.6211 937.552 31.4219 936.796 31.4219C936.081 31.4219 935.51 31.5596 935.082 31.835C934.66 32.1045 934.355 32.5029 934.168 33.0303C933.986 33.5576 933.896 34.2021 933.896 34.9639V40H932.437V26.3242H933.896ZM946.587 38.9805C946.827 38.9805 947.073 38.96 947.325 38.9189C947.577 38.8779 947.782 38.8281 947.94 38.7695V39.9033C947.771 39.9795 947.533 40.0439 947.229 40.0967C946.93 40.1494 946.637 40.1758 946.35 40.1758C945.84 40.1758 945.377 40.0879 944.961 39.9121C944.545 39.7305 944.211 39.4258 943.959 38.998C943.713 38.5703 943.59 37.9785 943.59 37.2227V31.5098H942.219V30.7979L943.599 30.2266L944.179 28.1348H945.058V30.3672H947.879V31.5098H945.058V37.1787C945.058 37.7822 945.195 38.2334 945.471 38.5322C945.752 38.8311 946.124 38.9805 946.587 38.9805ZM960.518 40.1758C959.562 40.1758 958.681 40.0117 957.872 39.6836C957.069 39.3555 956.369 38.8955 955.771 38.3037C955.18 37.7119 954.72 37.0146 954.392 36.2119C954.069 35.4033 953.908 34.5244 953.908 33.5752C953.908 32.6201 954.072 31.7412 954.4 30.9385C954.729 30.1299 955.188 29.4297 955.78 28.8379C956.378 28.2461 957.078 27.7861 957.881 27.458C958.689 27.1299 959.568 26.9658 960.518 26.9658C961.438 26.9658 962.296 27.1328 963.093 27.4668C963.896 27.7949 964.599 28.2578 965.202 28.8555C965.806 29.4473 966.277 30.1445 966.617 30.9473C966.957 31.75 967.127 32.626 967.127 33.5752C967.127 34.5244 966.963 35.4033 966.635 36.2119C966.307 37.0146 965.844 37.7119 965.246 38.3037C964.654 38.8955 963.954 39.3555 963.146 39.6836C962.343 40.0117 961.467 40.1758 960.518 40.1758ZM960.799 37.5918C959.615 37.5918 958.725 37.2285 958.127 36.502C957.529 35.7695 957.23 34.7939 957.23 33.5752C957.23 32.7959 957.371 32.1074 957.652 31.5098C957.939 30.9062 958.353 30.4346 958.892 30.0947C959.437 29.749 960.096 29.5762 960.869 29.5762C961.256 29.5762 961.64 29.623 962.021 29.7168C962.401 29.8105 962.759 29.9424 963.093 30.1123L962.601 31.1318C962.308 30.9795 962.018 30.8652 961.73 30.7891C961.443 30.707 961.162 30.666 960.887 30.666C960.143 30.666 959.565 30.9268 959.155 31.4482C958.745 31.9639 958.54 32.6729 958.54 33.5752C958.54 34.5127 958.725 35.2334 959.094 35.7373C959.469 36.2412 960.058 36.4932 960.86 36.4932C961.153 36.4932 961.467 36.4551 961.801 36.3789C962.141 36.3027 962.463 36.2031 962.768 36.0801V37.1523C962.48 37.2812 962.185 37.3867 961.88 37.4688C961.575 37.5508 961.215 37.5918 960.799 37.5918ZM960.518 39.2793C961.297 39.2793 962.026 39.1387 962.706 38.8574C963.392 38.5762 963.992 38.1807 964.508 37.6709C965.023 37.1553 965.428 36.5518 965.721 35.8604C966.014 35.1631 966.16 34.4014 966.16 33.5752C966.16 32.79 966.02 32.0547 965.738 31.3691C965.463 30.6836 965.073 30.0771 964.569 29.5498C964.065 29.0225 963.468 28.6123 962.776 28.3193C962.091 28.0205 961.338 27.8711 960.518 27.8711C959.697 27.8711 958.941 28.0117 958.25 28.293C957.564 28.5742 956.967 28.9727 956.457 29.4883C955.953 29.998 955.561 30.6016 955.279 31.2988C955.004 31.9902 954.866 32.749 954.866 33.5752C954.866 34.3604 955.004 35.0986 955.279 35.79C955.555 36.4756 955.944 37.082 956.448 37.6094C956.958 38.1309 957.556 38.541 958.241 38.8398C958.933 39.1328 959.691 39.2793 960.518 39.2793ZM985.962 33.5576C985.962 34.5479 985.839 35.4502 985.593 36.2646C985.347 37.0732 984.972 37.7705 984.468 38.3564C983.97 38.9424 983.337 39.3936 982.569 39.71C981.802 40.0205 980.894 40.1758 979.845 40.1758C978.796 40.1758 977.888 40.0205 977.12 39.71C976.353 39.3936 975.717 38.9424 975.213 38.3564C974.715 37.7705 974.343 37.0703 974.097 36.2559C973.851 35.4414 973.728 34.5361 973.728 33.54C973.728 32.21 973.944 31.0527 974.378 30.0684C974.817 29.0781 975.491 28.3105 976.399 27.7656C977.308 27.2207 978.462 26.9482 979.862 26.9482C981.257 26.9482 982.402 27.2207 983.299 27.7656C984.201 28.3105 984.869 29.0781 985.303 30.0684C985.742 31.0586 985.962 32.2217 985.962 33.5576ZM976.584 33.5576C976.584 34.4541 976.695 35.2275 976.918 35.8779C977.146 36.5225 977.501 37.0205 977.981 37.3721C978.462 37.7178 979.083 37.8906 979.845 37.8906C980.618 37.8906 981.245 37.7178 981.726 37.3721C982.206 37.0205 982.555 36.5225 982.771 35.8779C982.994 35.2275 983.105 34.4541 983.105 33.5576C983.105 32.21 982.854 31.1494 982.35 30.376C981.846 29.6025 981.017 29.2158 979.862 29.2158C979.095 29.2158 978.468 29.3916 977.981 29.7432C977.501 30.0889 977.146 30.5869 976.918 31.2373C976.695 31.8818 976.584 32.6553 976.584 33.5576ZM993.898 29.9893C994.033 29.9893 994.188 29.998 994.364 30.0156C994.546 30.0273 994.692 30.0449 994.804 30.0684L994.602 32.582C994.514 32.5527 994.388 32.5322 994.224 32.5205C994.065 32.5029 993.928 32.4941 993.811 32.4941C993.465 32.4941 993.128 32.5381 992.8 32.626C992.478 32.7139 992.188 32.8574 991.93 33.0566C991.672 33.25 991.467 33.5078 991.314 33.8301C991.168 34.1465 991.095 34.5361 991.095 34.999V40H988.414V30.1738H990.444L990.84 31.8262H990.972C991.165 31.4922 991.405 31.1875 991.692 30.9121C991.985 30.6309 992.316 30.4082 992.686 30.2441C993.061 30.0742 993.465 29.9893 993.898 29.9893ZM999.462 44.3242C998.091 44.3242 997.042 44.084 996.315 43.6035C995.595 43.1289 995.234 42.4609 995.234 41.5996C995.234 41.0078 995.419 40.5127 995.788 40.1143C996.157 39.7158 996.699 39.4316 997.414 39.2617C997.139 39.1445 996.898 38.9541 996.693 38.6904C996.488 38.4209 996.386 38.1367 996.386 37.8379C996.386 37.4629 996.494 37.1523 996.711 36.9062C996.928 36.6543 997.241 36.4082 997.651 36.168C997.136 35.9453 996.726 35.5879 996.421 35.0957C996.122 34.6035 995.973 34.0234 995.973 33.3555C995.973 32.6406 996.128 32.0342 996.438 31.5361C996.755 31.0322 997.212 30.6484 997.81 30.3848C998.413 30.1211 999.146 29.9893 1000.01 29.9893C1000.19 29.9893 1000.4 30.001 1000.64 30.0244C1000.88 30.0479 1001.1 30.0742 1001.3 30.1035C1001.5 30.1328 1001.64 30.1562 1001.71 30.1738H1005.14V31.5361L1003.6 31.9316C1003.74 32.1484 1003.85 32.3799 1003.92 32.626C1003.99 32.8721 1004.02 33.1328 1004.02 33.4082C1004.02 34.4629 1003.65 35.2861 1002.92 35.8779C1002.18 36.4639 1001.16 36.7568 999.857 36.7568C999.547 36.7393 999.254 36.7158 998.979 36.6865C998.844 36.792 998.741 36.9033 998.671 37.0205C998.601 37.1377 998.565 37.2607 998.565 37.3896C998.565 37.5186 998.618 37.627 998.724 37.7148C998.835 37.7969 998.999 37.8613 999.216 37.9082C999.438 37.9492 999.714 37.9697 1000.04 37.9697H1001.71C1002.79 37.9697 1003.61 38.2012 1004.17 38.6641C1004.74 39.127 1005.03 39.8066 1005.03 40.7031C1005.03 41.8516 1004.54 42.7422 1003.58 43.375C1002.63 44.0078 1001.25 44.3242 999.462 44.3242ZM999.576 42.5752C1000.21 42.5752 1000.76 42.5137 1001.22 42.3906C1001.68 42.2734 1002.04 42.1035 1002.28 41.8809C1002.53 41.6641 1002.65 41.4033 1002.65 41.0986C1002.65 40.8525 1002.58 40.6562 1002.43 40.5098C1002.29 40.3691 1002.08 40.2695 1001.78 40.2109C1001.5 40.1523 1001.13 40.123 1000.67 40.123H999.286C998.958 40.123 998.662 40.1758 998.398 40.2812C998.141 40.3867 997.936 40.5332 997.783 40.7207C997.631 40.9141 997.555 41.1367 997.555 41.3887C997.555 41.7578 997.73 42.0479 998.082 42.2588C998.439 42.4697 998.938 42.5752 999.576 42.5752ZM1000.01 35.1221C1000.51 35.1221 1000.88 34.9668 1001.11 34.6562C1001.35 34.3457 1001.47 33.9238 1001.47 33.3906C1001.47 32.7988 1001.34 32.3564 1001.1 32.0635C1000.86 31.7646 1000.49 31.6152 1000.01 31.6152C999.515 31.6152 999.146 31.7646 998.899 32.0635C998.653 32.3564 998.53 32.7988 998.53 33.3906C998.53 33.9238 998.65 34.3457 998.891 34.6562C999.137 34.9668 999.509 35.1221 1000.01 35.1221ZM1010.79 29.9717C1012.11 29.9717 1013.12 30.2588 1013.82 30.833C1014.53 31.4072 1014.88 32.2803 1014.88 33.4521V40H1013.01L1012.49 38.6641H1012.42C1012.14 39.0156 1011.85 39.3027 1011.56 39.5254C1011.26 39.748 1010.93 39.9121 1010.54 40.0176C1010.16 40.123 1009.7 40.1758 1009.16 40.1758C1008.58 40.1758 1008.05 40.0645 1007.59 39.8418C1007.13 39.6191 1006.77 39.2793 1006.51 38.8223C1006.25 38.3594 1006.12 37.7734 1006.12 37.0645C1006.12 36.0215 1006.48 35.2539 1007.21 34.7617C1007.95 34.2637 1009.04 33.9883 1010.51 33.9355L1012.21 33.8828V33.4521C1012.21 32.9365 1012.08 32.5586 1011.81 32.3184C1011.54 32.0781 1011.17 31.958 1010.69 31.958C1010.21 31.958 1009.75 32.0254 1009.29 32.1602C1008.83 32.2949 1008.37 32.4648 1007.92 32.6699L1007.03 30.8594C1007.55 30.584 1008.13 30.3672 1008.78 30.209C1009.43 30.0508 1010.1 29.9717 1010.79 29.9717ZM1012.21 35.4473L1011.18 35.4824C1010.31 35.5059 1009.71 35.6611 1009.37 35.9482C1009.03 36.2354 1008.87 36.6133 1008.87 37.082C1008.87 37.4922 1008.99 37.7852 1009.23 37.9609C1009.47 38.1309 1009.78 38.2158 1010.17 38.2158C1010.74 38.2158 1011.22 38.0459 1011.62 37.7061C1012.02 37.3662 1012.21 36.8828 1012.21 36.2559V35.4473ZM1023.23 29.9893C1024.28 29.9893 1025.12 30.2764 1025.76 30.8506C1026.4 31.4189 1026.72 32.333 1026.72 33.5928V40H1024.04V34.2607C1024.04 33.5576 1023.91 33.0273 1023.65 32.6699C1023.4 32.3125 1023 32.1338 1022.45 32.1338C1021.63 32.1338 1021.07 32.4121 1020.78 32.9688C1020.48 33.5254 1020.33 34.3281 1020.33 35.377V40H1017.65V30.1738H1019.69L1020.05 31.4307H1020.2C1020.42 31.0908 1020.68 30.8154 1020.99 30.6045C1021.3 30.3936 1021.65 30.2383 1022.03 30.1387C1022.42 30.0391 1022.82 29.9893 1023.23 29.9893ZM1032.16 30.1738V40H1029.48V30.1738H1032.16ZM1030.82 26.3242C1031.22 26.3242 1031.56 26.418 1031.85 26.6055C1032.14 26.7871 1032.28 27.1299 1032.28 27.6338C1032.28 28.1318 1032.14 28.4775 1031.85 28.6709C1031.56 28.8584 1031.22 28.9521 1030.82 28.9521C1030.42 28.9521 1030.07 28.8584 1029.78 28.6709C1029.5 28.4775 1029.36 28.1318 1029.36 27.6338C1029.36 27.1299 1029.5 26.7871 1029.78 26.6055C1030.07 26.418 1030.42 26.3242 1030.82 26.3242ZM1038.97 40.1758C1038 40.1758 1037.17 40 1036.48 39.6484C1035.8 39.291 1035.27 38.7402 1034.92 37.9961C1034.56 37.252 1034.38 36.2998 1034.38 35.1396C1034.38 33.9385 1034.58 32.96 1034.99 32.2041C1035.4 31.4424 1035.96 30.8828 1036.68 30.5254C1037.41 30.168 1038.25 29.9893 1039.21 29.9893C1039.89 29.9893 1040.47 30.0566 1040.96 30.1914C1041.46 30.3203 1041.9 30.4756 1042.26 30.6572L1041.47 32.7314C1041.05 32.5615 1040.66 32.4238 1040.3 32.3184C1039.93 32.207 1039.57 32.1514 1039.21 32.1514C1038.74 32.1514 1038.35 32.2627 1038.04 32.4854C1037.73 32.7021 1037.5 33.0303 1037.34 33.4697C1037.19 33.9092 1037.11 34.46 1037.11 35.1221C1037.11 35.7725 1037.2 36.3115 1037.36 36.7393C1037.52 37.167 1037.76 37.4863 1038.07 37.6973C1038.38 37.9023 1038.76 38.0049 1039.21 38.0049C1039.76 38.0049 1040.26 37.9316 1040.69 37.7852C1041.12 37.6328 1041.55 37.4219 1041.96 37.1523V39.4463C1041.55 39.7041 1041.12 39.8887 1040.67 40C1040.22 40.1172 1039.65 40.1758 1038.97 40.1758ZM1046.92 26.3242V32.4414C1046.92 32.8105 1046.91 33.1797 1046.88 33.5488C1046.85 33.918 1046.82 34.2871 1046.78 34.6562H1046.82C1047 34.3984 1047.18 34.1436 1047.37 33.8916C1047.56 33.6396 1047.77 33.3965 1047.99 33.1621L1050.74 30.1738H1053.76L1049.86 34.4365L1054 40H1050.9L1048.07 36.0186L1046.92 36.9414V40H1044.24V26.3242H1046.92Z" fill="#525C60"/>
</svg>
