<svg width="575" height="81" viewBox="0 0 575 81" fill="none" xmlns="http://www.w3.org/2000/svg">
<rect y="0.5" width="349" height="80" rx="16" fill="white"/>
<path d="M26.2783 32.7031L28.3789 39.1191L32.7207 32.7031H34.6982L28.959 40.8066L28.1416 45.5H26.4893L27.3418 40.6221L24.4766 32.7031H26.2783ZM33.6084 40.9033L33.6348 40.7012C33.7051 40.0625 33.8633 39.4473 34.1094 38.8555C34.3613 38.2637 34.6924 37.7363 35.1025 37.2734C35.5127 36.8105 35.999 36.4473 36.5615 36.1836C37.124 35.9199 37.751 35.7969 38.4424 35.8145C39.1104 35.8262 39.6816 35.9697 40.1562 36.2451C40.6367 36.5205 41.0234 36.8867 41.3164 37.3438C41.6152 37.7949 41.8232 38.3047 41.9404 38.873C42.0576 39.4414 42.0869 40.0273 42.0283 40.6309L42.0107 40.833C41.9346 41.4717 41.7705 42.084 41.5186 42.6699C41.2666 43.2559 40.9326 43.7773 40.5166 44.2344C40.1064 44.6914 39.6201 45.0518 39.0576 45.3154C38.4951 45.5732 37.8711 45.6934 37.1855 45.6758C36.5234 45.6641 35.9521 45.5234 35.4717 45.2539C34.9971 44.9785 34.6133 44.6152 34.3203 44.1641C34.0273 43.7129 33.8223 43.2061 33.7051 42.6436C33.5879 42.0811 33.5557 41.501 33.6084 40.9033ZM35.2168 40.7012L35.1992 40.9121C35.1582 41.2812 35.1553 41.665 35.1904 42.0635C35.2314 42.4619 35.3252 42.8311 35.4717 43.1709C35.624 43.5107 35.8438 43.7891 36.1309 44.0059C36.418 44.2227 36.79 44.3369 37.2471 44.3486C37.7334 44.3604 38.1611 44.2666 38.5303 44.0674C38.8994 43.8623 39.2129 43.5869 39.4707 43.2412C39.7344 42.8955 39.9424 42.5117 40.0947 42.0898C40.2529 41.668 40.3584 41.249 40.4111 40.833L40.4287 40.6309C40.4697 40.2617 40.4697 39.8779 40.4287 39.4795C40.3936 39.0752 40.2998 38.7002 40.1475 38.3545C40.001 38.0029 39.7842 37.7188 39.4971 37.502C39.21 37.2793 38.8379 37.1621 38.3809 37.1504C37.8945 37.1328 37.4639 37.2295 37.0889 37.4404C36.7197 37.6455 36.4062 37.9238 36.1484 38.2754C35.8906 38.627 35.6826 39.0166 35.5244 39.4443C35.3721 39.8662 35.2695 40.2852 35.2168 40.7012ZM49.209 43.2148L50.457 35.9902H52.0566L50.4043 45.5H48.8838L49.209 43.2148ZM49.8066 41.2988L50.457 41.2725C50.3809 41.8701 50.2461 42.4385 50.0527 42.9775C49.8594 43.5107 49.5957 43.9854 49.2617 44.4014C48.9336 44.8115 48.5234 45.1338 48.0312 45.3682C47.5449 45.5967 46.9678 45.7021 46.2998 45.6846C45.7783 45.667 45.3418 45.5615 44.9902 45.3682C44.6445 45.1748 44.3721 44.9141 44.1729 44.5859C43.9736 44.2578 43.8418 43.8828 43.7773 43.4609C43.7129 43.0391 43.7041 42.5938 43.751 42.125L44.7793 35.9902H46.3701L45.3418 42.1514C45.3184 42.4092 45.3154 42.6641 45.333 42.916C45.3506 43.1621 45.4033 43.3877 45.4912 43.5928C45.5791 43.7979 45.7139 43.9648 45.8955 44.0938C46.083 44.2168 46.3291 44.2842 46.6338 44.2959C47.2666 44.3193 47.8027 44.2021 48.2422 43.9443C48.6816 43.6807 49.0303 43.3174 49.2881 42.8545C49.5459 42.3916 49.7188 41.873 49.8066 41.2988ZM55.7656 37.5547L54.3857 45.5H52.7949L54.4473 35.9902H55.9941L55.7656 37.5547ZM58.8506 35.9111L58.7012 37.4404C58.5781 37.417 58.4521 37.3965 58.3232 37.3789C58.2002 37.3613 58.0771 37.3525 57.9541 37.3525C57.5732 37.3467 57.2305 37.4053 56.9258 37.5283C56.627 37.6455 56.3604 37.8125 56.126 38.0293C55.8975 38.2461 55.7012 38.501 55.5371 38.7939C55.3789 39.0869 55.2529 39.4033 55.1592 39.7432L54.6582 40.0068C54.7227 39.5322 54.8281 39.0459 54.9746 38.5479C55.127 38.0498 55.335 37.5898 55.5986 37.168C55.8682 36.7461 56.2051 36.4062 56.6094 36.1484C57.0195 35.8906 57.5117 35.7705 58.0859 35.7881C58.2148 35.7881 58.3408 35.7998 58.4639 35.8232C58.5928 35.8467 58.7217 35.876 58.8506 35.9111ZM71.5332 44.1201L71.2871 45.5H64.7041L64.9414 44.1201H71.5332ZM67.2705 32.7031L65.0469 45.5H63.3857L65.6094 32.7031H67.2705ZM71.6826 38.2051L71.4453 39.585H65.7236L65.9697 38.2051H71.6826ZM73.4229 32.7031L73.1768 34.0918H66.6816L66.9277 32.7031H73.4229ZM75.9629 37.9766L74.6621 45.5H73.0625L74.7148 35.9902H76.2266L75.9629 37.9766ZM75.251 40.3848L74.5303 40.3672C74.6123 39.7754 74.7588 39.2041 74.9697 38.6533C75.1807 38.1025 75.4619 37.6104 75.8135 37.1768C76.1709 36.7432 76.6016 36.4033 77.1055 36.1572C77.6094 35.9111 78.1924 35.7969 78.8545 35.8145C79.3467 35.8262 79.7627 35.9229 80.1025 36.1045C80.4424 36.2803 80.7148 36.5234 80.9199 36.834C81.1309 37.1387 81.2715 37.4902 81.3418 37.8887C81.418 38.2871 81.4355 38.7119 81.3945 39.1631L80.3311 45.5H78.7402L79.7949 39.2334C79.8418 38.835 79.8184 38.4834 79.7246 38.1787C79.6367 37.874 79.4697 37.6338 79.2236 37.458C78.9775 37.2764 78.6436 37.1797 78.2217 37.168C77.7471 37.1562 77.334 37.2383 76.9824 37.4141C76.6367 37.5898 76.3467 37.833 76.1123 38.1436C75.8838 38.4482 75.6992 38.7969 75.5586 39.1895C75.418 39.5762 75.3154 39.9746 75.251 40.3848ZM81.3945 39.4883L80.252 39.8223C80.3223 39.2773 80.4688 38.7617 80.6914 38.2754C80.9199 37.7891 81.2158 37.3584 81.5791 36.9834C81.9424 36.6084 82.3643 36.3154 82.8447 36.1045C83.3252 35.8936 83.8555 35.7939 84.4355 35.8057C84.9512 35.8174 85.3877 35.9141 85.7451 36.0957C86.1025 36.2715 86.3867 36.5146 86.5977 36.8252C86.8145 37.1357 86.958 37.499 87.0283 37.915C87.1045 38.3252 87.1162 38.7705 87.0635 39.251L86.0176 45.5H84.418L85.4727 39.2246C85.5195 38.8203 85.499 38.4658 85.4111 38.1611C85.3291 37.8564 85.165 37.6191 84.9189 37.4492C84.6729 37.2734 84.333 37.1826 83.8994 37.1768C83.5537 37.165 83.2373 37.2178 82.9502 37.335C82.6631 37.4521 82.4141 37.6191 82.2031 37.8359C81.9922 38.0469 81.8164 38.293 81.6758 38.5742C81.541 38.8555 81.4473 39.1602 81.3945 39.4883ZM94.1387 43.874L94.9297 38.9609C94.9707 38.5977 94.9355 38.2783 94.8242 38.0029C94.7188 37.7275 94.54 37.5137 94.2881 37.3613C94.042 37.209 93.7314 37.127 93.3564 37.1152C93.0283 37.1094 92.7061 37.1621 92.3896 37.2734C92.0791 37.3848 91.8096 37.5518 91.5811 37.7744C91.3525 37.9971 91.2031 38.2783 91.1328 38.6182L89.5508 38.627C89.5918 38.1523 89.7412 37.7393 89.999 37.3877C90.2568 37.0303 90.5791 36.7344 90.9658 36.5C91.3525 36.2598 91.7686 36.084 92.2139 35.9727C92.6592 35.8555 93.0928 35.7998 93.5146 35.8057C94.1533 35.8174 94.707 35.9551 95.1758 36.2188C95.6504 36.4766 96.0078 36.8398 96.248 37.3086C96.4883 37.7773 96.5762 38.3398 96.5117 38.9961L95.7822 43.4258C95.7295 43.748 95.6973 44.0732 95.6855 44.4014C95.6797 44.7236 95.7178 45.04 95.7998 45.3506L95.7822 45.5L94.1738 45.5088C94.1094 45.2393 94.0771 44.9668 94.0771 44.6914C94.083 44.416 94.1035 44.1436 94.1387 43.874ZM95.1143 39.7344L94.9297 40.877L93.4268 40.8682C93.1104 40.8682 92.7764 40.8916 92.4248 40.9385C92.0732 40.9854 91.7393 41.0732 91.4229 41.2021C91.1064 41.3311 90.8398 41.5186 90.623 41.7646C90.4062 42.0049 90.2744 42.3184 90.2275 42.7051C90.1924 43.0215 90.2305 43.2969 90.3418 43.5312C90.459 43.7598 90.6348 43.9385 90.8691 44.0674C91.1035 44.1963 91.376 44.2637 91.6865 44.2695C92.0908 44.2754 92.4893 44.1963 92.8818 44.0322C93.2744 43.8682 93.6172 43.6338 93.9102 43.3291C94.2031 43.0244 94.4053 42.6729 94.5166 42.2744L95.0967 43.0566C94.9854 43.4434 94.8037 43.8008 94.5518 44.1289C94.2998 44.4512 94.001 44.7295 93.6553 44.9639C93.3154 45.1982 92.9492 45.3799 92.5566 45.5088C92.1641 45.6377 91.7715 45.6992 91.3789 45.6934C90.8457 45.6816 90.3623 45.5615 89.9287 45.333C89.501 45.1045 89.1611 44.7852 88.9092 44.375C88.6631 43.959 88.5576 43.4756 88.5928 42.9248C88.6279 42.3213 88.7861 41.8145 89.0674 41.4043C89.3486 40.9941 89.709 40.666 90.1484 40.4199C90.5938 40.1738 91.0801 39.998 91.6074 39.8926C92.1348 39.7812 92.6562 39.7256 93.1719 39.7256L95.1143 39.7344ZM101.275 35.9902L99.623 45.5H98.0322L99.6846 35.9902H101.275ZM100.001 33.4941C100.001 33.2188 100.086 32.9902 100.256 32.8086C100.432 32.6211 100.657 32.5244 100.933 32.5186C101.208 32.5127 101.434 32.5977 101.609 32.7734C101.791 32.9492 101.879 33.1719 101.873 33.4414C101.873 33.7109 101.782 33.9365 101.601 34.1182C101.425 34.2939 101.202 34.3848 100.933 34.3906C100.663 34.3965 100.44 34.3174 100.265 34.1533C100.089 33.9834 100.001 33.7637 100.001 33.4941ZM106.224 32L103.877 45.5H102.286L104.624 32H106.224ZM117.693 33.9336L111.611 45.5H109.845L116.806 32.7031H117.939L117.693 33.9336ZM119.152 45.5L117.034 33.7402L117.201 32.7031H118.256L120.778 45.5H119.152ZM119.741 40.7627L119.495 42.1514H112.508L112.754 40.7627H119.741ZM128.381 43.5576L130.385 32H131.984L129.638 45.5H128.188L128.381 43.5576ZM122.65 40.9209L122.668 40.7363C122.744 40.1504 122.885 39.5645 123.09 38.9785C123.301 38.3926 123.585 37.8564 123.942 37.3701C124.3 36.8838 124.733 36.4971 125.243 36.21C125.753 35.9229 126.348 35.7881 127.027 35.8057C127.637 35.8232 128.146 35.9668 128.557 36.2363C128.967 36.5059 129.289 36.8633 129.523 37.3086C129.764 37.748 129.925 38.2314 130.007 38.7588C130.095 39.2861 130.121 39.8164 130.086 40.3496L129.989 41.1582C129.89 41.7266 129.726 42.2832 129.497 42.8281C129.269 43.373 128.973 43.8652 128.609 44.3047C128.252 44.7383 127.821 45.0811 127.317 45.333C126.819 45.585 126.248 45.7021 125.604 45.6846C124.982 45.6611 124.467 45.5 124.057 45.2012C123.652 44.9023 123.336 44.5186 123.107 44.0498C122.885 43.5752 122.738 43.0654 122.668 42.5205C122.604 41.9697 122.598 41.4365 122.65 40.9209ZM124.285 40.7188L124.268 40.9033C124.227 41.2549 124.212 41.627 124.224 42.0195C124.241 42.4062 124.309 42.7725 124.426 43.1182C124.543 43.458 124.733 43.7393 124.997 43.9619C125.261 44.1787 125.618 44.2959 126.069 44.3135C126.55 44.3252 126.995 44.2168 127.405 43.9883C127.815 43.7598 128.167 43.4551 128.46 43.0742C128.753 42.6934 128.964 42.2803 129.093 41.835L129.436 39.6992C129.453 39.377 129.415 39.0693 129.321 38.7764C129.228 38.4775 129.087 38.2109 128.899 37.9766C128.718 37.7422 128.492 37.5547 128.223 37.4141C127.959 37.2676 127.663 37.1914 127.335 37.1855C126.843 37.168 126.418 37.2646 126.061 37.4756C125.703 37.6807 125.401 37.959 125.155 38.3105C124.915 38.6562 124.725 39.04 124.584 39.4619C124.443 39.8838 124.344 40.3027 124.285 40.7188ZM138.225 43.5576L140.229 32H141.828L139.481 45.5H138.031L138.225 43.5576ZM132.494 40.9209L132.512 40.7363C132.588 40.1504 132.729 39.5645 132.934 38.9785C133.145 38.3926 133.429 37.8564 133.786 37.3701C134.144 36.8838 134.577 36.4971 135.087 36.21C135.597 35.9229 136.191 35.7881 136.871 35.8057C137.48 35.8232 137.99 35.9668 138.4 36.2363C138.811 36.5059 139.133 36.8633 139.367 37.3086C139.607 37.748 139.769 38.2314 139.851 38.7588C139.938 39.2861 139.965 39.8164 139.93 40.3496L139.833 41.1582C139.733 41.7266 139.569 42.2832 139.341 42.8281C139.112 43.373 138.816 43.8652 138.453 44.3047C138.096 44.7383 137.665 45.0811 137.161 45.333C136.663 45.585 136.092 45.7021 135.447 45.6846C134.826 45.6611 134.311 45.5 133.9 45.2012C133.496 44.9023 133.18 44.5186 132.951 44.0498C132.729 43.5752 132.582 43.0654 132.512 42.5205C132.447 41.9697 132.441 41.4365 132.494 40.9209ZM134.129 40.7188L134.111 40.9033C134.07 41.2549 134.056 41.627 134.067 42.0195C134.085 42.4062 134.152 42.7725 134.27 43.1182C134.387 43.458 134.577 43.7393 134.841 43.9619C135.104 44.1787 135.462 44.2959 135.913 44.3135C136.394 44.3252 136.839 44.2168 137.249 43.9883C137.659 43.7598 138.011 43.4551 138.304 43.0742C138.597 42.6934 138.808 42.2803 138.937 41.835L139.279 39.6992C139.297 39.377 139.259 39.0693 139.165 38.7764C139.071 38.4775 138.931 38.2109 138.743 37.9766C138.562 37.7422 138.336 37.5547 138.066 37.4141C137.803 37.2676 137.507 37.1914 137.179 37.1855C136.687 37.168 136.262 37.2646 135.904 37.4756C135.547 37.6807 135.245 37.959 134.999 38.3105C134.759 38.6562 134.568 39.04 134.428 39.4619C134.287 39.8838 134.188 40.3027 134.129 40.7188ZM144.887 37.5547L143.507 45.5H141.916L143.568 35.9902H145.115L144.887 37.5547ZM147.972 35.9111L147.822 37.4404C147.699 37.417 147.573 37.3965 147.444 37.3789C147.321 37.3613 147.198 37.3525 147.075 37.3525C146.694 37.3467 146.352 37.4053 146.047 37.5283C145.748 37.6455 145.481 37.8125 145.247 38.0293C145.019 38.2461 144.822 38.501 144.658 38.7939C144.5 39.0869 144.374 39.4033 144.28 39.7432L143.779 40.0068C143.844 39.5322 143.949 39.0459 144.096 38.5479C144.248 38.0498 144.456 37.5898 144.72 37.168C144.989 36.7461 145.326 36.4062 145.73 36.1484C146.141 35.8906 146.633 35.7705 147.207 35.7881C147.336 35.7881 147.462 35.7998 147.585 35.8232C147.714 35.8467 147.843 35.876 147.972 35.9111ZM151.689 45.6758C151.039 45.6641 150.474 45.5352 149.993 45.2891C149.519 45.0371 149.129 44.7002 148.824 44.2783C148.525 43.8506 148.312 43.3643 148.183 42.8193C148.054 42.2744 148.016 41.7031 148.068 41.1055L148.104 40.7275C148.162 40.1182 148.312 39.5205 148.552 38.9346C148.792 38.3428 149.111 37.8096 149.51 37.335C149.914 36.8604 150.389 36.4854 150.934 36.21C151.484 35.9287 152.094 35.7969 152.762 35.8145C153.424 35.8262 153.975 35.9668 154.414 36.2363C154.854 36.5059 155.196 36.8633 155.442 37.3086C155.694 37.748 155.858 38.2432 155.935 38.7939C156.011 39.3389 156.017 39.8984 155.952 40.4727L155.855 41.2021H148.956L149.167 39.875L154.432 39.8838L154.458 39.7432C154.517 39.3213 154.493 38.9141 154.388 38.5215C154.282 38.1289 154.089 37.8066 153.808 37.5547C153.532 37.2969 153.16 37.1621 152.691 37.1504C152.205 37.1328 151.783 37.2324 151.426 37.4492C151.068 37.6602 150.77 37.9473 150.529 38.3105C150.289 38.668 150.099 39.0605 149.958 39.4883C149.823 39.9102 149.729 40.3232 149.677 40.7275L149.642 41.0967C149.606 41.4717 149.618 41.8496 149.677 42.2305C149.735 42.6113 149.847 42.96 150.011 43.2764C150.181 43.5869 150.415 43.8418 150.714 44.041C151.013 44.2344 151.382 44.3369 151.821 44.3486C152.354 44.3604 152.832 44.2461 153.254 44.0059C153.682 43.7598 154.071 43.4492 154.423 43.0742L155.328 43.8477C155.053 44.252 154.725 44.5918 154.344 44.8672C153.963 45.1426 153.547 45.3477 153.096 45.4824C152.645 45.6172 152.176 45.6816 151.689 45.6758ZM162.799 42.9248C162.852 42.5615 162.784 42.2773 162.597 42.0723C162.415 41.8672 162.175 41.7119 161.876 41.6064C161.583 41.4951 161.296 41.4043 161.015 41.334C160.663 41.2461 160.309 41.1377 159.951 41.0088C159.594 40.8799 159.266 40.7158 158.967 40.5166C158.674 40.3115 158.439 40.0596 158.264 39.7607C158.094 39.4561 158.018 39.0869 158.035 38.6533C158.059 38.1846 158.182 37.7715 158.404 37.4141C158.633 37.0566 158.926 36.7578 159.283 36.5176C159.646 36.2773 160.042 36.0986 160.47 35.9814C160.897 35.8643 161.322 35.8086 161.744 35.8145C162.342 35.8262 162.884 35.9492 163.37 36.1836C163.862 36.418 164.252 36.7549 164.539 37.1943C164.826 37.6338 164.961 38.167 164.943 38.7939L163.37 38.7852C163.382 38.4512 163.314 38.1641 163.168 37.9238C163.021 37.6836 162.819 37.499 162.562 37.3701C162.304 37.2354 162.011 37.165 161.683 37.1592C161.372 37.1533 161.067 37.2031 160.769 37.3086C160.47 37.4082 160.215 37.5664 160.004 37.7832C159.793 37.9941 159.664 38.2695 159.617 38.6094C159.582 38.8613 159.62 39.0693 159.731 39.2334C159.843 39.3916 159.995 39.5205 160.188 39.6201C160.388 39.7139 160.596 39.793 160.812 39.8574C161.035 39.916 161.237 39.9688 161.419 40.0156C161.899 40.1504 162.374 40.3203 162.843 40.5254C163.312 40.7305 163.692 41.0146 163.985 41.3779C164.278 41.7354 164.41 42.207 164.381 42.793C164.357 43.291 164.226 43.7246 163.985 44.0938C163.751 44.457 163.446 44.7588 163.071 44.999C162.702 45.2334 162.295 45.4062 161.85 45.5176C161.404 45.6289 160.959 45.6816 160.514 45.6758C159.898 45.6641 159.324 45.5381 158.791 45.2979C158.264 45.0518 157.842 44.7002 157.525 44.2432C157.209 43.7803 157.06 43.2178 157.077 42.5557L158.668 42.5645C158.668 42.9453 158.747 43.2676 158.905 43.5312C159.069 43.7891 159.295 43.9854 159.582 44.1201C159.869 44.2549 160.197 44.3252 160.566 44.3311C160.877 44.3369 161.193 44.2959 161.516 44.208C161.844 44.1201 162.125 43.9736 162.359 43.7686C162.6 43.5576 162.746 43.2764 162.799 42.9248ZM171.816 42.9248C171.869 42.5615 171.802 42.2773 171.614 42.0723C171.433 41.8672 171.192 41.7119 170.894 41.6064C170.601 41.4951 170.313 41.4043 170.032 41.334C169.681 41.2461 169.326 41.1377 168.969 41.0088C168.611 40.8799 168.283 40.7158 167.984 40.5166C167.691 40.3115 167.457 40.0596 167.281 39.7607C167.111 39.4561 167.035 39.0869 167.053 38.6533C167.076 38.1846 167.199 37.7715 167.422 37.4141C167.65 37.0566 167.943 36.7578 168.301 36.5176C168.664 36.2773 169.06 36.0986 169.487 35.9814C169.915 35.8643 170.34 35.8086 170.762 35.8145C171.359 35.8262 171.901 35.9492 172.388 36.1836C172.88 36.418 173.27 36.7549 173.557 37.1943C173.844 37.6338 173.979 38.167 173.961 38.7939L172.388 38.7852C172.399 38.4512 172.332 38.1641 172.186 37.9238C172.039 37.6836 171.837 37.499 171.579 37.3701C171.321 37.2354 171.028 37.165 170.7 37.1592C170.39 37.1533 170.085 37.2031 169.786 37.3086C169.487 37.4082 169.232 37.5664 169.021 37.7832C168.811 37.9941 168.682 38.2695 168.635 38.6094C168.6 38.8613 168.638 39.0693 168.749 39.2334C168.86 39.3916 169.013 39.5205 169.206 39.6201C169.405 39.7139 169.613 39.793 169.83 39.8574C170.053 39.916 170.255 39.9688 170.437 40.0156C170.917 40.1504 171.392 40.3203 171.86 40.5254C172.329 40.7305 172.71 41.0146 173.003 41.3779C173.296 41.7354 173.428 42.207 173.398 42.793C173.375 43.291 173.243 43.7246 173.003 44.0938C172.769 44.457 172.464 44.7588 172.089 44.999C171.72 45.2334 171.312 45.4062 170.867 45.5176C170.422 45.6289 169.977 45.6816 169.531 45.6758C168.916 45.6641 168.342 45.5381 167.809 45.2979C167.281 45.0518 166.859 44.7002 166.543 44.2432C166.227 43.7803 166.077 43.2178 166.095 42.5557L167.686 42.5645C167.686 42.9453 167.765 43.2676 167.923 43.5312C168.087 43.7891 168.312 43.9854 168.6 44.1201C168.887 44.2549 169.215 44.3252 169.584 44.3311C169.895 44.3369 170.211 44.2959 170.533 44.208C170.861 44.1201 171.143 43.9736 171.377 43.7686C171.617 43.5576 171.764 43.2764 171.816 42.9248Z" fill="#ABABAB"/>
<rect x="355" y="0.5" width="220" height="80" rx="16" fill="#274C5B"/>
<path d="M428.172 42.7793C428.172 42.5254 428.133 42.2975 428.055 42.0957C427.983 41.8874 427.846 41.6986 427.645 41.5293C427.443 41.3535 427.16 41.181 426.795 41.0117C426.43 40.8424 425.958 40.6667 425.379 40.4844C424.734 40.276 424.122 40.0417 423.543 39.7812C422.97 39.5208 422.462 39.2181 422.02 38.873C421.583 38.5215 421.238 38.1146 420.984 37.6523C420.737 37.1901 420.613 36.653 420.613 36.041C420.613 35.4486 420.743 34.9115 421.004 34.4297C421.264 33.9414 421.629 33.5247 422.098 33.1797C422.566 32.8281 423.12 32.5579 423.758 32.3691C424.402 32.1803 425.109 32.0859 425.877 32.0859C426.925 32.0859 427.84 32.2747 428.621 32.6523C429.402 33.0299 430.008 33.5475 430.438 34.2051C430.874 34.8626 431.092 35.6146 431.092 36.4609H428.182C428.182 36.0443 428.094 35.6797 427.918 35.3672C427.749 35.0482 427.488 34.7975 427.137 34.6152C426.792 34.4329 426.355 34.3418 425.828 34.3418C425.32 34.3418 424.897 34.4199 424.559 34.5762C424.22 34.7259 423.966 34.931 423.797 35.1914C423.628 35.4453 423.543 35.7318 423.543 36.0508C423.543 36.2917 423.602 36.5098 423.719 36.7051C423.842 36.9004 424.025 37.0827 424.266 37.252C424.507 37.4212 424.803 37.5807 425.154 37.7305C425.506 37.8802 425.913 38.0267 426.375 38.1699C427.15 38.4043 427.83 38.668 428.416 38.9609C429.008 39.2539 429.503 39.5827 429.9 39.9473C430.298 40.3118 430.597 40.7253 430.799 41.1875C431.001 41.6497 431.102 42.1738 431.102 42.7598C431.102 43.3783 430.981 43.9316 430.74 44.4199C430.499 44.9082 430.151 45.3216 429.695 45.6602C429.24 45.9987 428.696 46.2559 428.064 46.4316C427.433 46.6074 426.727 46.6953 425.945 46.6953C425.242 46.6953 424.549 46.6042 423.865 46.4219C423.182 46.2331 422.56 45.9499 422 45.5723C421.447 45.1947 421.004 44.7129 420.672 44.127C420.34 43.541 420.174 42.8477 420.174 42.0469H423.113C423.113 42.4896 423.182 42.8639 423.318 43.1699C423.455 43.4759 423.647 43.7233 423.895 43.9121C424.148 44.1009 424.448 44.2376 424.793 44.3223C425.145 44.4069 425.529 44.4492 425.945 44.4492C426.453 44.4492 426.87 44.3776 427.195 44.2344C427.527 44.0911 427.771 43.8926 427.928 43.6387C428.09 43.3848 428.172 43.0983 428.172 42.7793ZM439.168 43.9707V35.9336H441.98V46.5H439.334L439.168 43.9707ZM439.48 41.8027L440.311 41.7832C440.311 42.4863 440.229 43.1406 440.066 43.7461C439.904 44.3451 439.66 44.8659 439.334 45.3086C439.008 45.7448 438.598 46.0866 438.104 46.334C437.609 46.5749 437.026 46.6953 436.355 46.6953C435.841 46.6953 435.366 46.6237 434.93 46.4805C434.5 46.3307 434.129 46.0996 433.816 45.7871C433.51 45.4681 433.27 45.0612 433.094 44.5664C432.924 44.0651 432.84 43.4629 432.84 42.7598V35.9336H435.652V42.7793C435.652 43.0918 435.688 43.3555 435.76 43.5703C435.838 43.7852 435.945 43.9609 436.082 44.0977C436.219 44.2344 436.378 44.332 436.561 44.3906C436.749 44.4492 436.958 44.4785 437.186 44.4785C437.765 44.4785 438.221 44.3613 438.553 44.127C438.891 43.8926 439.129 43.5736 439.266 43.1699C439.409 42.7598 439.48 42.304 439.48 41.8027ZM444.129 31.5H446.941V44.0781L446.658 46.5H444.129V31.5ZM453.631 41.1094V41.3145C453.631 42.1022 453.546 42.8249 453.377 43.4824C453.214 44.14 452.96 44.7096 452.615 45.1914C452.27 45.6667 451.84 46.0378 451.326 46.3047C450.818 46.5651 450.219 46.6953 449.529 46.6953C448.885 46.6953 448.325 46.5651 447.85 46.3047C447.381 46.0443 446.987 45.6764 446.668 45.2012C446.349 44.7259 446.092 44.1693 445.896 43.5312C445.701 42.8932 445.555 42.1966 445.457 41.4414V40.9922C445.555 40.237 445.701 39.5404 445.896 38.9023C446.092 38.2643 446.349 37.7077 446.668 37.2324C446.987 36.7572 447.381 36.3893 447.85 36.1289C448.318 35.8685 448.872 35.7383 449.51 35.7383C450.206 35.7383 450.812 35.8717 451.326 36.1387C451.847 36.3991 452.277 36.7702 452.615 37.252C452.96 37.7272 453.214 38.2936 453.377 38.9512C453.546 39.6022 453.631 40.3216 453.631 41.1094ZM450.818 41.3145V41.1094C450.818 40.6797 450.786 40.276 450.721 39.8984C450.662 39.5143 450.558 39.179 450.408 38.8926C450.258 38.5996 450.053 38.3685 449.793 38.1992C449.539 38.0299 449.21 37.9453 448.807 37.9453C448.423 37.9453 448.097 38.0104 447.83 38.1406C447.563 38.2708 447.342 38.4531 447.166 38.6875C446.997 38.9219 446.87 39.2018 446.785 39.5273C446.701 39.8464 446.648 40.1979 446.629 40.582V41.8613C446.648 42.3757 446.733 42.8314 446.883 43.2285C447.039 43.6191 447.273 43.9284 447.586 44.1562C447.905 44.3776 448.318 44.4883 448.826 44.4883C449.223 44.4883 449.552 44.4102 449.812 44.2539C450.073 44.0977 450.275 43.8763 450.418 43.5898C450.568 43.3034 450.672 42.9681 450.73 42.584C450.789 42.1934 450.818 41.7702 450.818 41.3145ZM461.092 43.5801C461.092 43.3783 461.033 43.196 460.916 43.0332C460.799 42.8704 460.581 42.7207 460.262 42.584C459.949 42.4408 459.497 42.3105 458.904 42.1934C458.37 42.0762 457.872 41.9297 457.41 41.7539C456.954 41.5716 456.557 41.3535 456.219 41.0996C455.887 40.8457 455.626 40.5462 455.438 40.2012C455.249 39.8496 455.154 39.4492 455.154 39C455.154 38.5573 455.249 38.1406 455.438 37.75C455.633 37.3594 455.91 37.0143 456.268 36.7148C456.632 36.4089 457.075 36.1712 457.596 36.002C458.123 35.8262 458.715 35.7383 459.373 35.7383C460.291 35.7383 461.079 35.8848 461.736 36.1777C462.4 36.4707 462.908 36.8743 463.26 37.3887C463.618 37.8965 463.797 38.4759 463.797 39.127H460.984C460.984 38.8535 460.926 38.6094 460.809 38.3945C460.698 38.1732 460.522 38.0007 460.281 37.877C460.047 37.7467 459.741 37.6816 459.363 37.6816C459.051 37.6816 458.781 37.737 458.553 37.8477C458.325 37.9518 458.149 38.0951 458.025 38.2773C457.908 38.4531 457.85 38.6484 457.85 38.8633C457.85 39.026 457.882 39.1725 457.947 39.3027C458.019 39.4264 458.133 39.5404 458.289 39.6445C458.445 39.7487 458.647 39.8464 458.895 39.9375C459.148 40.0221 459.461 40.1003 459.832 40.1719C460.594 40.3281 461.274 40.5332 461.873 40.7871C462.472 41.0345 462.947 41.373 463.299 41.8027C463.65 42.2259 463.826 42.7826 463.826 43.4727C463.826 43.9414 463.722 44.3711 463.514 44.7617C463.305 45.1523 463.006 45.4941 462.615 45.7871C462.225 46.0736 461.756 46.2982 461.209 46.4609C460.669 46.6172 460.06 46.6953 459.383 46.6953C458.4 46.6953 457.566 46.5195 456.883 46.168C456.206 45.8164 455.691 45.3704 455.34 44.8301C454.995 44.2832 454.822 43.7233 454.822 43.1504H457.488C457.501 43.5345 457.599 43.8438 457.781 44.0781C457.97 44.3125 458.208 44.4818 458.494 44.5859C458.787 44.6901 459.103 44.7422 459.441 44.7422C459.806 44.7422 460.109 44.6934 460.35 44.5957C460.59 44.4915 460.773 44.3548 460.896 44.1855C461.027 44.0098 461.092 43.8079 461.092 43.5801ZM470.018 44.498C470.363 44.498 470.669 44.4329 470.936 44.3027C471.202 44.166 471.411 43.9772 471.561 43.7363C471.717 43.4889 471.798 43.1992 471.805 42.8672H474.451C474.445 43.6094 474.246 44.2702 473.855 44.8496C473.465 45.4225 472.941 45.875 472.283 46.207C471.626 46.5326 470.89 46.6953 470.076 46.6953C469.256 46.6953 468.54 46.5586 467.928 46.2852C467.322 46.0117 466.818 45.6341 466.414 45.1523C466.01 44.6641 465.708 44.0977 465.506 43.4531C465.304 42.8021 465.203 42.1055 465.203 41.3633V41.0801C465.203 40.3314 465.304 39.6348 465.506 38.9902C465.708 38.3392 466.01 37.7728 466.414 37.291C466.818 36.8027 467.322 36.4219 467.928 36.1484C468.533 35.875 469.243 35.7383 470.057 35.7383C470.923 35.7383 471.681 35.9043 472.332 36.2363C472.99 36.5684 473.504 37.0436 473.875 37.6621C474.253 38.2741 474.445 39 474.451 39.8398H471.805C471.798 39.4883 471.723 39.1693 471.58 38.8828C471.443 38.5964 471.242 38.3685 470.975 38.1992C470.714 38.0234 470.392 37.9355 470.008 37.9355C469.598 37.9355 469.262 38.0234 469.002 38.1992C468.742 38.3685 468.54 38.6029 468.396 38.9023C468.253 39.1953 468.152 39.5306 468.094 39.9082C468.042 40.2793 468.016 40.6699 468.016 41.0801V41.3633C468.016 41.7734 468.042 42.1673 468.094 42.5449C468.146 42.9225 468.243 43.2578 468.387 43.5508C468.536 43.8438 468.742 44.0749 469.002 44.2441C469.262 44.4134 469.601 44.498 470.018 44.498ZM478.895 38.2383V46.5H476.082V35.9336H478.729L478.895 38.2383ZM482.078 35.8652L482.029 38.4727C481.893 38.4531 481.727 38.4368 481.531 38.4238C481.342 38.4043 481.17 38.3945 481.014 38.3945C480.617 38.3945 480.271 38.4466 479.979 38.5508C479.692 38.6484 479.451 38.7949 479.256 38.9902C479.067 39.1855 478.924 39.4232 478.826 39.7031C478.735 39.9831 478.683 40.3021 478.67 40.6602L478.104 40.4844C478.104 39.8008 478.172 39.1725 478.309 38.5996C478.445 38.0202 478.644 37.5156 478.904 37.0859C479.171 36.6562 479.497 36.3242 479.881 36.0898C480.265 35.8555 480.704 35.7383 481.199 35.7383C481.355 35.7383 481.515 35.7513 481.678 35.7773C481.84 35.7969 481.974 35.8262 482.078 35.8652ZM486.375 35.9336V46.5H483.553V35.9336H486.375ZM483.377 33.1797C483.377 32.7695 483.52 32.431 483.807 32.1641C484.093 31.8971 484.477 31.7637 484.959 31.7637C485.434 31.7637 485.815 31.8971 486.102 32.1641C486.395 32.431 486.541 32.7695 486.541 33.1797C486.541 33.5898 486.395 33.9284 486.102 34.1953C485.815 34.4622 485.434 34.5957 484.959 34.5957C484.477 34.5957 484.093 34.4622 483.807 34.1953C483.52 33.9284 483.377 33.5898 483.377 33.1797ZM488.699 31.5H491.512V44.0781L491.229 46.5H488.699V31.5ZM498.201 41.1094V41.3145C498.201 42.1022 498.117 42.8249 497.947 43.4824C497.785 44.14 497.531 44.7096 497.186 45.1914C496.84 45.6667 496.411 46.0378 495.896 46.3047C495.389 46.5651 494.79 46.6953 494.1 46.6953C493.455 46.6953 492.895 46.5651 492.42 46.3047C491.951 46.0443 491.557 45.6764 491.238 45.2012C490.919 44.7259 490.662 44.1693 490.467 43.5312C490.271 42.8932 490.125 42.1966 490.027 41.4414V40.9922C490.125 40.237 490.271 39.5404 490.467 38.9023C490.662 38.2643 490.919 37.7077 491.238 37.2324C491.557 36.7572 491.951 36.3893 492.42 36.1289C492.889 35.8685 493.442 35.7383 494.08 35.7383C494.777 35.7383 495.382 35.8717 495.896 36.1387C496.417 36.3991 496.847 36.7702 497.186 37.252C497.531 37.7272 497.785 38.2936 497.947 38.9512C498.117 39.6022 498.201 40.3216 498.201 41.1094ZM495.389 41.3145V41.1094C495.389 40.6797 495.356 40.276 495.291 39.8984C495.232 39.5143 495.128 39.179 494.979 38.8926C494.829 38.5996 494.624 38.3685 494.363 38.1992C494.109 38.0299 493.781 37.9453 493.377 37.9453C492.993 37.9453 492.667 38.0104 492.4 38.1406C492.133 38.2708 491.912 38.4531 491.736 38.6875C491.567 38.9219 491.44 39.2018 491.355 39.5273C491.271 39.8464 491.219 40.1979 491.199 40.582V41.8613C491.219 42.3757 491.303 42.8314 491.453 43.2285C491.609 43.6191 491.844 43.9284 492.156 44.1562C492.475 44.3776 492.889 44.4883 493.396 44.4883C493.794 44.4883 494.122 44.4102 494.383 44.2539C494.643 44.0977 494.845 43.8763 494.988 43.5898C495.138 43.3034 495.242 42.9681 495.301 42.584C495.359 42.1934 495.389 41.7702 495.389 41.3145ZM504.812 46.6953C503.992 46.6953 503.257 46.5651 502.605 46.3047C501.954 46.0378 501.401 45.6699 500.945 45.2012C500.496 44.7324 500.151 44.1888 499.91 43.5703C499.669 42.9453 499.549 42.2812 499.549 41.5781V41.1875C499.549 40.3867 499.663 39.6543 499.891 38.9902C500.118 38.3262 500.444 37.75 500.867 37.2617C501.297 36.7734 501.818 36.3991 502.43 36.1387C503.042 35.8717 503.732 35.7383 504.5 35.7383C505.249 35.7383 505.913 35.862 506.492 36.1094C507.072 36.3568 507.557 36.7083 507.947 37.1641C508.344 37.6198 508.644 38.1667 508.846 38.8047C509.048 39.4362 509.148 40.1393 509.148 40.9141V42.0859H500.75V40.2109H506.385V39.9961C506.385 39.6055 506.313 39.2572 506.17 38.9512C506.033 38.6387 505.825 38.3913 505.545 38.209C505.265 38.0267 504.907 37.9355 504.471 37.9355C504.1 37.9355 503.781 38.0169 503.514 38.1797C503.247 38.3424 503.029 38.5703 502.859 38.8633C502.697 39.1562 502.573 39.5013 502.488 39.8984C502.41 40.2891 502.371 40.7188 502.371 41.1875V41.5781C502.371 42.0013 502.43 42.3919 502.547 42.75C502.671 43.1081 502.843 43.4173 503.064 43.6777C503.292 43.9382 503.566 44.14 503.885 44.2832C504.21 44.4264 504.578 44.498 504.988 44.498C505.496 44.498 505.968 44.4004 506.404 44.2051C506.847 44.0033 507.228 43.7005 507.547 43.2969L508.914 44.7812C508.693 45.1003 508.39 45.4062 508.006 45.6992C507.628 45.9922 507.173 46.2331 506.639 46.4219C506.105 46.6042 505.496 46.6953 504.812 46.6953Z" fill="white"/>
</svg>
