<svg width="332" height="98" viewBox="0 0 332 98" fill="none" xmlns="http://www.w3.org/2000/svg">
<path d="M20.3623 28.625C20.3623 28.0228 20.2728 27.4857 20.0938 27.0137C19.9147 26.5254 19.5892 26.0778 19.1172 25.6709C18.6452 25.264 17.9779 24.8571 17.1152 24.4502C16.2526 24.027 15.1214 23.5957 13.7217 23.1562C12.1266 22.6354 10.6048 22.0495 9.15625 21.3984C7.72396 20.7311 6.44629 19.958 5.32324 19.0791C4.2002 18.2002 3.31315 17.1748 2.66211 16.0029C2.02734 14.8311 1.70996 13.4639 1.70996 11.9014C1.70996 10.3877 2.04362 9.02051 2.71094 7.7998C3.37826 6.5791 4.31413 5.53743 5.51855 4.6748C6.72298 3.7959 8.139 3.12858 9.7666 2.67285C11.3942 2.20085 13.1846 1.96484 15.1377 1.96484C17.7419 1.96484 20.0286 2.42871 21.998 3.35645C23.9837 4.2679 25.5299 5.55371 26.6367 7.21387C27.7435 8.85775 28.2969 10.7702 28.2969 12.9512H20.3867C20.3867 11.9909 20.1833 11.1445 19.7764 10.4121C19.3857 9.66341 18.7835 9.07747 17.9697 8.6543C17.1722 8.23112 16.1712 8.01953 14.9668 8.01953C13.7949 8.01953 12.8102 8.19857 12.0127 8.55664C11.2314 8.89844 10.6374 9.37044 10.2305 9.97266C9.83984 10.5749 9.64453 11.234 9.64453 11.9502C9.64453 12.5199 9.79102 13.0407 10.084 13.5127C10.3932 13.9684 10.8327 14.3997 11.4023 14.8066C11.9883 15.1973 12.7044 15.5716 13.5508 15.9297C14.3971 16.2878 15.3656 16.6296 16.4561 16.9551C18.3604 17.5573 20.0449 18.2246 21.5098 18.957C22.9909 19.6895 24.236 20.5195 25.2451 21.4473C26.2542 22.375 27.0111 23.4248 27.5156 24.5967C28.0365 25.7686 28.2969 27.0951 28.2969 28.5762C28.2969 30.1549 27.9876 31.5547 27.3691 32.7754C26.7669 33.9961 25.888 35.0378 24.7324 35.9004C23.5931 36.7467 22.2259 37.3896 20.6309 37.8291C19.0358 38.2686 17.2536 38.4883 15.2842 38.4883C13.4938 38.4883 11.7279 38.2604 9.98633 37.8047C8.24479 37.3327 6.66602 36.6165 5.25 35.6562C3.85026 34.696 2.72721 33.4753 1.88086 31.9941C1.05078 30.4967 0.635742 28.7227 0.635742 26.6719H8.59473C8.59473 27.7461 8.74935 28.6576 9.05859 29.4062C9.36784 30.1387 9.80729 30.7327 10.377 31.1885C10.9629 31.6442 11.6709 31.9697 12.501 32.165C13.3311 32.3604 14.2588 32.458 15.2842 32.458C16.4723 32.458 17.4326 32.2952 18.165 31.9697C18.9137 31.6279 19.4671 31.1641 19.8252 30.5781C20.1833 29.9922 20.3623 29.3411 20.3623 28.625ZM48.0967 31.6279V11.584H55.7627V38H48.585L48.0967 31.6279ZM48.9023 26.2324L51.002 26.1836C51.002 27.9577 50.7904 29.5934 50.3672 31.0908C49.9603 32.5882 49.3418 33.8903 48.5117 34.9971C47.6979 36.1038 46.6807 36.9665 45.46 37.585C44.2555 38.1872 42.8477 38.4883 41.2363 38.4883C39.9342 38.4883 38.738 38.3092 37.6475 37.9512C36.5732 37.5768 35.6455 36.999 34.8643 36.2178C34.083 35.4202 33.4808 34.403 33.0576 33.166C32.6344 31.9128 32.4229 30.4154 32.4229 28.6738V11.584H40.04V28.7227C40.04 29.4062 40.1214 29.9922 40.2842 30.4805C40.4632 30.9525 40.6992 31.3431 40.9922 31.6523C41.3014 31.9616 41.6758 32.1895 42.1152 32.3359C42.571 32.4824 43.0674 32.5557 43.6045 32.5557C44.9554 32.5557 46.0133 32.279 46.7783 31.7256C47.5596 31.1559 48.1048 30.3991 48.4141 29.4551C48.7396 28.4948 48.9023 27.4206 48.9023 26.2324ZM60.7432 0.5H68.3604V31.7256L67.5791 38H60.7432V0.5ZM84.8398 24.499V25.0117C84.8398 27.0137 84.6283 28.8366 84.2051 30.4805C83.7982 32.1243 83.1715 33.5485 82.3252 34.7529C81.4788 35.9411 80.4128 36.8607 79.127 37.5117C77.8411 38.1628 76.3275 38.4883 74.5859 38.4883C72.9746 38.4883 71.5911 38.1546 70.4355 37.4873C69.2799 36.8037 68.3115 35.8597 67.5303 34.6553C66.749 33.4508 66.1143 32.043 65.626 30.4316C65.154 28.8203 64.7878 27.0869 64.5273 25.2314V24.3525C64.7878 22.4971 65.154 20.7637 65.626 19.1523C66.1143 17.541 66.749 16.1331 67.5303 14.9287C68.3115 13.7243 69.2718 12.7884 70.4111 12.1211C71.5667 11.4375 72.9421 11.0957 74.5371 11.0957C76.2949 11.0957 77.8167 11.4294 79.1025 12.0967C80.4046 12.764 81.4788 13.6999 82.3252 14.9043C83.1715 16.0924 83.7982 17.5085 84.2051 19.1523C84.6283 20.7799 84.8398 22.5622 84.8398 24.499ZM77.2227 25.0117V24.499C77.2227 23.4899 77.1494 22.5378 77.0029 21.6426C76.8727 20.7474 76.6367 19.958 76.2949 19.2744C75.9694 18.5745 75.5055 18.0293 74.9033 17.6387C74.3174 17.2318 73.5605 17.0283 72.6328 17.0283C71.7214 17.0283 70.9482 17.1829 70.3135 17.4922C69.6787 17.8014 69.166 18.2409 68.7754 18.8105C68.3848 19.3639 68.0999 20.0394 67.9209 20.8369C67.7419 21.6344 67.6442 22.5215 67.6279 23.498V26.0859C67.6442 27.388 67.8151 28.5273 68.1406 29.5039C68.4661 30.4805 68.9951 31.2373 69.7275 31.7744C70.46 32.2952 71.4447 32.5557 72.6816 32.5557C73.6257 32.5557 74.3906 32.3766 74.9766 32.0186C75.5788 31.6442 76.0345 31.1234 76.3438 30.4561C76.6693 29.7887 76.8971 28.9912 77.0273 28.0635C77.1576 27.1357 77.2227 26.1185 77.2227 25.0117ZM102.955 30.6514C102.955 30.1631 102.8 29.7318 102.491 29.3574C102.198 28.9831 101.661 28.6413 100.88 28.332C100.115 28.0228 99.0326 27.7135 97.6328 27.4043C96.3145 27.1276 95.0856 26.7695 93.9463 26.3301C92.807 25.8743 91.8141 25.3291 90.9678 24.6943C90.1214 24.0433 89.4622 23.2783 88.9902 22.3994C88.5182 21.5042 88.2822 20.487 88.2822 19.3477C88.2822 18.2409 88.5182 17.1911 88.9902 16.1982C89.4785 15.2054 90.1784 14.3265 91.0898 13.5615C92.0176 12.7965 93.1406 12.1943 94.459 11.7549C95.7936 11.3154 97.3073 11.0957 99 11.0957C101.327 11.0957 103.338 11.4619 105.03 12.1943C106.723 12.9105 108.025 13.9196 108.937 15.2217C109.848 16.5075 110.304 17.9805 110.304 19.6406H102.687C102.687 18.957 102.556 18.363 102.296 17.8584C102.035 17.3538 101.637 16.9632 101.1 16.6865C100.562 16.3936 99.8545 16.2471 98.9756 16.2471C98.292 16.2471 97.6898 16.3691 97.1689 16.6133C96.6644 16.8411 96.2656 17.1585 95.9727 17.5654C95.696 17.9723 95.5576 18.4443 95.5576 18.9814C95.5576 19.3558 95.639 19.6976 95.8018 20.0068C95.9808 20.2998 96.2493 20.5765 96.6074 20.8369C96.9818 21.0811 97.4619 21.3008 98.0479 21.4961C98.6501 21.6914 99.3825 21.8786 100.245 22.0576C102.084 22.3994 103.761 22.8796 105.274 23.498C106.804 24.1165 108.025 24.971 108.937 26.0615C109.864 27.152 110.328 28.5924 110.328 30.3828C110.328 31.5547 110.06 32.6289 109.522 33.6055C109.002 34.582 108.245 35.4365 107.252 36.1689C106.259 36.9014 105.071 37.471 103.688 37.8779C102.304 38.2848 100.742 38.4883 99 38.4883C96.5098 38.4883 94.402 38.0407 92.6768 37.1455C90.9515 36.2503 89.6494 35.1273 88.7705 33.7764C87.9079 32.4092 87.4766 31.0094 87.4766 29.5771H94.6299C94.6624 30.4561 94.8822 31.1722 95.2891 31.7256C95.7122 32.279 96.2575 32.6859 96.9248 32.9463C97.5921 33.1904 98.3408 33.3125 99.1709 33.3125C100.001 33.3125 100.693 33.1986 101.246 32.9707C101.799 32.7428 102.223 32.4336 102.516 32.043C102.809 31.6361 102.955 31.1722 102.955 30.6514ZM125.611 32.5557C126.425 32.5557 127.133 32.401 127.735 32.0918C128.338 31.7826 128.801 31.3512 129.127 30.7979C129.469 30.2282 129.64 29.5446 129.64 28.7471H136.817C136.817 30.6676 136.321 32.3604 135.328 33.8252C134.352 35.29 133.033 36.4375 131.373 37.2676C129.713 38.0814 127.841 38.4883 125.758 38.4883C123.707 38.4883 121.917 38.1546 120.387 37.4873C118.857 36.8037 117.579 35.8516 116.554 34.6309C115.528 33.4102 114.755 31.9941 114.234 30.3828C113.73 28.7552 113.478 26.9974 113.478 25.1094V24.4746C113.478 22.6029 113.73 20.8532 114.234 19.2256C114.755 17.598 115.528 16.1738 116.554 14.9531C117.579 13.7324 118.849 12.7884 120.362 12.1211C121.892 11.4375 123.683 11.0957 125.733 11.0957C127.898 11.0957 129.811 11.5107 131.471 12.3408C133.147 13.1709 134.457 14.3672 135.401 15.9297C136.345 17.4759 136.817 19.3395 136.817 21.5205H129.64C129.64 20.6742 129.485 19.9173 129.176 19.25C128.883 18.5664 128.427 18.0293 127.809 17.6387C127.206 17.2318 126.458 17.0283 125.562 17.0283C124.635 17.0283 123.87 17.2318 123.268 17.6387C122.682 18.0293 122.234 18.5745 121.925 19.2744C121.616 19.9743 121.404 20.7718 121.29 21.667C121.176 22.5459 121.119 23.4818 121.119 24.4746V25.1094C121.119 26.1185 121.176 27.0788 121.29 27.9902C121.404 28.8854 121.616 29.6748 121.925 30.3584C122.25 31.042 122.706 31.5791 123.292 31.9697C123.878 32.3604 124.651 32.5557 125.611 32.5557ZM148.243 17.7363V38H140.626V11.584H147.779L148.243 17.7363ZM156.129 11.3887L156.007 18.4932C155.681 18.4443 155.258 18.4036 154.737 18.3711C154.216 18.3223 153.769 18.2979 153.395 18.2979C152.418 18.2979 151.572 18.4199 150.855 18.6641C150.156 18.8919 149.57 19.2337 149.098 19.6895C148.642 20.1452 148.3 20.7148 148.072 21.3984C147.844 22.0658 147.73 22.8389 147.73 23.7178L146.29 23.0098C146.29 21.2682 146.461 19.6732 146.803 18.2246C147.145 16.776 147.641 15.5228 148.292 14.4648C148.943 13.3906 149.741 12.5605 150.685 11.9746C151.629 11.3887 152.703 11.0957 153.907 11.0957C154.298 11.0957 154.697 11.1201 155.104 11.1689C155.51 11.2178 155.852 11.291 156.129 11.3887ZM167.286 11.584V38H159.645V11.584H167.286ZM159.181 4.74805C159.181 3.64128 159.571 2.73796 160.353 2.03809C161.134 1.32194 162.159 0.963867 163.429 0.963867C164.698 0.963867 165.724 1.32194 166.505 2.03809C167.302 2.73796 167.701 3.64128 167.701 4.74805C167.701 5.83854 167.302 6.74186 166.505 7.45801C165.724 8.15788 164.698 8.50781 163.429 8.50781C162.159 8.50781 161.134 8.15788 160.353 7.45801C159.571 6.74186 159.181 5.83854 159.181 4.74805ZM172.804 0.5H180.421V31.7256L179.64 38H172.804V0.5ZM196.9 24.499V25.0117C196.9 27.0137 196.689 28.8366 196.266 30.4805C195.859 32.1243 195.232 33.5485 194.386 34.7529C193.539 35.9411 192.473 36.8607 191.188 37.5117C189.902 38.1628 188.388 38.4883 186.646 38.4883C185.035 38.4883 183.652 38.1546 182.496 37.4873C181.34 36.8037 180.372 35.8597 179.591 34.6553C178.81 33.4508 178.175 32.043 177.687 30.4316C177.215 28.8203 176.848 27.0869 176.588 25.2314V24.3525C176.848 22.4971 177.215 20.7637 177.687 19.1523C178.175 17.541 178.81 16.1331 179.591 14.9287C180.372 13.7243 181.332 12.7884 182.472 12.1211C183.627 11.4375 185.003 11.0957 186.598 11.0957C188.355 11.0957 189.877 11.4294 191.163 12.0967C192.465 12.764 193.539 13.6999 194.386 14.9043C195.232 16.0924 195.859 17.5085 196.266 19.1523C196.689 20.7799 196.9 22.5622 196.9 24.499ZM189.283 25.0117V24.499C189.283 23.4899 189.21 22.5378 189.063 21.6426C188.933 20.7474 188.697 19.958 188.355 19.2744C188.03 18.5745 187.566 18.0293 186.964 17.6387C186.378 17.2318 185.621 17.0283 184.693 17.0283C183.782 17.0283 183.009 17.1829 182.374 17.4922C181.739 17.8014 181.227 18.2409 180.836 18.8105C180.445 19.3639 180.16 20.0394 179.981 20.8369C179.802 21.6344 179.705 22.5215 179.688 23.498V26.0859C179.705 27.388 179.876 28.5273 180.201 29.5039C180.527 30.4805 181.056 31.2373 181.788 31.7744C182.521 32.2952 183.505 32.5557 184.742 32.5557C185.686 32.5557 186.451 32.3766 187.037 32.0186C187.639 31.6442 188.095 31.1234 188.404 30.4561C188.73 29.7887 188.958 28.9912 189.088 28.0635C189.218 27.1357 189.283 26.1185 189.283 25.0117ZM213.404 38.4883C211.305 38.4883 209.425 38.1546 207.765 37.4873C206.104 36.82 204.697 35.9004 203.541 34.7285C202.402 33.5404 201.531 32.1732 200.929 30.627C200.326 29.0807 200.025 27.4287 200.025 25.6709V24.7432C200.025 22.7738 200.302 20.959 200.855 19.2988C201.409 17.6387 202.215 16.1982 203.272 14.9775C204.347 13.7406 205.665 12.7884 207.228 12.1211C208.79 11.4375 210.572 11.0957 212.574 11.0957C214.446 11.0957 216.114 11.4049 217.579 12.0234C219.044 12.6257 220.281 13.4964 221.29 14.6357C222.299 15.7588 223.064 17.1178 223.585 18.7129C224.122 20.2917 224.391 22.0658 224.391 24.0352V27.1602H203.102V22.2529H216.92V21.667C216.92 20.7393 216.749 19.9255 216.407 19.2256C216.082 18.5257 215.593 17.9886 214.942 17.6143C214.308 17.2236 213.502 17.0283 212.525 17.0283C211.598 17.0283 210.825 17.2236 210.206 17.6143C209.588 18.0049 209.091 18.5583 208.717 19.2744C208.359 19.9743 208.098 20.7962 207.936 21.7402C207.773 22.668 207.691 23.6689 207.691 24.7432V25.6709C207.691 26.6963 207.83 27.6322 208.106 28.4785C208.383 29.3249 208.79 30.0492 209.327 30.6514C209.864 31.2536 210.515 31.7256 211.28 32.0674C212.045 32.4092 212.916 32.5801 213.893 32.5801C215.097 32.5801 216.244 32.3522 217.335 31.8965C218.425 31.4245 219.369 30.6921 220.167 29.6992L223.731 33.7764C223.194 34.5576 222.438 35.3145 221.461 36.0469C220.501 36.763 219.345 37.349 217.994 37.8047C216.643 38.2604 215.113 38.4883 213.404 38.4883ZM253.98 11.584V16.9307H238.307V11.584H253.98ZM241.896 5.04102H249.537V29.7236C249.537 30.4561 249.627 31.0176 249.806 31.4082C249.985 31.7988 250.278 32.0755 250.685 32.2383C251.091 32.3848 251.612 32.458 252.247 32.458C252.703 32.458 253.093 32.4417 253.419 32.4092C253.744 32.3766 254.046 32.3359 254.322 32.2871V37.8047C253.671 38.0163 252.979 38.179 252.247 38.293C251.515 38.4232 250.717 38.4883 249.854 38.4883C248.211 38.4883 246.786 38.2197 245.582 37.6826C244.394 37.1455 243.482 36.2992 242.848 35.1436C242.213 33.9717 241.896 32.4499 241.896 30.5781V5.04102ZM255.86 25.0605V24.5479C255.86 22.611 256.137 20.8288 256.69 19.2012C257.244 17.5573 258.058 16.1331 259.132 14.9287C260.206 13.7243 261.524 12.7884 263.087 12.1211C264.649 11.4375 266.44 11.0957 268.458 11.0957C270.509 11.0957 272.315 11.4375 273.878 12.1211C275.457 12.7884 276.783 13.7243 277.857 14.9287C278.932 16.1331 279.745 17.5573 280.299 19.2012C280.852 20.8288 281.129 22.611 281.129 24.5479V25.0605C281.129 26.9811 280.852 28.7633 280.299 30.4072C279.745 32.0348 278.932 33.459 277.857 34.6797C276.783 35.8841 275.465 36.82 273.902 37.4873C272.34 38.1546 270.541 38.4883 268.507 38.4883C266.489 38.4883 264.69 38.1546 263.111 37.4873C261.533 36.82 260.206 35.8841 259.132 34.6797C258.058 33.459 257.244 32.0348 256.69 30.4072C256.137 28.7633 255.86 26.9811 255.86 25.0605ZM263.502 24.5479V25.0605C263.502 26.1022 263.583 27.0788 263.746 27.9902C263.925 28.9017 264.21 29.6992 264.601 30.3828C264.991 31.0664 265.504 31.6035 266.139 31.9941C266.79 32.3685 267.579 32.5557 268.507 32.5557C269.435 32.5557 270.216 32.3685 270.851 31.9941C271.485 31.6035 271.998 31.0664 272.389 30.3828C272.779 29.6992 273.056 28.9017 273.219 27.9902C273.398 27.0788 273.487 26.1022 273.487 25.0605V24.5479C273.487 23.5225 273.398 22.5622 273.219 21.667C273.056 20.7555 272.779 19.9499 272.389 19.25C271.998 18.5501 271.477 18.0049 270.826 17.6143C270.191 17.2236 269.402 17.0283 268.458 17.0283C267.547 17.0283 266.773 17.2236 266.139 17.6143C265.504 18.0049 264.991 18.5501 264.601 19.25C264.21 19.9499 263.925 20.7555 263.746 21.667C263.583 22.5622 263.502 23.5225 263.502 24.5479ZM0.44043 84.0605V83.5479C0.44043 81.611 0.717122 79.8288 1.27051 78.2012C1.82389 76.5573 2.6377 75.1331 3.71191 73.9287C4.78613 72.7243 6.10449 71.7884 7.66699 71.1211C9.22949 70.4375 11.0199 70.0957 13.0381 70.0957C15.0889 70.0957 16.8955 70.4375 18.458 71.1211C20.0368 71.7884 21.3633 72.7243 22.4375 73.9287C23.5117 75.1331 24.3255 76.5573 24.8789 78.2012C25.4323 79.8288 25.709 81.611 25.709 83.5479V84.0605C25.709 85.9811 25.4323 87.7633 24.8789 89.4072C24.3255 91.0348 23.5117 92.459 22.4375 93.6797C21.3633 94.8841 20.0449 95.82 18.4824 96.4873C16.9199 97.1546 15.1214 97.4883 13.0869 97.4883C11.0687 97.4883 9.27018 97.1546 7.69141 96.4873C6.11263 95.82 4.78613 94.8841 3.71191 93.6797C2.6377 92.459 1.82389 91.0348 1.27051 89.4072C0.717122 87.7633 0.44043 85.9811 0.44043 84.0605ZM8.08203 83.5479V84.0605C8.08203 85.1022 8.16341 86.0788 8.32617 86.9902C8.50521 87.9017 8.79004 88.6992 9.18066 89.3828C9.57129 90.0664 10.084 90.6035 10.7188 90.9941C11.3698 91.3685 12.1592 91.5557 13.0869 91.5557C14.0146 91.5557 14.7959 91.3685 15.4307 90.9941C16.0654 90.6035 16.5781 90.0664 16.9688 89.3828C17.3594 88.6992 17.6361 87.9017 17.7988 86.9902C17.9779 86.0788 18.0674 85.1022 18.0674 84.0605V83.5479C18.0674 82.5225 17.9779 81.5622 17.7988 80.667C17.6361 79.7555 17.3594 78.9499 16.9688 78.25C16.5781 77.5501 16.0573 77.0049 15.4062 76.6143C14.7715 76.2236 13.9821 76.0283 13.0381 76.0283C12.1266 76.0283 11.3535 76.2236 10.7188 76.6143C10.084 77.0049 9.57129 77.5501 9.18066 78.25C8.79004 78.9499 8.50521 79.7555 8.32617 80.667C8.16341 81.5622 8.08203 82.5225 8.08203 83.5479ZM45.2158 90.6279V70.584H52.8818V97H45.7041L45.2158 90.6279ZM46.0215 85.2324L48.1211 85.1836C48.1211 86.9577 47.9095 88.5934 47.4863 90.0908C47.0794 91.5882 46.4609 92.8903 45.6309 93.9971C44.8171 95.1038 43.7998 95.9665 42.5791 96.585C41.3747 97.1872 39.9668 97.4883 38.3555 97.4883C37.0534 97.4883 35.8571 97.3092 34.7666 96.9512C33.6924 96.5768 32.7646 95.999 31.9834 95.2178C31.2021 94.4202 30.5999 93.403 30.1768 92.166C29.7536 90.9128 29.542 89.4154 29.542 87.6738V70.584H37.1592V87.7227C37.1592 88.4062 37.2406 88.9922 37.4033 89.4805C37.5824 89.9525 37.8184 90.3431 38.1113 90.6523C38.4206 90.9616 38.7949 91.1895 39.2344 91.3359C39.6901 91.4824 40.1865 91.5557 40.7236 91.5557C42.0745 91.5557 43.1325 91.279 43.8975 90.7256C44.6787 90.1559 45.224 89.3991 45.5332 88.4551C45.8587 87.4948 46.0215 86.4206 46.0215 85.2324ZM65.4795 76.7363V97H57.8623V70.584H65.0156L65.4795 76.7363ZM73.3652 70.3887L73.2432 77.4932C72.9176 77.4443 72.4945 77.4036 71.9736 77.3711C71.4528 77.3223 71.0052 77.2979 70.6309 77.2979C69.6543 77.2979 68.8079 77.4199 68.0918 77.6641C67.3919 77.8919 66.806 78.2337 66.334 78.6895C65.8783 79.1452 65.5365 79.7148 65.3086 80.3984C65.0807 81.0658 64.9668 81.8389 64.9668 82.7178L63.5264 82.0098C63.5264 80.2682 63.6973 78.6732 64.0391 77.2246C64.3809 75.776 64.8773 74.5228 65.5283 73.4648C66.1794 72.3906 66.9769 71.5605 67.9209 70.9746C68.8649 70.3887 69.9391 70.0957 71.1436 70.0957C71.5342 70.0957 71.9329 70.1201 72.3398 70.1689C72.7467 70.2178 73.0885 70.291 73.3652 70.3887ZM118.653 61.4531V97H110.719L97.291 74.0264V97H89.332V61.4531H97.291L110.743 84.4268V61.4531H118.653ZM136.598 97.4883C134.498 97.4883 132.618 97.1546 130.958 96.4873C129.298 95.82 127.89 94.9004 126.734 93.7285C125.595 92.5404 124.724 91.1732 124.122 89.627C123.52 88.0807 123.219 86.4287 123.219 84.6709V83.7432C123.219 81.7738 123.495 79.959 124.049 78.2988C124.602 76.6387 125.408 75.1982 126.466 73.9775C127.54 72.7406 128.858 71.7884 130.421 71.1211C131.983 70.4375 133.766 70.0957 135.768 70.0957C137.639 70.0957 139.308 70.4049 140.772 71.0234C142.237 71.6257 143.474 72.4964 144.483 73.6357C145.493 74.7588 146.257 76.1178 146.778 77.7129C147.315 79.2917 147.584 81.0658 147.584 83.0352V86.1602H126.295V81.2529H140.113V80.667C140.113 79.7393 139.942 78.9255 139.601 78.2256C139.275 77.5257 138.787 76.9886 138.136 76.6143C137.501 76.2236 136.695 76.0283 135.719 76.0283C134.791 76.0283 134.018 76.2236 133.399 76.6143C132.781 77.0049 132.285 77.5583 131.91 78.2744C131.552 78.9743 131.292 79.7962 131.129 80.7402C130.966 81.668 130.885 82.6689 130.885 83.7432V84.6709C130.885 85.6963 131.023 86.6322 131.3 87.4785C131.576 88.3249 131.983 89.0492 132.521 89.6514C133.058 90.2536 133.709 90.7256 134.474 91.0674C135.239 91.4092 136.109 91.5801 137.086 91.5801C138.29 91.5801 139.438 91.3522 140.528 90.8965C141.619 90.4245 142.563 89.6921 143.36 88.6992L146.925 92.7764C146.388 93.5576 145.631 94.3145 144.654 95.0469C143.694 95.763 142.538 96.349 141.188 96.8047C139.837 97.2604 138.307 97.4883 136.598 97.4883ZM159.083 89.6514L164.259 70.584H169.068L167.433 79.0801L162.257 97H158.326L159.083 89.6514ZM156.715 70.584L160.182 89.5781L160.548 97H155.86L149.366 70.584H156.715ZM173.756 89.2119L177.198 70.584H184.547L178.102 97H173.414L173.756 89.2119ZM169.654 70.584L174.879 89.5537L175.636 97H171.656L166.529 79.1045L164.967 70.584H169.654ZM201.881 89.6514C201.881 89.1631 201.726 88.7318 201.417 88.3574C201.124 87.9831 200.587 87.6413 199.806 87.332C199.041 87.0228 197.958 86.7135 196.559 86.4043C195.24 86.1276 194.011 85.7695 192.872 85.3301C191.733 84.8743 190.74 84.3291 189.894 83.6943C189.047 83.0433 188.388 82.2783 187.916 81.3994C187.444 80.5042 187.208 79.487 187.208 78.3477C187.208 77.2409 187.444 76.1911 187.916 75.1982C188.404 74.2054 189.104 73.3265 190.016 72.5615C190.943 71.7965 192.066 71.1943 193.385 70.7549C194.719 70.3154 196.233 70.0957 197.926 70.0957C200.253 70.0957 202.263 70.4619 203.956 71.1943C205.649 71.9105 206.951 72.9196 207.862 74.2217C208.774 75.5075 209.229 76.9805 209.229 78.6406H201.612C201.612 77.957 201.482 77.363 201.222 76.8584C200.961 76.3538 200.562 75.9632 200.025 75.6865C199.488 75.3936 198.78 75.2471 197.901 75.2471C197.218 75.2471 196.616 75.3691 196.095 75.6133C195.59 75.8411 195.191 76.1585 194.898 76.5654C194.622 76.9723 194.483 77.4443 194.483 77.9814C194.483 78.3558 194.565 78.6976 194.728 79.0068C194.907 79.2998 195.175 79.5765 195.533 79.8369C195.908 80.0811 196.388 80.3008 196.974 80.4961C197.576 80.6914 198.308 80.8786 199.171 81.0576C201.01 81.3994 202.687 81.8796 204.2 82.498C205.73 83.1165 206.951 83.971 207.862 85.0615C208.79 86.152 209.254 87.5924 209.254 89.3828C209.254 90.5547 208.985 91.6289 208.448 92.6055C207.927 93.582 207.171 94.4365 206.178 95.1689C205.185 95.9014 203.997 96.471 202.613 96.8779C201.23 97.2848 199.667 97.4883 197.926 97.4883C195.436 97.4883 193.328 97.0407 191.603 96.1455C189.877 95.2503 188.575 94.1273 187.696 92.7764C186.834 91.4092 186.402 90.0094 186.402 88.5771H193.556C193.588 89.4561 193.808 90.1722 194.215 90.7256C194.638 91.279 195.183 91.6859 195.851 91.9463C196.518 92.1904 197.267 92.3125 198.097 92.3125C198.927 92.3125 199.618 92.1986 200.172 91.9707C200.725 91.7428 201.148 91.4336 201.441 91.043C201.734 90.6361 201.881 90.1722 201.881 89.6514ZM221.534 59.5V97H213.893V59.5H221.534ZM239.479 97.4883C237.379 97.4883 235.499 97.1546 233.839 96.4873C232.179 95.82 230.771 94.9004 229.615 93.7285C228.476 92.5404 227.605 91.1732 227.003 89.627C226.401 88.0807 226.1 86.4287 226.1 84.6709V83.7432C226.1 81.7738 226.376 79.959 226.93 78.2988C227.483 76.6387 228.289 75.1982 229.347 73.9775C230.421 72.7406 231.739 71.7884 233.302 71.1211C234.864 70.4375 236.646 70.0957 238.648 70.0957C240.52 70.0957 242.188 70.4049 243.653 71.0234C245.118 71.6257 246.355 72.4964 247.364 73.6357C248.373 74.7588 249.138 76.1178 249.659 77.7129C250.196 79.2917 250.465 81.0658 250.465 83.0352V86.1602H229.176V81.2529H242.994V80.667C242.994 79.7393 242.823 78.9255 242.481 78.2256C242.156 77.5257 241.668 76.9886 241.017 76.6143C240.382 76.2236 239.576 76.0283 238.6 76.0283C237.672 76.0283 236.899 76.2236 236.28 76.6143C235.662 77.0049 235.165 77.5583 234.791 78.2744C234.433 78.9743 234.173 79.7962 234.01 80.7402C233.847 81.668 233.766 82.6689 233.766 83.7432V84.6709C233.766 85.6963 233.904 86.6322 234.181 87.4785C234.457 88.3249 234.864 89.0492 235.401 89.6514C235.938 90.2536 236.59 90.7256 237.354 91.0674C238.119 91.4092 238.99 91.5801 239.967 91.5801C241.171 91.5801 242.319 91.3522 243.409 90.8965C244.5 90.4245 245.444 89.6921 246.241 88.6992L249.806 92.7764C249.269 93.5576 248.512 94.3145 247.535 95.0469C246.575 95.763 245.419 96.349 244.068 96.8047C242.717 97.2604 241.188 97.4883 239.479 97.4883ZM267.604 70.584V75.9307H251.93V70.584H267.604ZM255.519 64.041H263.16V88.7236C263.16 89.4561 263.25 90.0176 263.429 90.4082C263.608 90.7988 263.901 91.0755 264.308 91.2383C264.715 91.3848 265.235 91.458 265.87 91.458C266.326 91.458 266.716 91.4417 267.042 91.4092C267.368 91.3766 267.669 91.3359 267.945 91.2871V96.8047C267.294 97.0163 266.603 97.179 265.87 97.293C265.138 97.4232 264.34 97.4883 263.478 97.4883C261.834 97.4883 260.41 97.2197 259.205 96.6826C258.017 96.1455 257.105 95.2992 256.471 94.1436C255.836 92.9717 255.519 91.4499 255.519 89.5781V64.041ZM284.693 70.584V75.9307H269.02V70.584H284.693ZM272.608 64.041H280.25V88.7236C280.25 89.4561 280.34 90.0176 280.519 90.4082C280.698 90.7988 280.991 91.0755 281.397 91.2383C281.804 91.3848 282.325 91.458 282.96 91.458C283.416 91.458 283.806 91.4417 284.132 91.4092C284.457 91.3766 284.758 91.3359 285.035 91.2871V96.8047C284.384 97.0163 283.692 97.179 282.96 97.293C282.228 97.4232 281.43 97.4883 280.567 97.4883C278.924 97.4883 277.499 97.2197 276.295 96.6826C275.107 96.1455 274.195 95.2992 273.561 94.1436C272.926 92.9717 272.608 91.4499 272.608 89.5781V64.041ZM300.807 97.4883C298.707 97.4883 296.827 97.1546 295.167 96.4873C293.507 95.82 292.099 94.9004 290.943 93.7285C289.804 92.5404 288.933 91.1732 288.331 89.627C287.729 88.0807 287.428 86.4287 287.428 84.6709V83.7432C287.428 81.7738 287.704 79.959 288.258 78.2988C288.811 76.6387 289.617 75.1982 290.675 73.9775C291.749 72.7406 293.067 71.7884 294.63 71.1211C296.192 70.4375 297.975 70.0957 299.977 70.0957C301.848 70.0957 303.517 70.4049 304.981 71.0234C306.446 71.6257 307.683 72.4964 308.692 73.6357C309.701 74.7588 310.466 76.1178 310.987 77.7129C311.524 79.2917 311.793 81.0658 311.793 83.0352V86.1602H290.504V81.2529H304.322V80.667C304.322 79.7393 304.151 78.9255 303.81 78.2256C303.484 77.5257 302.996 76.9886 302.345 76.6143C301.71 76.2236 300.904 76.0283 299.928 76.0283C299 76.0283 298.227 76.2236 297.608 76.6143C296.99 77.0049 296.493 77.5583 296.119 78.2744C295.761 78.9743 295.501 79.7962 295.338 80.7402C295.175 81.668 295.094 82.6689 295.094 83.7432V84.6709C295.094 85.6963 295.232 86.6322 295.509 87.4785C295.785 88.3249 296.192 89.0492 296.729 89.6514C297.267 90.2536 297.918 90.7256 298.683 91.0674C299.448 91.4092 300.318 91.5801 301.295 91.5801C302.499 91.5801 303.647 91.3522 304.737 90.8965C305.828 90.4245 306.772 89.6921 307.569 88.6992L311.134 92.7764C310.597 93.5576 309.84 94.3145 308.863 95.0469C307.903 95.763 306.747 96.349 305.396 96.8047C304.046 97.2604 302.516 97.4883 300.807 97.4883ZM323.146 76.7363V97H315.528V70.584H322.682L323.146 76.7363ZM331.031 70.3887L330.909 77.4932C330.584 77.4443 330.16 77.4036 329.64 77.3711C329.119 77.3223 328.671 77.2979 328.297 77.2979C327.32 77.2979 326.474 77.4199 325.758 77.6641C325.058 77.8919 324.472 78.2337 324 78.6895C323.544 79.1452 323.202 79.7148 322.975 80.3984C322.747 81.0658 322.633 81.8389 322.633 82.7178L321.192 82.0098C321.192 80.2682 321.363 78.6732 321.705 77.2246C322.047 75.776 322.543 74.5228 323.194 73.4648C323.845 72.3906 324.643 71.5605 325.587 70.9746C326.531 70.3887 327.605 70.0957 328.81 70.0957C329.2 70.0957 329.599 70.1201 330.006 70.1689C330.413 70.2178 330.755 70.291 331.031 70.3887Z" fill="white"/>
</svg>
