<svg width="908" height="68" viewBox="0 0 908 68" fill="none" xmlns="http://www.w3.org/2000/svg">
<path d="M0.601562 3.23438H19.708C23.5133 3.23438 26.806 3.80404 29.5859 4.94336C32.3887 6.08268 34.542 7.76888 36.0459 10.002C37.5498 12.235 38.3018 14.9922 38.3018 18.2734C38.3018 21.0078 37.8574 23.332 36.9688 25.2461C36.0801 27.1602 34.8268 28.7438 33.209 29.9971C31.6139 31.2503 29.7454 32.2643 27.6035 33.0391L23.9805 35.0215H7.71094L7.64258 26.374H19.7422C21.4056 26.374 22.7842 26.0778 23.8779 25.4854C24.9717 24.8929 25.792 24.0612 26.3389 22.9902C26.9085 21.8965 27.1934 20.6204 27.1934 19.1621C27.1934 17.6582 26.9085 16.3594 26.3389 15.2656C25.7692 14.1719 24.9261 13.3402 23.8096 12.7705C22.7158 12.1781 21.3486 11.8818 19.708 11.8818H11.7441V53H0.601562V3.23438ZM28.1504 53L16.9736 30.8857L28.7314 30.8516L40.0791 52.4873V53H28.1504ZM62.7402 53.6836C59.8008 53.6836 57.1689 53.2165 54.8447 52.2822C52.5205 51.348 50.5495 50.0605 48.9316 48.4199C47.3366 46.7565 46.1175 44.8424 45.2744 42.6777C44.4313 40.513 44.0098 38.2002 44.0098 35.7393V34.4404C44.0098 31.6833 44.3971 29.1426 45.1719 26.8184C45.9466 24.4941 47.0745 22.4775 48.5557 20.7686C50.0596 19.0368 51.9053 17.7038 54.0928 16.7695C56.2803 15.8125 58.7754 15.334 61.5781 15.334C64.1986 15.334 66.5342 15.7669 68.585 16.6328C70.6357 17.4759 72.3675 18.695 73.7803 20.29C75.193 21.8623 76.264 23.765 76.9932 25.998C77.7451 28.2083 78.1211 30.6921 78.1211 33.4492V37.8242H48.3164V30.9541H67.6621V30.1338C67.6621 28.835 67.4229 27.6956 66.9443 26.7158C66.4886 25.736 65.805 24.984 64.8936 24.46C64.0049 23.9131 62.877 23.6396 61.5098 23.6396C60.2109 23.6396 59.1286 23.9131 58.2627 24.46C57.3968 25.0068 56.7018 25.7816 56.1777 26.7842C55.6764 27.764 55.3118 28.9147 55.084 30.2363C54.8561 31.5352 54.7422 32.9365 54.7422 34.4404V35.7393C54.7422 37.1748 54.9359 38.485 55.3232 39.6699C55.7106 40.8548 56.2803 41.8688 57.0322 42.7119C57.7842 43.555 58.6956 44.2158 59.7666 44.6943C60.8376 45.1729 62.0566 45.4121 63.4238 45.4121C65.11 45.4121 66.7165 45.0931 68.2432 44.4551C69.7699 43.7943 71.0915 42.7689 72.208 41.3789L77.1982 47.0869C76.4463 48.1807 75.3867 49.2402 74.0195 50.2656C72.6751 51.2682 71.0573 52.0885 69.166 52.7266C67.2747 53.3646 65.1328 53.6836 62.7402 53.6836ZM103.004 42.7119C103.004 42.0283 102.787 41.4245 102.354 40.9004C101.944 40.3763 101.192 39.8978 100.099 39.4648C99.0277 39.0319 97.5124 38.599 95.5527 38.166C93.707 37.7786 91.9867 37.2773 90.3916 36.6621C88.7965 36.0241 87.4066 35.2607 86.2217 34.3721C85.0368 33.4606 84.1139 32.3896 83.4531 31.1592C82.7923 29.9059 82.4619 28.4818 82.4619 26.8867C82.4619 25.3372 82.7923 23.8675 83.4531 22.4775C84.1367 21.0876 85.1165 19.8571 86.3926 18.7861C87.6914 17.7152 89.2637 16.8721 91.1094 16.2568C92.9779 15.6416 95.097 15.334 97.4668 15.334C100.725 15.334 103.539 15.8467 105.909 16.8721C108.279 17.8747 110.102 19.2874 111.378 21.1104C112.654 22.9105 113.292 24.9727 113.292 27.2969H102.628C102.628 26.3398 102.446 25.5081 102.081 24.8018C101.716 24.0954 101.158 23.5485 100.406 23.1611C99.6543 22.751 98.6631 22.5459 97.4326 22.5459C96.4756 22.5459 95.6325 22.7168 94.9033 23.0586C94.1969 23.3776 93.6387 23.8219 93.2285 24.3916C92.8411 24.9613 92.6475 25.6221 92.6475 26.374C92.6475 26.8981 92.7614 27.3766 92.9893 27.8096C93.2399 28.2197 93.6159 28.6071 94.1172 28.9717C94.6413 29.3135 95.3135 29.6211 96.1338 29.8945C96.9769 30.168 98.0023 30.43 99.21 30.6807C101.785 31.1592 104.132 31.8314 106.251 32.6973C108.393 33.5632 110.102 34.7594 111.378 36.2861C112.677 37.8128 113.326 39.8294 113.326 42.3359C113.326 43.9766 112.95 45.4805 112.198 46.8477C111.469 48.2148 110.41 49.4111 109.02 50.4365C107.63 51.4619 105.966 52.2594 104.029 52.8291C102.092 53.3988 99.9049 53.6836 97.4668 53.6836C93.9805 53.6836 91.0296 53.057 88.6143 51.8037C86.1989 50.5505 84.376 48.9782 83.1455 47.0869C81.9378 45.1729 81.334 43.2132 81.334 41.208H91.3486C91.3942 42.4385 91.7018 43.4411 92.2715 44.2158C92.8639 44.9906 93.6273 45.5602 94.5615 45.9248C95.4958 46.2666 96.5439 46.4375 97.7061 46.4375C98.8682 46.4375 99.8366 46.278 100.611 45.959C101.386 45.64 101.979 45.207 102.389 44.6602C102.799 44.0905 103.004 43.4411 103.004 42.7119ZM136.705 53.6836C133.766 53.6836 131.134 53.2165 128.81 52.2822C126.485 51.348 124.514 50.0605 122.896 48.4199C121.301 46.7565 120.082 44.8424 119.239 42.6777C118.396 40.513 117.975 38.2002 117.975 35.7393V34.4404C117.975 31.6833 118.362 29.1426 119.137 26.8184C119.911 24.4941 121.039 22.4775 122.521 20.7686C124.024 19.0368 125.87 17.7038 128.058 16.7695C130.245 15.8125 132.74 15.334 135.543 15.334C138.163 15.334 140.499 15.7669 142.55 16.6328C144.601 17.4759 146.332 18.695 147.745 20.29C149.158 21.8623 150.229 23.765 150.958 25.998C151.71 28.2083 152.086 30.6921 152.086 33.4492V37.8242H122.281V30.9541H141.627V30.1338C141.627 28.835 141.388 27.6956 140.909 26.7158C140.453 25.736 139.77 24.984 138.858 24.46C137.97 23.9131 136.842 23.6396 135.475 23.6396C134.176 23.6396 133.093 23.9131 132.228 24.46C131.362 25.0068 130.667 25.7816 130.143 26.7842C129.641 27.764 129.277 28.9147 129.049 30.2363C128.821 31.5352 128.707 32.9365 128.707 34.4404V35.7393C128.707 37.1748 128.901 38.485 129.288 39.6699C129.675 40.8548 130.245 41.8688 130.997 42.7119C131.749 43.555 132.66 44.2158 133.731 44.6943C134.802 45.1729 136.021 45.4121 137.389 45.4121C139.075 45.4121 140.681 45.0931 142.208 44.4551C143.735 43.7943 145.056 42.7689 146.173 41.3789L151.163 47.0869C150.411 48.1807 149.352 49.2402 147.984 50.2656C146.64 51.2682 145.022 52.0885 143.131 52.7266C141.24 53.3646 139.098 53.6836 136.705 53.6836ZM176.866 44.1816V28.3223C176.866 27.2057 176.695 26.2487 176.354 25.4512C176.012 24.6536 175.476 24.027 174.747 23.5713C174.018 23.1156 173.072 22.8877 171.91 22.8877C170.93 22.8877 170.076 23.0586 169.347 23.4004C168.64 23.7422 168.093 24.2321 167.706 24.8701C167.341 25.5081 167.159 26.2943 167.159 27.2285H156.495C156.495 25.5651 156.871 24.0156 157.623 22.5801C158.375 21.1445 159.446 19.8799 160.836 18.7861C162.249 17.6924 163.935 16.8493 165.895 16.2568C167.854 15.6416 170.053 15.334 172.491 15.334C175.385 15.334 177.96 15.8239 180.216 16.8037C182.494 17.7607 184.295 19.2077 185.616 21.1445C186.938 23.0586 187.599 25.474 187.599 28.3906V43.874C187.599 46.1071 187.724 47.8617 187.975 49.1377C188.248 50.391 188.635 51.4847 189.137 52.4189V53H178.37C177.869 51.929 177.493 50.6074 177.242 49.0352C176.992 47.4401 176.866 45.8223 176.866 44.1816ZM178.199 30.4414L178.268 36.3203H172.97C171.785 36.3203 170.759 36.4684 169.894 36.7646C169.05 37.0609 168.367 37.471 167.843 37.9951C167.319 38.4964 166.931 39.0889 166.681 39.7725C166.453 40.4333 166.339 41.1624 166.339 41.96C166.339 42.7119 166.521 43.3955 166.886 44.0107C167.25 44.6032 167.752 45.0703 168.39 45.4121C169.028 45.7539 169.768 45.9248 170.611 45.9248C172.001 45.9248 173.186 45.6514 174.166 45.1045C175.169 44.5576 175.943 43.8968 176.49 43.1221C177.037 42.3245 177.311 41.584 177.311 40.9004L179.874 45.3438C179.464 46.2552 178.963 47.2008 178.37 48.1807C177.778 49.1377 177.026 50.0378 176.114 50.8809C175.203 51.7012 174.098 52.3734 172.799 52.8975C171.523 53.4215 169.985 53.6836 168.185 53.6836C165.86 53.6836 163.753 53.2165 161.861 52.2822C159.97 51.3252 158.455 50.015 157.315 48.3516C156.199 46.6882 155.641 44.7741 155.641 42.6094C155.641 40.6725 155.994 38.9521 156.7 37.4482C157.407 35.9443 158.466 34.6683 159.879 33.6201C161.314 32.5719 163.115 31.7858 165.279 31.2617C167.444 30.7148 169.973 30.4414 172.867 30.4414H178.199ZM205.304 24.6309V53H194.64V16.0176H204.654L205.304 24.6309ZM216.344 15.7441L216.173 25.6904C215.717 25.6221 215.125 25.5651 214.396 25.5195C213.666 25.4512 213.04 25.417 212.516 25.417C211.148 25.417 209.964 25.5879 208.961 25.9297C207.981 26.2487 207.161 26.7272 206.5 27.3652C205.862 28.0033 205.383 28.8008 205.064 29.7578C204.745 30.6921 204.586 31.7744 204.586 33.0049L202.569 32.0137C202.569 29.5755 202.809 27.3424 203.287 25.3145C203.766 23.2865 204.461 21.5319 205.372 20.0508C206.284 18.5469 207.4 17.3848 208.722 16.5645C210.043 15.7441 211.547 15.334 213.233 15.334C213.78 15.334 214.339 15.3682 214.908 15.4365C215.478 15.5049 215.956 15.6074 216.344 15.7441ZM235.484 45.3779C236.624 45.3779 237.615 45.1615 238.458 44.7285C239.301 44.2956 239.951 43.6917 240.406 42.917C240.885 42.1195 241.124 41.1624 241.124 40.0459H251.173C251.173 42.7347 250.478 45.1045 249.088 47.1553C247.721 49.2061 245.875 50.8125 243.551 51.9746C241.227 53.1139 238.606 53.6836 235.689 53.6836C232.818 53.6836 230.312 53.2165 228.17 52.2822C226.028 51.3252 224.239 49.9922 222.804 48.2832C221.368 46.5742 220.286 44.5918 219.557 42.3359C218.85 40.0573 218.497 37.5964 218.497 34.9531V34.0645C218.497 31.444 218.85 28.9945 219.557 26.7158C220.286 24.4372 221.368 22.4434 222.804 20.7344C224.239 19.0254 226.017 17.7038 228.136 16.7695C230.278 15.8125 232.784 15.334 235.655 15.334C238.686 15.334 241.363 15.915 243.688 17.0771C246.035 18.2393 247.869 19.9141 249.19 22.1016C250.512 24.2663 251.173 26.8753 251.173 29.9287H241.124C241.124 28.7438 240.908 27.6842 240.475 26.75C240.064 25.793 239.426 25.041 238.561 24.4941C237.717 23.9245 236.669 23.6396 235.416 23.6396C234.117 23.6396 233.046 23.9245 232.203 24.4941C231.383 25.041 230.756 25.8044 230.323 26.7842C229.89 27.764 229.594 28.8805 229.435 30.1338C229.275 31.3643 229.195 32.6745 229.195 34.0645V34.9531C229.195 36.3659 229.275 37.7103 229.435 38.9863C229.594 40.2396 229.89 41.3447 230.323 42.3018C230.779 43.2588 231.417 44.0107 232.237 44.5576C233.058 45.1045 234.14 45.3779 235.484 45.3779ZM266.896 0.5V53H256.231V0.5H266.896ZM265.494 33.21L262.828 33.2783C262.828 30.6807 263.147 28.2995 263.785 26.1348C264.446 23.9473 265.38 22.0446 266.588 20.4268C267.796 18.8089 269.243 17.5557 270.929 16.667C272.638 15.7783 274.518 15.334 276.568 15.334C278.391 15.334 280.055 15.596 281.559 16.1201C283.062 16.6442 284.361 17.4759 285.455 18.6152C286.549 19.7546 287.392 21.2471 287.984 23.0928C288.577 24.9385 288.873 27.1829 288.873 29.8262V53H278.141V29.7578C278.141 28.1855 277.913 26.9551 277.457 26.0664C277.024 25.1777 276.386 24.5511 275.543 24.1865C274.723 23.8219 273.72 23.6396 272.535 23.6396C271.145 23.6396 269.994 23.8903 269.083 24.3916C268.172 24.8701 267.454 25.5423 266.93 26.4082C266.406 27.2741 266.03 28.2881 265.802 29.4502C265.597 30.6123 265.494 31.8656 265.494 33.21ZM319.156 3.23438H328.385L340.348 38.8154L352.276 3.23438H361.505L344.073 53H336.588L319.156 3.23438ZM313.824 3.23438H323.224L324.967 40.1143V53H313.824V3.23438ZM357.438 3.23438H366.871V53H355.694V40.1143L357.438 3.23438ZM373.058 34.8848V34.167C373.058 31.4554 373.445 28.9603 374.22 26.6816C374.994 24.3802 376.134 22.3864 377.638 20.7002C379.142 19.014 380.987 17.7038 383.175 16.7695C385.362 15.8125 387.869 15.334 390.694 15.334C393.565 15.334 396.095 15.8125 398.282 16.7695C400.493 17.7038 402.35 19.014 403.854 20.7002C405.357 22.3864 406.497 24.3802 407.271 26.6816C408.046 28.9603 408.434 31.4554 408.434 34.167V34.8848C408.434 37.5736 408.046 40.0687 407.271 42.3701C406.497 44.6488 405.357 46.6426 403.854 48.3516C402.35 50.0378 400.504 51.348 398.316 52.2822C396.129 53.2165 393.611 53.6836 390.763 53.6836C387.937 53.6836 385.419 53.2165 383.209 52.2822C380.999 51.348 379.142 50.0378 377.638 48.3516C376.134 46.6426 374.994 44.6488 374.22 42.3701C373.445 40.0687 373.058 37.5736 373.058 34.8848ZM383.756 34.167V34.8848C383.756 36.3431 383.87 37.7103 384.098 38.9863C384.348 40.2624 384.747 41.3789 385.294 42.3359C385.841 43.293 386.559 44.0449 387.447 44.5918C388.359 45.1159 389.464 45.3779 390.763 45.3779C392.062 45.3779 393.155 45.1159 394.044 44.5918C394.933 44.0449 395.65 43.293 396.197 42.3359C396.744 41.3789 397.132 40.2624 397.359 38.9863C397.61 37.7103 397.735 36.3431 397.735 34.8848V34.167C397.735 32.7314 397.61 31.387 397.359 30.1338C397.132 28.8577 396.744 27.7298 396.197 26.75C395.65 25.7702 394.921 25.0068 394.01 24.46C393.121 23.9131 392.016 23.6396 390.694 23.6396C389.418 23.6396 388.336 23.9131 387.447 24.46C386.559 25.0068 385.841 25.7702 385.294 26.75C384.747 27.7298 384.348 28.8577 384.098 30.1338C383.87 31.387 383.756 32.7314 383.756 34.167ZM424.737 24.6309V53H414.073V16.0176H424.088L424.737 24.6309ZM435.777 15.7441L435.606 25.6904C435.151 25.6221 434.558 25.5651 433.829 25.5195C433.1 25.4512 432.473 25.417 431.949 25.417C430.582 25.417 429.397 25.5879 428.395 25.9297C427.415 26.2487 426.594 26.7272 425.934 27.3652C425.296 28.0033 424.817 28.8008 424.498 29.7578C424.179 30.6921 424.02 31.7744 424.02 33.0049L422.003 32.0137C422.003 29.5755 422.242 27.3424 422.721 25.3145C423.199 23.2865 423.894 21.5319 424.806 20.0508C425.717 18.5469 426.834 17.3848 428.155 16.5645C429.477 15.7441 430.981 15.334 432.667 15.334C433.214 15.334 433.772 15.3682 434.342 15.4365C434.911 15.5049 435.39 15.6074 435.777 15.7441ZM456.9 53.6836C453.961 53.6836 451.329 53.2165 449.005 52.2822C446.681 51.348 444.71 50.0605 443.092 48.4199C441.497 46.7565 440.278 44.8424 439.435 42.6777C438.591 40.513 438.17 38.2002 438.17 35.7393V34.4404C438.17 31.6833 438.557 29.1426 439.332 26.8184C440.107 24.4941 441.235 22.4775 442.716 20.7686C444.22 19.0368 446.065 17.7038 448.253 16.7695C450.44 15.8125 452.936 15.334 455.738 15.334C458.359 15.334 460.694 15.7669 462.745 16.6328C464.796 17.4759 466.528 18.695 467.94 20.29C469.353 21.8623 470.424 23.765 471.153 25.998C471.905 28.2083 472.281 30.6921 472.281 33.4492V37.8242H442.477V30.9541H461.822V30.1338C461.822 28.835 461.583 27.6956 461.104 26.7158C460.649 25.736 459.965 24.984 459.054 24.46C458.165 23.9131 457.037 23.6396 455.67 23.6396C454.371 23.6396 453.289 23.9131 452.423 24.46C451.557 25.0068 450.862 25.7816 450.338 26.7842C449.837 27.764 449.472 28.9147 449.244 30.2363C449.016 31.5352 448.902 32.9365 448.902 34.4404V35.7393C448.902 37.1748 449.096 38.485 449.483 39.6699C449.871 40.8548 450.44 41.8688 451.192 42.7119C451.944 43.555 452.856 44.2158 453.927 44.6943C454.998 45.1729 456.217 45.4121 457.584 45.4121C459.27 45.4121 460.877 45.0931 462.403 44.4551C463.93 43.7943 465.252 42.7689 466.368 41.3789L471.358 47.0869C470.606 48.1807 469.547 49.2402 468.18 50.2656C466.835 51.2682 465.217 52.0885 463.326 52.7266C461.435 53.3646 459.293 53.6836 456.9 53.6836ZM536.949 27.0234V29.2451C536.949 33.0277 536.425 36.4229 535.377 39.4307C534.352 42.4385 532.882 45.002 530.968 47.1211C529.076 49.2402 526.821 50.8695 524.2 52.0088C521.603 53.1253 518.72 53.6836 515.553 53.6836C512.385 53.6836 509.492 53.1253 506.871 52.0088C504.251 50.8695 501.972 49.2402 500.035 47.1211C498.121 45.002 496.64 42.4385 495.592 39.4307C494.544 36.4229 494.02 33.0277 494.02 29.2451V27.0234C494.02 23.2409 494.544 19.8457 495.592 16.8379C496.64 13.8073 498.11 11.2324 500.001 9.11328C501.915 6.99414 504.182 5.3763 506.803 4.25977C509.423 3.12044 512.317 2.55078 515.484 2.55078C518.652 2.55078 521.546 3.12044 524.166 4.25977C526.786 5.3763 529.042 6.99414 530.934 9.11328C532.848 11.2324 534.329 13.8073 535.377 16.8379C536.425 19.8457 536.949 23.2409 536.949 27.0234ZM525.704 29.2451V26.9551C525.704 24.4258 525.476 22.1927 525.021 20.2559C524.565 18.2962 523.904 16.6556 523.038 15.334C522.172 14.0124 521.101 13.0212 519.825 12.3604C518.549 11.6768 517.102 11.335 515.484 11.335C513.798 11.335 512.328 11.6768 511.075 12.3604C509.822 13.0212 508.762 14.0124 507.896 15.334C507.053 16.6556 506.404 18.2962 505.948 20.2559C505.515 22.1927 505.299 24.4258 505.299 26.9551V29.2451C505.299 31.7516 505.515 33.9847 505.948 35.9443C506.404 37.8812 507.065 39.5218 507.931 40.8662C508.797 42.2106 509.856 43.2246 511.109 43.9082C512.385 44.5918 513.867 44.9336 515.553 44.9336C517.171 44.9336 518.606 44.5918 519.859 43.9082C521.135 43.2246 522.206 42.2106 523.072 40.8662C523.938 39.5218 524.588 37.8812 525.021 35.9443C525.476 33.9847 525.704 31.7516 525.704 29.2451ZM553.937 24.6309V53H543.272V16.0176H553.287L553.937 24.6309ZM564.977 15.7441L564.806 25.6904C564.35 25.6221 563.757 25.5651 563.028 25.5195C562.299 25.4512 561.673 25.417 561.148 25.417C559.781 25.417 558.596 25.5879 557.594 25.9297C556.614 26.2487 555.794 26.7272 555.133 27.3652C554.495 28.0033 554.016 28.8008 553.697 29.7578C553.378 30.6921 553.219 31.7744 553.219 33.0049L551.202 32.0137C551.202 29.5755 551.441 27.3424 551.92 25.3145C552.398 23.2865 553.093 21.5319 554.005 20.0508C554.916 18.5469 556.033 17.3848 557.354 16.5645C558.676 15.7441 560.18 15.334 561.866 15.334C562.413 15.334 562.971 15.3682 563.541 15.4365C564.111 15.5049 564.589 15.6074 564.977 15.7441ZM591.979 16.0176H601.686V51.667C601.686 55.0622 600.911 57.9447 599.361 60.3145C597.835 62.6842 595.704 64.4844 592.97 65.7148C590.235 66.9453 587.034 67.5605 583.365 67.5605C581.77 67.5605 580.107 67.3441 578.375 66.9111C576.643 66.501 575.014 65.8743 573.487 65.0312C571.961 64.2109 570.685 63.1628 569.659 61.8867L574.205 55.5977C575.253 56.7826 576.507 57.7396 577.965 58.4688C579.423 59.2207 581.087 59.5967 582.955 59.5967C584.664 59.5967 586.111 59.2891 587.296 58.6738C588.481 58.0586 589.381 57.1585 589.996 55.9736C590.634 54.7887 590.953 53.3532 590.953 51.667V24.665L591.979 16.0176ZM567.267 34.9531V34.2354C567.267 31.4326 567.608 28.8805 568.292 26.5791C568.976 24.2549 569.967 22.2611 571.266 20.5977C572.587 18.9115 574.171 17.6126 576.017 16.7012C577.885 15.7897 579.981 15.334 582.306 15.334C584.812 15.334 586.886 15.8125 588.526 16.7695C590.167 17.7038 591.5 19.0254 592.525 20.7344C593.551 22.4206 594.36 24.4144 594.952 26.7158C595.545 28.9945 596.023 31.4668 596.388 34.1328V35.3633C596.023 37.9154 595.499 40.2965 594.815 42.5068C594.132 44.7171 593.243 46.6654 592.149 48.3516C591.056 50.015 589.688 51.3252 588.048 52.2822C586.43 53.2165 584.493 53.6836 582.237 53.6836C579.936 53.6836 577.862 53.2165 576.017 52.2822C574.171 51.348 572.587 50.0378 571.266 48.3516C569.967 46.6654 568.976 44.6829 568.292 42.4043C567.608 40.1257 567.267 37.6419 567.267 34.9531ZM577.931 34.2354V34.9531C577.931 36.4115 578.067 37.7673 578.341 39.0205C578.637 40.2738 579.07 41.3789 579.64 42.3359C580.232 43.293 580.961 44.0449 581.827 44.5918C582.716 45.1159 583.753 45.3779 584.938 45.3779C586.669 45.3779 588.071 45.0133 589.142 44.2842C590.235 43.5322 591.033 42.4954 591.534 41.1738C592.058 39.8522 592.332 38.3141 592.354 36.5596V32.9707C592.354 31.5124 592.206 30.2021 591.91 29.04C591.614 27.8779 591.17 26.8981 590.577 26.1006C590.007 25.3031 589.256 24.6992 588.321 24.2891C587.41 23.8561 586.305 23.6396 585.006 23.6396C583.844 23.6396 582.818 23.9131 581.93 24.46C581.041 24.984 580.3 25.7246 579.708 26.6816C579.116 27.6387 578.671 28.7666 578.375 30.0654C578.079 31.3415 577.931 32.7314 577.931 34.2354ZM628.38 44.1816V28.3223C628.38 27.2057 628.209 26.2487 627.867 25.4512C627.525 24.6536 626.99 24.027 626.261 23.5713C625.532 23.1156 624.586 22.8877 623.424 22.8877C622.444 22.8877 621.59 23.0586 620.86 23.4004C620.154 23.7422 619.607 24.2321 619.22 24.8701C618.855 25.5081 618.673 26.2943 618.673 27.2285H608.009C608.009 25.5651 608.385 24.0156 609.137 22.5801C609.889 21.1445 610.96 19.8799 612.35 18.7861C613.762 17.6924 615.449 16.8493 617.408 16.2568C619.368 15.6416 621.567 15.334 624.005 15.334C626.899 15.334 629.474 15.8239 631.729 16.8037C634.008 17.7607 635.808 19.2077 637.13 21.1445C638.451 23.0586 639.112 25.474 639.112 28.3906V43.874C639.112 46.1071 639.238 47.8617 639.488 49.1377C639.762 50.391 640.149 51.4847 640.65 52.4189V53H629.884C629.382 51.929 629.007 50.6074 628.756 49.0352C628.505 47.4401 628.38 45.8223 628.38 44.1816ZM629.713 30.4414L629.781 36.3203H624.483C623.299 36.3203 622.273 36.4684 621.407 36.7646C620.564 37.0609 619.881 37.471 619.356 37.9951C618.832 38.4964 618.445 39.0889 618.194 39.7725C617.966 40.4333 617.853 41.1624 617.853 41.96C617.853 42.7119 618.035 43.3955 618.399 44.0107C618.764 44.6032 619.265 45.0703 619.903 45.4121C620.541 45.7539 621.282 45.9248 622.125 45.9248C623.515 45.9248 624.7 45.6514 625.68 45.1045C626.682 44.5576 627.457 43.8968 628.004 43.1221C628.551 42.3245 628.824 41.584 628.824 40.9004L631.388 45.3438C630.978 46.2552 630.476 47.2008 629.884 48.1807C629.291 49.1377 628.539 50.0378 627.628 50.8809C626.716 51.7012 625.611 52.3734 624.312 52.8975C623.036 53.4215 621.498 53.6836 619.698 53.6836C617.374 53.6836 615.266 53.2165 613.375 52.2822C611.484 51.3252 609.968 50.015 608.829 48.3516C607.713 46.6882 607.154 44.7741 607.154 42.6094C607.154 40.6725 607.507 38.9521 608.214 37.4482C608.92 35.9443 609.98 34.6683 611.393 33.6201C612.828 32.5719 614.628 31.7858 616.793 31.2617C618.958 30.7148 621.487 30.4414 624.381 30.4414H629.713ZM656.578 23.9131V53H645.88V16.0176H655.929L656.578 23.9131ZM655.177 33.21L652.511 33.2783C652.511 30.4984 652.853 28.0033 653.536 25.793C654.22 23.5827 655.188 21.7028 656.441 20.1533C657.717 18.5811 659.233 17.3848 660.987 16.5645C662.765 15.7441 664.724 15.334 666.866 15.334C668.598 15.334 670.182 15.5846 671.617 16.0859C673.053 16.5872 674.283 17.3962 675.309 18.5127C676.357 19.6064 677.154 21.0648 677.701 22.8877C678.248 24.6878 678.521 26.9095 678.521 29.5527V53H667.789V29.5186C667.789 27.9691 667.573 26.7728 667.14 25.9297C666.707 25.0866 666.069 24.4941 665.226 24.1523C664.405 23.8105 663.403 23.6396 662.218 23.6396C660.965 23.6396 659.894 23.8903 659.005 24.3916C658.116 24.8701 657.387 25.5423 656.817 26.4082C656.248 27.2741 655.826 28.2881 655.553 29.4502C655.302 30.6123 655.177 31.8656 655.177 33.21ZM696.739 16.0176V53H686.041V16.0176H696.739ZM685.392 6.44727C685.392 4.89779 685.938 3.63314 687.032 2.65332C688.126 1.65072 689.562 1.14941 691.339 1.14941C693.116 1.14941 694.552 1.65072 695.646 2.65332C696.762 3.63314 697.32 4.89779 697.32 6.44727C697.32 7.97396 696.762 9.23861 695.646 10.2412C694.552 11.221 693.116 11.7109 691.339 11.7109C689.562 11.7109 688.126 11.221 687.032 10.2412C685.938 9.23861 685.392 7.97396 685.392 6.44727ZM719.879 45.3779C721.018 45.3779 722.009 45.1615 722.853 44.7285C723.696 44.2956 724.345 43.6917 724.801 42.917C725.279 42.1195 725.519 41.1624 725.519 40.0459H735.567C735.567 42.7347 734.872 45.1045 733.482 47.1553C732.115 49.2061 730.27 50.8125 727.945 51.9746C725.621 53.1139 723.001 53.6836 720.084 53.6836C717.213 53.6836 714.706 53.2165 712.564 52.2822C710.423 51.3252 708.634 49.9922 707.198 48.2832C705.763 46.5742 704.68 44.5918 703.951 42.3359C703.245 40.0573 702.892 37.5964 702.892 34.9531V34.0645C702.892 31.444 703.245 28.9945 703.951 26.7158C704.68 24.4372 705.763 22.4434 707.198 20.7344C708.634 19.0254 710.411 17.7038 712.53 16.7695C714.672 15.8125 717.179 15.334 720.05 15.334C723.08 15.334 725.758 15.915 728.082 17.0771C730.429 18.2393 732.263 19.9141 733.585 22.1016C734.907 24.2663 735.567 26.8753 735.567 29.9287H725.519C725.519 28.7438 725.302 27.6842 724.869 26.75C724.459 25.793 723.821 25.041 722.955 24.4941C722.112 23.9245 721.064 23.6396 719.811 23.6396C718.512 23.6396 717.441 23.9245 716.598 24.4941C715.777 25.041 715.151 25.8044 714.718 26.7842C714.285 27.764 713.989 28.8805 713.829 30.1338C713.67 31.3643 713.59 32.6745 713.59 34.0645V34.9531C713.59 36.3659 713.67 37.7103 713.829 38.9863C713.989 40.2396 714.285 41.3447 714.718 42.3018C715.174 43.2588 715.812 44.0107 716.632 44.5576C717.452 45.1045 718.535 45.3779 719.879 45.3779ZM769.986 3.23438V53H758.844V3.23438H769.986ZM789.571 24.2207V32.834H766.876V24.2207H789.571ZM791.759 3.23438V11.8818H766.876V3.23438H791.759ZM794.356 34.8848V34.167C794.356 31.4554 794.744 28.9603 795.519 26.6816C796.293 24.3802 797.433 22.3864 798.937 20.7002C800.44 19.014 802.286 17.7038 804.474 16.7695C806.661 15.8125 809.168 15.334 811.993 15.334C814.864 15.334 817.394 15.8125 819.581 16.7695C821.791 17.7038 823.648 19.014 825.152 20.7002C826.656 22.3864 827.796 24.3802 828.57 26.6816C829.345 28.9603 829.732 31.4554 829.732 34.167V34.8848C829.732 37.5736 829.345 40.0687 828.57 42.3701C827.796 44.6488 826.656 46.6426 825.152 48.3516C823.648 50.0378 821.803 51.348 819.615 52.2822C817.428 53.2165 814.91 53.6836 812.062 53.6836C809.236 53.6836 806.718 53.2165 804.508 52.2822C802.298 51.348 800.44 50.0378 798.937 48.3516C797.433 46.6426 796.293 44.6488 795.519 42.3701C794.744 40.0687 794.356 37.5736 794.356 34.8848ZM805.055 34.167V34.8848C805.055 36.3431 805.169 37.7103 805.396 38.9863C805.647 40.2624 806.046 41.3789 806.593 42.3359C807.14 43.293 807.857 44.0449 808.746 44.5918C809.658 45.1159 810.763 45.3779 812.062 45.3779C813.36 45.3779 814.454 45.1159 815.343 44.5918C816.231 44.0449 816.949 43.293 817.496 42.3359C818.043 41.3789 818.43 40.2624 818.658 38.9863C818.909 37.7103 819.034 36.3431 819.034 34.8848V34.167C819.034 32.7314 818.909 31.387 818.658 30.1338C818.43 28.8577 818.043 27.7298 817.496 26.75C816.949 25.7702 816.22 25.0068 815.309 24.46C814.42 23.9131 813.315 23.6396 811.993 23.6396C810.717 23.6396 809.635 23.9131 808.746 24.46C807.857 25.0068 807.14 25.7702 806.593 26.75C806.046 27.7298 805.647 28.8577 805.396 30.1338C805.169 31.387 805.055 32.7314 805.055 34.167ZM833.8 34.8848V34.167C833.8 31.4554 834.187 28.9603 834.962 26.6816C835.737 24.3802 836.876 22.3864 838.38 20.7002C839.884 19.014 841.729 17.7038 843.917 16.7695C846.104 15.8125 848.611 15.334 851.437 15.334C854.308 15.334 856.837 15.8125 859.024 16.7695C861.235 17.7038 863.092 19.014 864.596 20.7002C866.1 22.3864 867.239 24.3802 868.014 26.6816C868.788 28.9603 869.176 31.4554 869.176 34.167V34.8848C869.176 37.5736 868.788 40.0687 868.014 42.3701C867.239 44.6488 866.1 46.6426 864.596 48.3516C863.092 50.0378 861.246 51.348 859.059 52.2822C856.871 53.2165 854.353 53.6836 851.505 53.6836C848.679 53.6836 846.161 53.2165 843.951 52.2822C841.741 51.348 839.884 50.0378 838.38 48.3516C836.876 46.6426 835.737 44.6488 834.962 42.3701C834.187 40.0687 833.8 37.5736 833.8 34.8848ZM844.498 34.167V34.8848C844.498 36.3431 844.612 37.7103 844.84 38.9863C845.09 40.2624 845.489 41.3789 846.036 42.3359C846.583 43.293 847.301 44.0449 848.189 44.5918C849.101 45.1159 850.206 45.3779 851.505 45.3779C852.804 45.3779 853.897 45.1159 854.786 44.5918C855.675 44.0449 856.393 43.293 856.939 42.3359C857.486 41.3789 857.874 40.2624 858.102 38.9863C858.352 37.7103 858.478 36.3431 858.478 34.8848V34.167C858.478 32.7314 858.352 31.387 858.102 30.1338C857.874 28.8577 857.486 27.7298 856.939 26.75C856.393 25.7702 855.663 25.0068 854.752 24.46C853.863 23.9131 852.758 23.6396 851.437 23.6396C850.16 23.6396 849.078 23.9131 848.189 24.46C847.301 25.0068 846.583 25.7702 846.036 26.75C845.489 27.7298 845.09 28.8577 844.84 30.1338C844.612 31.387 844.498 32.7314 844.498 34.167ZM896.314 44.7285V0.5H907.047V53H897.408L896.314 44.7285ZM873.277 34.9531V34.2354C873.277 31.4326 873.585 28.8805 874.2 26.5791C874.838 24.2549 875.761 22.2611 876.969 20.5977C878.199 18.9115 879.715 17.6126 881.515 16.7012C883.315 15.7897 885.377 15.334 887.701 15.334C889.843 15.334 891.712 15.8125 893.307 16.7695C894.902 17.7038 896.257 19.0254 897.374 20.7344C898.513 22.4206 899.436 24.4144 900.143 26.7158C900.849 28.9945 901.384 31.4668 901.749 34.1328V35.3633C901.407 37.9154 900.872 40.2965 900.143 42.5068C899.436 44.7171 898.513 46.6654 897.374 48.3516C896.257 50.015 894.89 51.3252 893.272 52.2822C891.677 53.2165 889.798 53.6836 887.633 53.6836C885.309 53.6836 883.246 53.2165 881.446 52.2822C879.669 51.348 878.176 50.0378 876.969 48.3516C875.761 46.6654 874.838 44.6829 874.2 42.4043C873.585 40.1257 873.277 37.6419 873.277 34.9531ZM883.941 34.2354V34.9531C883.941 36.4115 884.044 37.7673 884.249 39.0205C884.477 40.2738 884.841 41.3789 885.343 42.3359C885.844 43.293 886.505 44.0449 887.325 44.5918C888.146 45.1159 889.148 45.3779 890.333 45.3779C891.928 45.3779 893.238 45.0133 894.264 44.2842C895.289 43.5322 896.064 42.4954 896.588 41.1738C897.112 39.8522 897.385 38.3141 897.408 36.5596V32.9707C897.408 31.5124 897.26 30.2021 896.964 29.04C896.668 27.8779 896.223 26.8981 895.631 26.1006C895.061 25.3031 894.343 24.6992 893.478 24.2891C892.612 23.8561 891.586 23.6396 890.401 23.6396C889.239 23.6396 888.248 23.9131 887.428 24.46C886.607 24.984 885.935 25.7246 885.411 26.6816C884.91 27.6387 884.534 28.7666 884.283 30.0654C884.055 31.3415 883.941 32.7314 883.941 34.2354Z" fill="#274C5B"/>
</svg>
