<svg width="543" height="170" viewBox="0 0 543 170" fill="none" xmlns="http://www.w3.org/2000/svg">
<path d="M30.8379 19.2969C30.8379 20.0586 30.6475 20.709 30.2666 21.248C29.8916 21.7812 29.3643 22.1885 28.6846 22.4697C28.0049 22.751 27.2051 22.8916 26.2852 22.8916C25.7988 22.8916 25.3389 22.8682 24.9053 22.8213C24.4717 22.7744 24.0732 22.707 23.71 22.6191C23.3467 22.5312 23.0273 22.4229 22.752 22.2939V20.8613C23.1914 21.043 23.7275 21.2129 24.3604 21.3711C24.9932 21.5234 25.6553 21.5996 26.3467 21.5996C26.9912 21.5996 27.5361 21.5146 27.9814 21.3447C28.4268 21.1689 28.7637 20.9199 28.9922 20.5977C29.2266 20.2695 29.3438 19.877 29.3438 19.4199C29.3438 18.9805 29.2471 18.6143 29.0537 18.3213C28.8604 18.0225 28.5381 17.7529 28.0869 17.5127C27.6416 17.2666 27.0322 17.0059 26.2588 16.7305C25.7139 16.5371 25.2334 16.3262 24.8174 16.0977C24.4014 15.8633 24.0527 15.5996 23.7715 15.3066C23.4902 15.0137 23.2764 14.6738 23.1299 14.2871C22.9893 13.9004 22.9189 13.458 22.9189 12.96C22.9189 12.2744 23.0918 11.6885 23.4375 11.2021C23.7891 10.71 24.2725 10.335 24.8877 10.0771C25.5088 9.81348 26.2207 9.68164 27.0234 9.68164C27.709 9.68164 28.3418 9.74609 28.9219 9.875C29.5078 10.0039 30.0439 10.1768 30.5303 10.3936L30.0645 11.6768C29.6016 11.4834 29.1094 11.3223 28.5879 11.1934C28.0723 11.0645 27.5391 11 26.9883 11C26.4375 11 25.9717 11.082 25.5908 11.2461C25.2158 11.4043 24.9287 11.6299 24.7295 11.9229C24.5303 12.2158 24.4307 12.5645 24.4307 12.9688C24.4307 13.4199 24.5244 13.7949 24.7119 14.0938C24.9053 14.3926 25.21 14.6592 25.626 14.8936C26.0479 15.1221 26.6045 15.3623 27.2959 15.6143C28.0518 15.8896 28.6934 16.1826 29.2207 16.4932C29.748 16.7979 30.1494 17.1729 30.4248 17.6182C30.7002 18.0576 30.8379 18.6172 30.8379 19.2969ZM34.7051 13.083V22.7158H33.2461V13.083H34.7051ZM33.9932 9.47949C34.2334 9.47949 34.4385 9.55859 34.6084 9.7168C34.7842 9.86914 34.8721 10.1094 34.8721 10.4375C34.8721 10.7598 34.7842 11 34.6084 11.1582C34.4385 11.3164 34.2334 11.3955 33.9932 11.3955C33.7412 11.3955 33.5303 11.3164 33.3604 11.1582C33.1963 11 33.1143 10.7598 33.1143 10.4375C33.1143 10.1094 33.1963 9.86914 33.3604 9.7168C33.5303 9.55859 33.7412 9.47949 33.9932 9.47949ZM48.2578 12.9072C49.3184 12.9072 50.1182 13.1855 50.6572 13.7422C51.1963 14.293 51.4658 15.1807 51.4658 16.4053V22.7158H50.0244V16.4756C50.0244 15.6963 49.8545 15.1133 49.5146 14.7266C49.1807 14.334 48.6826 14.1377 48.0205 14.1377C47.0889 14.1377 46.4121 14.4072 45.9902 14.9463C45.5684 15.4854 45.3574 16.2793 45.3574 17.3281V22.7158H43.9072V16.4756C43.9072 15.9541 43.8311 15.5205 43.6787 15.1748C43.5322 14.8291 43.3096 14.5713 43.0107 14.4014C42.7178 14.2256 42.3457 14.1377 41.8945 14.1377C41.2559 14.1377 40.7432 14.2695 40.3564 14.5332C39.9697 14.7969 39.6885 15.1895 39.5127 15.7109C39.3428 16.2266 39.2578 16.8623 39.2578 17.6182V22.7158H37.7988V13.083H38.9766L39.1963 14.4453H39.2754C39.4688 14.1113 39.7119 13.8301 40.0049 13.6016C40.2979 13.373 40.626 13.2002 40.9893 13.083C41.3525 12.9658 41.7393 12.9072 42.1494 12.9072C42.8818 12.9072 43.4941 13.0449 43.9863 13.3203C44.4844 13.5898 44.8447 14.0029 45.0674 14.5596H45.1465C45.4629 14.0029 45.8965 13.5898 46.4473 13.3203C46.998 13.0449 47.6016 12.9072 48.2578 12.9072ZM58.9893 12.9072C60.1904 12.9072 61.1484 13.3203 61.8633 14.1465C62.5781 14.9727 62.9355 16.2148 62.9355 17.873C62.9355 18.9688 62.7715 19.8887 62.4434 20.6328C62.1152 21.377 61.6523 21.9395 61.0547 22.3203C60.4629 22.7012 59.7627 22.8916 58.9541 22.8916C58.4443 22.8916 57.9961 22.8242 57.6094 22.6895C57.2227 22.5547 56.8916 22.373 56.6162 22.1445C56.3408 21.916 56.1123 21.667 55.9307 21.3975H55.8252C55.8428 21.626 55.8633 21.9014 55.8867 22.2236C55.916 22.5459 55.9307 22.8271 55.9307 23.0674V27.0225H54.4629V13.083H55.667L55.8604 14.5068H55.9307C56.1182 14.2139 56.3467 13.9473 56.6162 13.707C56.8857 13.4609 57.2139 13.2676 57.6006 13.127C57.9932 12.9805 58.4561 12.9072 58.9893 12.9072ZM58.7344 14.1377C58.0664 14.1377 57.5273 14.2666 57.1172 14.5244C56.7129 14.7822 56.417 15.1689 56.2295 15.6846C56.042 16.1943 55.9424 16.8359 55.9307 17.6094V17.8906C55.9307 18.7051 56.0186 19.3936 56.1943 19.9561C56.376 20.5186 56.6719 20.9463 57.082 21.2393C57.498 21.5322 58.0547 21.6787 58.752 21.6787C59.3496 21.6787 59.8477 21.5176 60.2461 21.1953C60.6445 20.873 60.9404 20.4248 61.1338 19.8506C61.333 19.2705 61.4326 18.6055 61.4326 17.8555C61.4326 16.7188 61.21 15.8164 60.7646 15.1484C60.3252 14.4746 59.6484 14.1377 58.7344 14.1377ZM66.9521 22.7158H65.4844V9.04004H66.9521V22.7158ZM68.5166 13.083H70.0811L72.208 18.6729C72.3311 19.001 72.4453 19.3174 72.5508 19.6221C72.6562 19.9209 72.75 20.208 72.832 20.4834C72.9141 20.7588 72.9785 21.0254 73.0254 21.2832H73.0869C73.1689 20.9902 73.2861 20.6064 73.4385 20.1318C73.5908 19.6514 73.7549 19.1621 73.9307 18.6641L75.9434 13.083H77.5166L73.3242 24.1309C73.1016 24.7227 72.8408 25.2383 72.542 25.6777C72.249 26.1172 71.8916 26.4541 71.4697 26.6885C71.0479 26.9287 70.5381 27.0488 69.9404 27.0488C69.665 27.0488 69.4219 27.0312 69.2109 26.9961C69 26.9668 68.8184 26.9316 68.666 26.8906V25.7217C68.7949 25.751 68.9502 25.7773 69.1318 25.8008C69.3193 25.8242 69.5127 25.8359 69.7119 25.8359C70.0752 25.8359 70.3887 25.7656 70.6523 25.625C70.9219 25.4902 71.1533 25.291 71.3467 25.0273C71.54 24.7637 71.707 24.4502 71.8477 24.0869L72.375 22.7334L68.5166 13.083ZM87.1582 22.8916C85.9395 22.8916 84.9727 22.4756 84.2578 21.6436C83.5488 20.8115 83.1943 19.5752 83.1943 17.9346C83.1943 16.2764 83.5576 15.0254 84.2842 14.1816C85.0107 13.332 85.9775 12.9072 87.1846 12.9072C87.6943 12.9072 88.1396 12.9746 88.5205 13.1094C88.9014 13.2441 89.2295 13.4258 89.5049 13.6543C89.7803 13.877 90.0117 14.1318 90.1992 14.4189H90.3047C90.2812 14.2373 90.2578 13.9883 90.2344 13.6719C90.2109 13.3555 90.1992 13.0977 90.1992 12.8984V9.04004H91.6582V22.7158H90.4805L90.2607 21.3447H90.1992C90.0176 21.6318 89.7861 21.8926 89.5049 22.127C89.2295 22.3613 88.8984 22.5488 88.5117 22.6895C88.1309 22.8242 87.6797 22.8916 87.1582 22.8916ZM87.3867 21.6787C88.418 21.6787 89.1475 21.3857 89.5752 20.7998C90.0029 20.2139 90.2168 19.3438 90.2168 18.1895V17.9258C90.2168 16.7012 90.0117 15.7607 89.6016 15.1045C89.1973 14.4482 88.459 14.1201 87.3867 14.1201C86.4902 14.1201 85.8193 14.4658 85.374 15.1572C84.9287 15.8428 84.7061 16.7803 84.7061 17.9697C84.7061 19.1533 84.9258 20.0674 85.3652 20.7119C85.8105 21.3564 86.4844 21.6787 87.3867 21.6787ZM102.706 13.083V22.7158H101.511L101.3 21.3623H101.221C101.021 21.6963 100.764 21.9775 100.447 22.2061C100.131 22.4346 99.7734 22.6045 99.375 22.7158C98.9824 22.833 98.5635 22.8916 98.1182 22.8916C97.3564 22.8916 96.7178 22.7686 96.2021 22.5225C95.6865 22.2764 95.2969 21.8955 95.0332 21.3799C94.7754 20.8643 94.6465 20.2021 94.6465 19.3936V13.083H96.123V19.2881C96.123 20.0908 96.3047 20.6914 96.668 21.0898C97.0312 21.4824 97.585 21.6787 98.3291 21.6787C99.0439 21.6787 99.6123 21.5439 100.034 21.2744C100.462 21.0049 100.77 20.6094 100.957 20.0879C101.145 19.5605 101.238 18.916 101.238 18.1543V13.083H102.706ZM116.25 12.9072C117.311 12.9072 118.11 13.1855 118.649 13.7422C119.188 14.293 119.458 15.1807 119.458 16.4053V22.7158H118.017V16.4756C118.017 15.6963 117.847 15.1133 117.507 14.7266C117.173 14.334 116.675 14.1377 116.013 14.1377C115.081 14.1377 114.404 14.4072 113.982 14.9463C113.561 15.4854 113.35 16.2793 113.35 17.3281V22.7158H111.899V16.4756C111.899 15.9541 111.823 15.5205 111.671 15.1748C111.524 14.8291 111.302 14.5713 111.003 14.4014C110.71 14.2256 110.338 14.1377 109.887 14.1377C109.248 14.1377 108.735 14.2695 108.349 14.5332C107.962 14.7969 107.681 15.1895 107.505 15.7109C107.335 16.2266 107.25 16.8623 107.25 17.6182V22.7158H105.791V13.083H106.969L107.188 14.4453H107.268C107.461 14.1113 107.704 13.8301 107.997 13.6016C108.29 13.373 108.618 13.2002 108.981 13.083C109.345 12.9658 109.731 12.9072 110.142 12.9072C110.874 12.9072 111.486 13.0449 111.979 13.3203C112.477 13.5898 112.837 14.0029 113.06 14.5596H113.139C113.455 14.0029 113.889 13.5898 114.439 13.3203C114.99 13.0449 115.594 12.9072 116.25 12.9072ZM132.914 12.9072C133.975 12.9072 134.774 13.1855 135.313 13.7422C135.853 14.293 136.122 15.1807 136.122 16.4053V22.7158H134.681V16.4756C134.681 15.6963 134.511 15.1133 134.171 14.7266C133.837 14.334 133.339 14.1377 132.677 14.1377C131.745 14.1377 131.068 14.4072 130.646 14.9463C130.225 15.4854 130.014 16.2793 130.014 17.3281V22.7158H128.563V16.4756C128.563 15.9541 128.487 15.5205 128.335 15.1748C128.188 14.8291 127.966 14.5713 127.667 14.4014C127.374 14.2256 127.002 14.1377 126.551 14.1377C125.912 14.1377 125.399 14.2695 125.013 14.5332C124.626 14.7969 124.345 15.1895 124.169 15.7109C123.999 16.2266 123.914 16.8623 123.914 17.6182V22.7158H122.455V13.083H123.633L123.853 14.4453H123.932C124.125 14.1113 124.368 13.8301 124.661 13.6016C124.954 13.373 125.282 13.2002 125.646 13.083C126.009 12.9658 126.396 12.9072 126.806 12.9072C127.538 12.9072 128.15 13.0449 128.643 13.3203C129.141 13.5898 129.501 14.0029 129.724 14.5596H129.803C130.119 14.0029 130.553 13.5898 131.104 13.3203C131.654 13.0449 132.258 12.9072 132.914 12.9072ZM137.599 13.083H139.163L141.29 18.6729C141.413 19.001 141.527 19.3174 141.633 19.6221C141.738 19.9209 141.832 20.208 141.914 20.4834C141.996 20.7588 142.061 21.0254 142.107 21.2832H142.169C142.251 20.9902 142.368 20.6064 142.521 20.1318C142.673 19.6514 142.837 19.1621 143.013 18.6641L145.025 13.083H146.599L142.406 24.1309C142.184 24.7227 141.923 25.2383 141.624 25.6777C141.331 26.1172 140.974 26.4541 140.552 26.6885C140.13 26.9287 139.62 27.0488 139.022 27.0488C138.747 27.0488 138.504 27.0312 138.293 26.9961C138.082 26.9668 137.9 26.9316 137.748 26.8906V25.7217C137.877 25.751 138.032 25.7773 138.214 25.8008C138.401 25.8242 138.595 25.8359 138.794 25.8359C139.157 25.8359 139.471 25.7656 139.734 25.625C140.004 25.4902 140.235 25.291 140.429 25.0273C140.622 24.7637 140.789 24.4502 140.93 24.0869L141.457 22.7334L137.599 13.083ZM155.924 21.6963C156.164 21.6963 156.41 21.6758 156.662 21.6348C156.914 21.5938 157.119 21.5439 157.277 21.4854V22.6191C157.107 22.6953 156.87 22.7598 156.565 22.8125C156.267 22.8652 155.974 22.8916 155.687 22.8916C155.177 22.8916 154.714 22.8037 154.298 22.6279C153.882 22.4463 153.548 22.1416 153.296 21.7139C153.05 21.2861 152.927 20.6943 152.927 19.9385V14.2256H151.556V13.5137L152.936 12.9424L153.516 10.8506H154.395V13.083H157.216V14.2256H154.395V19.8945C154.395 20.498 154.532 20.9492 154.808 21.248C155.089 21.5469 155.461 21.6963 155.924 21.6963ZM162.938 12.9072C163.758 12.9072 164.461 13.0889 165.047 13.4521C165.633 13.8154 166.081 14.3252 166.392 14.9814C166.702 15.6318 166.857 16.3936 166.857 17.2666V18.1719H160.204C160.222 19.3027 160.503 20.1641 161.048 20.7559C161.593 21.3477 162.36 21.6436 163.351 21.6436C163.96 21.6436 164.499 21.5879 164.968 21.4766C165.437 21.3652 165.923 21.2012 166.427 20.9844V22.2676C165.94 22.4844 165.457 22.6426 164.977 22.7422C164.502 22.8418 163.939 22.8916 163.289 22.8916C162.363 22.8916 161.555 22.7041 160.863 22.3291C160.178 21.9482 159.645 21.3916 159.264 20.6592C158.883 19.9268 158.692 19.0303 158.692 17.9697C158.692 16.9326 158.865 16.0361 159.211 15.2803C159.562 14.5186 160.055 13.9326 160.688 13.5225C161.326 13.1123 162.076 12.9072 162.938 12.9072ZM162.92 14.1025C162.141 14.1025 161.52 14.3574 161.057 14.8672C160.594 15.377 160.318 16.0889 160.23 17.0029H165.328C165.322 16.4287 165.231 15.9248 165.056 15.4912C164.886 15.0518 164.625 14.7119 164.273 14.4717C163.922 14.2256 163.471 14.1025 162.92 14.1025ZM171.63 17.7852L168.299 13.083H169.969L172.509 16.792L175.04 13.083H176.692L173.361 17.7852L176.877 22.7158H175.207L172.509 18.7871L169.793 22.7158H168.141L171.63 17.7852ZM181.869 21.6963C182.109 21.6963 182.355 21.6758 182.607 21.6348C182.859 21.5938 183.064 21.5439 183.223 21.4854V22.6191C183.053 22.6953 182.815 22.7598 182.511 22.8125C182.212 22.8652 181.919 22.8916 181.632 22.8916C181.122 22.8916 180.659 22.8037 180.243 22.6279C179.827 22.4463 179.493 22.1416 179.241 21.7139C178.995 21.2861 178.872 20.6943 178.872 19.9385V14.2256H177.501V13.5137L178.881 12.9424L179.461 10.8506H180.34V13.083H183.161V14.2256H180.34V19.8945C180.34 20.498 180.478 20.9492 180.753 21.248C181.034 21.5469 181.406 21.6963 181.869 21.6963ZM198.155 17.8818C198.155 18.6729 198.053 19.3789 197.848 20C197.643 20.6211 197.347 21.1455 196.96 21.5732C196.573 22.001 196.104 22.3291 195.554 22.5576C195.009 22.7803 194.391 22.8916 193.699 22.8916C193.055 22.8916 192.463 22.7803 191.924 22.5576C191.391 22.3291 190.928 22.001 190.535 21.5732C190.148 21.1455 189.847 20.6211 189.63 20C189.419 19.3789 189.313 18.6729 189.313 17.8818C189.313 16.8271 189.492 15.9307 189.85 15.1924C190.207 14.4482 190.717 13.8828 191.379 13.4961C192.047 13.1035 192.841 12.9072 193.761 12.9072C194.64 12.9072 195.407 13.1035 196.063 13.4961C196.726 13.8887 197.238 14.457 197.602 15.2012C197.971 15.9395 198.155 16.833 198.155 17.8818ZM190.825 17.8818C190.825 18.6553 190.928 19.3262 191.133 19.8945C191.338 20.4629 191.654 20.9023 192.082 21.2129C192.51 21.5234 193.061 21.6787 193.734 21.6787C194.402 21.6787 194.95 21.5234 195.378 21.2129C195.812 20.9023 196.131 20.4629 196.336 19.8945C196.541 19.3262 196.644 18.6553 196.644 17.8818C196.644 17.1143 196.541 16.4521 196.336 15.8955C196.131 15.333 195.814 14.8994 195.387 14.5947C194.959 14.29 194.405 14.1377 193.726 14.1377C192.724 14.1377 191.988 14.4688 191.52 15.1309C191.057 15.793 190.825 16.71 190.825 17.8818ZM204.967 14.2256H202.567V22.7158H201.108V14.2256H199.403V13.5225L201.108 13.0391V12.3975C201.108 11.5889 201.229 10.9326 201.469 10.4287C201.709 9.91895 202.058 9.54395 202.515 9.30371C202.972 9.06348 203.528 8.94336 204.185 8.94336C204.554 8.94336 204.891 8.97559 205.195 9.04004C205.506 9.10449 205.778 9.17773 206.013 9.25977L205.635 10.4111C205.436 10.3467 205.21 10.2881 204.958 10.2354C204.712 10.1768 204.46 10.1475 204.202 10.1475C203.646 10.1475 203.232 10.3291 202.963 10.6924C202.699 11.0498 202.567 11.6123 202.567 12.3799V13.083H204.967V14.2256ZM214.529 21.6963C214.77 21.6963 215.016 21.6758 215.268 21.6348C215.52 21.5938 215.725 21.5439 215.883 21.4854V22.6191C215.713 22.6953 215.476 22.7598 215.171 22.8125C214.872 22.8652 214.579 22.8916 214.292 22.8916C213.782 22.8916 213.319 22.8037 212.903 22.6279C212.487 22.4463 212.153 22.1416 211.901 21.7139C211.655 21.2861 211.532 20.6943 211.532 19.9385V14.2256H210.161V13.5137L211.541 12.9424L212.121 10.8506H213V13.083H215.821V14.2256H213V19.8945C213 20.498 213.138 20.9492 213.413 21.248C213.694 21.5469 214.066 21.6963 214.529 21.6963ZM219.293 9.04004V13.127C219.293 13.3613 219.287 13.5986 219.275 13.8389C219.264 14.0732 219.243 14.29 219.214 14.4893H219.311C219.51 14.1494 219.762 13.8652 220.066 13.6367C220.377 13.4023 220.729 13.2266 221.121 13.1094C221.514 12.9863 221.93 12.9248 222.369 12.9248C223.143 12.9248 223.787 13.0479 224.303 13.2939C224.824 13.54 225.214 13.9209 225.472 14.4365C225.735 14.9521 225.867 15.6201 225.867 16.4404V22.7158H224.426V16.5371C224.426 15.7344 224.241 15.1338 223.872 14.7354C223.509 14.3369 222.949 14.1377 222.193 14.1377C221.479 14.1377 220.907 14.2754 220.479 14.5508C220.058 14.8203 219.753 15.2188 219.565 15.7461C219.384 16.2734 219.293 16.918 219.293 17.6797V22.7158H217.834V9.04004H219.293ZM232.582 12.9072C233.402 12.9072 234.105 13.0889 234.691 13.4521C235.277 13.8154 235.726 14.3252 236.036 14.9814C236.347 15.6318 236.502 16.3936 236.502 17.2666V18.1719H229.849C229.866 19.3027 230.147 20.1641 230.692 20.7559C231.237 21.3477 232.005 21.6436 232.995 21.6436C233.604 21.6436 234.144 21.5879 234.612 21.4766C235.081 21.3652 235.567 21.2012 236.071 20.9844V22.2676C235.585 22.4844 235.102 22.6426 234.621 22.7422C234.146 22.8418 233.584 22.8916 232.934 22.8916C232.008 22.8916 231.199 22.7041 230.508 22.3291C229.822 21.9482 229.289 21.3916 228.908 20.6592C228.527 19.9268 228.337 19.0303 228.337 17.9697C228.337 16.9326 228.51 16.0361 228.855 15.2803C229.207 14.5186 229.699 13.9326 230.332 13.5225C230.971 13.1123 231.721 12.9072 232.582 12.9072ZM232.564 14.1025C231.785 14.1025 231.164 14.3574 230.701 14.8672C230.238 15.377 229.963 16.0889 229.875 17.0029H234.973C234.967 16.4287 234.876 15.9248 234.7 15.4912C234.53 15.0518 234.27 14.7119 233.918 14.4717C233.566 14.2256 233.115 14.1025 232.564 14.1025ZM248.183 12.9072C249.384 12.9072 250.342 13.3203 251.057 14.1465C251.771 14.9727 252.129 16.2148 252.129 17.873C252.129 18.9688 251.965 19.8887 251.637 20.6328C251.309 21.377 250.846 21.9395 250.248 22.3203C249.656 22.7012 248.956 22.8916 248.147 22.8916C247.638 22.8916 247.189 22.8242 246.803 22.6895C246.416 22.5547 246.085 22.373 245.81 22.1445C245.534 21.916 245.306 21.667 245.124 21.3975H245.019C245.036 21.626 245.057 21.9014 245.08 22.2236C245.109 22.5459 245.124 22.8271 245.124 23.0674V27.0225H243.656V13.083H244.86L245.054 14.5068H245.124C245.312 14.2139 245.54 13.9473 245.81 13.707C246.079 13.4609 246.407 13.2676 246.794 13.127C247.187 12.9805 247.649 12.9072 248.183 12.9072ZM247.928 14.1377C247.26 14.1377 246.721 14.2666 246.311 14.5244C245.906 14.7822 245.61 15.1689 245.423 15.6846C245.235 16.1943 245.136 16.8359 245.124 17.6094V17.8906C245.124 18.7051 245.212 19.3936 245.388 19.9561C245.569 20.5186 245.865 20.9463 246.275 21.2393C246.691 21.5322 247.248 21.6787 247.945 21.6787C248.543 21.6787 249.041 21.5176 249.439 21.1953C249.838 20.873 250.134 20.4248 250.327 19.8506C250.526 19.2705 250.626 18.6055 250.626 17.8555C250.626 16.7188 250.403 15.8164 249.958 15.1484C249.519 14.4746 248.842 14.1377 247.928 14.1377ZM259.055 12.9072C259.248 12.9072 259.45 12.9189 259.661 12.9424C259.872 12.96 260.06 12.9863 260.224 13.0215L260.039 14.375C259.881 14.334 259.705 14.3018 259.512 14.2783C259.318 14.2549 259.137 14.2432 258.967 14.2432C258.58 14.2432 258.214 14.3223 257.868 14.4805C257.528 14.6328 257.229 14.8555 256.972 15.1484C256.714 15.4355 256.512 15.7842 256.365 16.1943C256.219 16.5986 256.146 17.0498 256.146 17.5479V22.7158H254.678V13.083H255.891L256.049 14.8584H256.11C256.31 14.501 256.55 14.1758 256.831 13.8828C257.112 13.584 257.438 13.3467 257.807 13.1709C258.182 12.9951 258.598 12.9072 259.055 12.9072ZM263.502 13.083V22.7158H262.043V13.083H263.502ZM262.79 9.47949C263.03 9.47949 263.235 9.55859 263.405 9.7168C263.581 9.86914 263.669 10.1094 263.669 10.4375C263.669 10.7598 263.581 11 263.405 11.1582C263.235 11.3164 263.03 11.3955 262.79 11.3955C262.538 11.3955 262.327 11.3164 262.157 11.1582C261.993 11 261.911 10.7598 261.911 10.4375C261.911 10.1094 261.993 9.86914 262.157 9.7168C262.327 9.55859 262.538 9.47949 262.79 9.47949ZM271.157 12.9072C272.3 12.9072 273.164 13.1885 273.75 13.751C274.336 14.3076 274.629 15.2041 274.629 16.4404V22.7158H273.188V16.5371C273.188 15.7344 273.003 15.1338 272.634 14.7354C272.271 14.3369 271.711 14.1377 270.955 14.1377C269.889 14.1377 269.139 14.4395 268.705 15.043C268.271 15.6465 268.055 16.5225 268.055 17.6709V22.7158H266.596V13.083H267.773L267.993 14.4717H268.072C268.277 14.1318 268.538 13.8477 268.854 13.6191C269.171 13.3848 269.525 13.209 269.918 13.0918C270.311 12.9688 270.724 12.9072 271.157 12.9072ZM280.746 21.6963C280.986 21.6963 281.232 21.6758 281.484 21.6348C281.736 21.5938 281.941 21.5439 282.1 21.4854V22.6191C281.93 22.6953 281.692 22.7598 281.388 22.8125C281.089 22.8652 280.796 22.8916 280.509 22.8916C279.999 22.8916 279.536 22.8037 279.12 22.6279C278.704 22.4463 278.37 22.1416 278.118 21.7139C277.872 21.2861 277.749 20.6943 277.749 19.9385V14.2256H276.378V13.5137L277.758 12.9424L278.338 10.8506H279.217V13.083H282.038V14.2256H279.217V19.8945C279.217 20.498 279.354 20.9492 279.63 21.248C279.911 21.5469 280.283 21.6963 280.746 21.6963ZM285.51 13.083V22.7158H284.051V13.083H285.51ZM284.798 9.47949C285.038 9.47949 285.243 9.55859 285.413 9.7168C285.589 9.86914 285.677 10.1094 285.677 10.4375C285.677 10.7598 285.589 11 285.413 11.1582C285.243 11.3164 285.038 11.3955 284.798 11.3955C284.546 11.3955 284.335 11.3164 284.165 11.1582C284.001 11 283.919 10.7598 283.919 10.4375C283.919 10.1094 284.001 9.86914 284.165 9.7168C284.335 9.55859 284.546 9.47949 284.798 9.47949ZM293.165 12.9072C294.308 12.9072 295.172 13.1885 295.758 13.751C296.344 14.3076 296.637 15.2041 296.637 16.4404V22.7158H295.195V16.5371C295.195 15.7344 295.011 15.1338 294.642 14.7354C294.278 14.3369 293.719 14.1377 292.963 14.1377C291.896 14.1377 291.146 14.4395 290.713 15.043C290.279 15.6465 290.062 16.5225 290.062 17.6709V22.7158H288.604V13.083H289.781L290.001 14.4717H290.08C290.285 14.1318 290.546 13.8477 290.862 13.6191C291.179 13.3848 291.533 13.209 291.926 13.0918C292.318 12.9688 292.731 12.9072 293.165 12.9072ZM302.332 27.04C301.066 27.04 300.091 26.8027 299.405 26.3281C298.72 25.8594 298.377 25.2002 298.377 24.3506C298.377 23.7471 298.567 23.2314 298.948 22.8037C299.335 22.376 299.868 22.0918 300.548 21.9512C300.296 21.834 300.079 21.6582 299.897 21.4238C299.722 21.1895 299.634 20.9199 299.634 20.6152C299.634 20.2637 299.73 19.9561 299.924 19.6924C300.123 19.4229 300.425 19.165 300.829 18.9189C300.325 18.7139 299.915 18.3682 299.599 17.8818C299.288 17.3896 299.133 16.8184 299.133 16.168C299.133 15.4766 299.276 14.8877 299.563 14.4014C299.851 13.9092 300.267 13.5342 300.812 13.2764C301.356 13.0186 302.016 12.8896 302.789 12.8896C302.959 12.8896 303.129 12.8984 303.299 12.916C303.475 12.9277 303.642 12.9482 303.8 12.9775C303.958 13.001 304.096 13.0303 304.213 13.0654H307.518V14.0059L305.742 14.2256C305.918 14.4541 306.064 14.7295 306.182 15.0518C306.299 15.374 306.357 15.7314 306.357 16.124C306.357 17.085 306.032 17.8496 305.382 18.418C304.731 18.9805 303.838 19.2617 302.701 19.2617C302.432 19.2617 302.156 19.2383 301.875 19.1914C301.588 19.3496 301.368 19.5254 301.216 19.7188C301.069 19.9121 300.996 20.1348 300.996 20.3867C300.996 20.5742 301.052 20.7236 301.163 20.835C301.28 20.9463 301.447 21.0283 301.664 21.0811C301.881 21.1279 302.142 21.1514 302.446 21.1514H304.143C305.191 21.1514 305.994 21.3711 306.551 21.8105C307.113 22.25 307.395 22.8916 307.395 23.7354C307.395 24.8018 306.961 25.6191 306.094 26.1875C305.227 26.7559 303.973 27.04 302.332 27.04ZM302.376 25.8975C303.173 25.8975 303.832 25.8154 304.354 25.6514C304.881 25.4932 305.273 25.2617 305.531 24.957C305.795 24.6582 305.927 24.3008 305.927 23.8848C305.927 23.498 305.839 23.2051 305.663 23.0059C305.487 22.8125 305.229 22.6836 304.89 22.6191C304.55 22.5488 304.134 22.5137 303.642 22.5137H301.972C301.538 22.5137 301.16 22.5811 300.838 22.7158C300.516 22.8506 300.267 23.0498 300.091 23.3135C299.921 23.5771 299.836 23.9053 299.836 24.2979C299.836 24.8193 300.056 25.2148 300.495 25.4844C300.935 25.7598 301.562 25.8975 302.376 25.8975ZM302.754 18.1982C303.451 18.1982 303.976 18.0225 304.327 17.6709C304.679 17.3193 304.854 16.8066 304.854 16.1328C304.854 15.4121 304.676 14.873 304.318 14.5156C303.961 14.1523 303.434 13.9707 302.736 13.9707C302.068 13.9707 301.553 14.1582 301.189 14.5332C300.832 14.9023 300.653 15.4443 300.653 16.1592C300.653 16.8154 300.835 17.3193 301.198 17.6709C301.562 18.0225 302.08 18.1982 302.754 18.1982ZM317.695 12.9248C318.844 12.9248 319.696 13.1826 320.253 13.6982C320.81 14.2139 321.088 15.0371 321.088 16.168V22.7158H320.024L319.743 21.292H319.673C319.403 21.6436 319.122 21.9395 318.829 22.1797C318.536 22.4141 318.196 22.5928 317.81 22.7158C317.429 22.833 316.96 22.8916 316.403 22.8916C315.817 22.8916 315.296 22.7891 314.839 22.584C314.388 22.3789 314.03 22.0684 313.767 21.6523C313.509 21.2363 313.38 20.709 313.38 20.0703C313.38 19.1094 313.761 18.3711 314.522 17.8555C315.284 17.3398 316.444 17.0586 318.003 17.0117L319.664 16.9414V16.3525C319.664 15.5205 319.485 14.9375 319.128 14.6035C318.771 14.2695 318.267 14.1025 317.616 14.1025C317.112 14.1025 316.632 14.1758 316.175 14.3223C315.718 14.4688 315.284 14.6416 314.874 14.8408L314.426 13.7334C314.859 13.5107 315.357 13.3203 315.92 13.1621C316.482 13.0039 317.074 12.9248 317.695 12.9248ZM319.646 17.9697L318.179 18.0312C316.978 18.0781 316.131 18.2744 315.639 18.6201C315.146 18.9658 314.9 19.4551 314.9 20.0879C314.9 20.6387 315.067 21.0459 315.401 21.3096C315.735 21.5732 316.178 21.7051 316.729 21.7051C317.584 21.7051 318.284 21.4678 318.829 20.9932C319.374 20.5186 319.646 19.8066 319.646 18.8574V17.9697ZM328.655 12.9072C329.798 12.9072 330.662 13.1885 331.248 13.751C331.834 14.3076 332.127 15.2041 332.127 16.4404V22.7158H330.686V16.5371C330.686 15.7344 330.501 15.1338 330.132 14.7354C329.769 14.3369 329.209 14.1377 328.453 14.1377C327.387 14.1377 326.637 14.4395 326.203 15.043C325.77 15.6465 325.553 16.5225 325.553 17.6709V22.7158H324.094V13.083H325.271L325.491 14.4717H325.57C325.775 14.1318 326.036 13.8477 326.353 13.6191C326.669 13.3848 327.023 13.209 327.416 13.0918C327.809 12.9688 328.222 12.9072 328.655 12.9072ZM338.561 22.8916C337.342 22.8916 336.375 22.4756 335.66 21.6436C334.951 20.8115 334.597 19.5752 334.597 17.9346C334.597 16.2764 334.96 15.0254 335.687 14.1816C336.413 13.332 337.38 12.9072 338.587 12.9072C339.097 12.9072 339.542 12.9746 339.923 13.1094C340.304 13.2441 340.632 13.4258 340.907 13.6543C341.183 13.877 341.414 14.1318 341.602 14.4189H341.707C341.684 14.2373 341.66 13.9883 341.637 13.6719C341.613 13.3555 341.602 13.0977 341.602 12.8984V9.04004H343.061V22.7158H341.883L341.663 21.3447H341.602C341.42 21.6318 341.188 21.8926 340.907 22.127C340.632 22.3613 340.301 22.5488 339.914 22.6895C339.533 22.8242 339.082 22.8916 338.561 22.8916ZM338.789 21.6787C339.82 21.6787 340.55 21.3857 340.978 20.7998C341.405 20.2139 341.619 19.3438 341.619 18.1895V17.9258C341.619 16.7012 341.414 15.7607 341.004 15.1045C340.6 14.4482 339.861 14.1201 338.789 14.1201C337.893 14.1201 337.222 14.4658 336.776 15.1572C336.331 15.8428 336.108 16.7803 336.108 17.9697C336.108 19.1533 336.328 20.0674 336.768 20.7119C337.213 21.3564 337.887 21.6787 338.789 21.6787ZM353.941 21.6963C354.182 21.6963 354.428 21.6758 354.68 21.6348C354.932 21.5938 355.137 21.5439 355.295 21.4854V22.6191C355.125 22.6953 354.888 22.7598 354.583 22.8125C354.284 22.8652 353.991 22.8916 353.704 22.8916C353.194 22.8916 352.731 22.8037 352.315 22.6279C351.899 22.4463 351.565 22.1416 351.313 21.7139C351.067 21.2861 350.944 20.6943 350.944 19.9385V14.2256H349.573V13.5137L350.953 12.9424L351.533 10.8506H352.412V13.083H355.233V14.2256H352.412V19.8945C352.412 20.498 352.55 20.9492 352.825 21.248C353.106 21.5469 353.479 21.6963 353.941 21.6963ZM355.726 13.083H357.29L359.417 18.6729C359.54 19.001 359.654 19.3174 359.76 19.6221C359.865 19.9209 359.959 20.208 360.041 20.4834C360.123 20.7588 360.188 21.0254 360.234 21.2832H360.296C360.378 20.9902 360.495 20.6064 360.647 20.1318C360.8 19.6514 360.964 19.1621 361.14 18.6641L363.152 13.083H364.726L360.533 24.1309C360.311 24.7227 360.05 25.2383 359.751 25.6777C359.458 26.1172 359.101 26.4541 358.679 26.6885C358.257 26.9287 357.747 27.0488 357.149 27.0488C356.874 27.0488 356.631 27.0312 356.42 26.9961C356.209 26.9668 356.027 26.9316 355.875 26.8906V25.7217C356.004 25.751 356.159 25.7773 356.341 25.8008C356.528 25.8242 356.722 25.8359 356.921 25.8359C357.284 25.8359 357.598 25.7656 357.861 25.625C358.131 25.4902 358.362 25.291 358.556 25.0273C358.749 24.7637 358.916 24.4502 359.057 24.0869L359.584 22.7334L355.726 13.083ZM370.79 12.9072C371.991 12.9072 372.949 13.3203 373.664 14.1465C374.379 14.9727 374.736 16.2148 374.736 17.873C374.736 18.9688 374.572 19.8887 374.244 20.6328C373.916 21.377 373.453 21.9395 372.855 22.3203C372.264 22.7012 371.563 22.8916 370.755 22.8916C370.245 22.8916 369.797 22.8242 369.41 22.6895C369.023 22.5547 368.692 22.373 368.417 22.1445C368.142 21.916 367.913 21.667 367.731 21.3975H367.626C367.644 21.626 367.664 21.9014 367.688 22.2236C367.717 22.5459 367.731 22.8271 367.731 23.0674V27.0225H366.264V13.083H367.468L367.661 14.5068H367.731C367.919 14.2139 368.147 13.9473 368.417 13.707C368.687 13.4609 369.015 13.2676 369.401 13.127C369.794 12.9805 370.257 12.9072 370.79 12.9072ZM370.535 14.1377C369.867 14.1377 369.328 14.2666 368.918 14.5244C368.514 14.7822 368.218 15.1689 368.03 15.6846C367.843 16.1943 367.743 16.8359 367.731 17.6094V17.8906C367.731 18.7051 367.819 19.3936 367.995 19.9561C368.177 20.5186 368.473 20.9463 368.883 21.2393C369.299 21.5322 369.855 21.6787 370.553 21.6787C371.15 21.6787 371.648 21.5176 372.047 21.1953C372.445 20.873 372.741 20.4248 372.935 19.8506C373.134 19.2705 373.233 18.6055 373.233 17.8555C373.233 16.7188 373.011 15.8164 372.565 15.1484C372.126 14.4746 371.449 14.1377 370.535 14.1377ZM380.994 12.9072C381.814 12.9072 382.518 13.0889 383.104 13.4521C383.689 13.8154 384.138 14.3252 384.448 14.9814C384.759 15.6318 384.914 16.3936 384.914 17.2666V18.1719H378.261C378.278 19.3027 378.56 20.1641 379.104 20.7559C379.649 21.3477 380.417 21.6436 381.407 21.6436C382.017 21.6436 382.556 21.5879 383.024 21.4766C383.493 21.3652 383.979 21.2012 384.483 20.9844V22.2676C383.997 22.4844 383.514 22.6426 383.033 22.7422C382.559 22.8418 381.996 22.8916 381.346 22.8916C380.42 22.8916 379.611 22.7041 378.92 22.3291C378.234 21.9482 377.701 21.3916 377.32 20.6592C376.939 19.9268 376.749 19.0303 376.749 17.9697C376.749 16.9326 376.922 16.0361 377.268 15.2803C377.619 14.5186 378.111 13.9326 378.744 13.5225C379.383 13.1123 380.133 12.9072 380.994 12.9072ZM380.977 14.1025C380.197 14.1025 379.576 14.3574 379.113 14.8672C378.65 15.377 378.375 16.0889 378.287 17.0029H383.385C383.379 16.4287 383.288 15.9248 383.112 15.4912C382.942 15.0518 382.682 14.7119 382.33 14.4717C381.979 14.2256 381.527 14.1025 380.977 14.1025ZM393.624 20.0791C393.624 20.6943 393.469 21.2129 393.158 21.6348C392.854 22.0508 392.414 22.3643 391.84 22.5752C391.271 22.7861 390.592 22.8916 389.801 22.8916C389.127 22.8916 388.544 22.8389 388.052 22.7334C387.56 22.6279 387.129 22.4785 386.76 22.2852V20.9404C387.152 21.1338 387.621 21.3096 388.166 21.4678C388.711 21.626 389.268 21.7051 389.836 21.7051C390.668 21.7051 391.271 21.5703 391.646 21.3008C392.021 21.0312 392.209 20.665 392.209 20.2021C392.209 19.9385 392.133 19.707 391.98 19.5078C391.834 19.3027 391.585 19.1064 391.233 18.9189C390.882 18.7256 390.396 18.5146 389.774 18.2861C389.159 18.0518 388.626 17.8203 388.175 17.5918C387.729 17.3574 387.384 17.0732 387.138 16.7393C386.897 16.4053 386.777 15.9717 386.777 15.4385C386.777 14.624 387.105 14 387.762 13.5664C388.424 13.127 389.291 12.9072 390.363 12.9072C390.943 12.9072 391.485 12.9658 391.989 13.083C392.499 13.1943 392.974 13.3467 393.413 13.54L392.921 14.709C392.522 14.5391 392.098 14.3955 391.646 14.2783C391.195 14.1611 390.735 14.1025 390.267 14.1025C389.593 14.1025 389.074 14.2139 388.711 14.4365C388.354 14.6592 388.175 14.9639 388.175 15.3506C388.175 15.6494 388.257 15.8955 388.421 16.0889C388.591 16.2822 388.86 16.4639 389.229 16.6338C389.599 16.8037 390.085 17.0029 390.688 17.2314C391.292 17.4541 391.813 17.6855 392.253 17.9258C392.692 18.1602 393.029 18.4473 393.264 18.7871C393.504 19.1211 393.624 19.5518 393.624 20.0791ZM399.68 12.9072C400.5 12.9072 401.203 13.0889 401.789 13.4521C402.375 13.8154 402.823 14.3252 403.134 14.9814C403.444 15.6318 403.6 16.3936 403.6 17.2666V18.1719H396.946C396.964 19.3027 397.245 20.1641 397.79 20.7559C398.335 21.3477 399.103 21.6436 400.093 21.6436C400.702 21.6436 401.241 21.5879 401.71 21.4766C402.179 21.3652 402.665 21.2012 403.169 20.9844V22.2676C402.683 22.4844 402.199 22.6426 401.719 22.7422C401.244 22.8418 400.682 22.8916 400.031 22.8916C399.105 22.8916 398.297 22.7041 397.605 22.3291C396.92 21.9482 396.387 21.3916 396.006 20.6592C395.625 19.9268 395.435 19.0303 395.435 17.9697C395.435 16.9326 395.607 16.0361 395.953 15.2803C396.305 14.5186 396.797 13.9326 397.43 13.5225C398.068 13.1123 398.818 12.9072 399.68 12.9072ZM399.662 14.1025C398.883 14.1025 398.262 14.3574 397.799 14.8672C397.336 15.377 397.061 16.0889 396.973 17.0029H402.07C402.064 16.4287 401.974 15.9248 401.798 15.4912C401.628 15.0518 401.367 14.7119 401.016 14.4717C400.664 14.2256 400.213 14.1025 399.662 14.1025ZM409.189 21.6963C409.43 21.6963 409.676 21.6758 409.928 21.6348C410.18 21.5938 410.385 21.5439 410.543 21.4854V22.6191C410.373 22.6953 410.136 22.7598 409.831 22.8125C409.532 22.8652 409.239 22.8916 408.952 22.8916C408.442 22.8916 407.979 22.8037 407.563 22.6279C407.147 22.4463 406.813 22.1416 406.562 21.7139C406.315 21.2861 406.192 20.6943 406.192 19.9385V14.2256H404.821V13.5137L406.201 12.9424L406.781 10.8506H407.66V13.083H410.481V14.2256H407.66V19.8945C407.66 20.498 407.798 20.9492 408.073 21.248C408.354 21.5469 408.727 21.6963 409.189 21.6963ZM415.605 21.6963C415.846 21.6963 416.092 21.6758 416.344 21.6348C416.596 21.5938 416.801 21.5439 416.959 21.4854V22.6191C416.789 22.6953 416.552 22.7598 416.247 22.8125C415.948 22.8652 415.655 22.8916 415.368 22.8916C414.858 22.8916 414.396 22.8037 413.979 22.6279C413.563 22.4463 413.229 22.1416 412.978 21.7139C412.731 21.2861 412.608 20.6943 412.608 19.9385V14.2256H411.237V13.5137L412.617 12.9424L413.197 10.8506H414.076V13.083H416.897V14.2256H414.076V19.8945C414.076 20.498 414.214 20.9492 414.489 21.248C414.771 21.5469 415.143 21.6963 415.605 21.6963ZM420.369 13.083V22.7158H418.91V13.083H420.369ZM419.657 9.47949C419.897 9.47949 420.103 9.55859 420.272 9.7168C420.448 9.86914 420.536 10.1094 420.536 10.4375C420.536 10.7598 420.448 11 420.272 11.1582C420.103 11.3164 419.897 11.3955 419.657 11.3955C419.405 11.3955 419.194 11.3164 419.024 11.1582C418.86 11 418.778 10.7598 418.778 10.4375C418.778 10.1094 418.86 9.86914 419.024 9.7168C419.194 9.55859 419.405 9.47949 419.657 9.47949ZM428.024 12.9072C429.167 12.9072 430.031 13.1885 430.617 13.751C431.203 14.3076 431.496 15.2041 431.496 16.4404V22.7158H430.055V16.5371C430.055 15.7344 429.87 15.1338 429.501 14.7354C429.138 14.3369 428.578 14.1377 427.822 14.1377C426.756 14.1377 426.006 14.4395 425.572 15.043C425.139 15.6465 424.922 16.5225 424.922 17.6709V22.7158H423.463V13.083H424.641L424.86 14.4717H424.939C425.145 14.1318 425.405 13.8477 425.722 13.6191C426.038 13.3848 426.393 13.209 426.785 13.0918C427.178 12.9688 427.591 12.9072 428.024 12.9072ZM437.191 27.04C435.926 27.04 434.95 26.8027 434.265 26.3281C433.579 25.8594 433.236 25.2002 433.236 24.3506C433.236 23.7471 433.427 23.2314 433.808 22.8037C434.194 22.376 434.728 22.0918 435.407 21.9512C435.155 21.834 434.938 21.6582 434.757 21.4238C434.581 21.1895 434.493 20.9199 434.493 20.6152C434.493 20.2637 434.59 19.9561 434.783 19.6924C434.982 19.4229 435.284 19.165 435.688 18.9189C435.185 18.7139 434.774 18.3682 434.458 17.8818C434.147 17.3896 433.992 16.8184 433.992 16.168C433.992 15.4766 434.136 14.8877 434.423 14.4014C434.71 13.9092 435.126 13.5342 435.671 13.2764C436.216 13.0186 436.875 12.8896 437.648 12.8896C437.818 12.8896 437.988 12.8984 438.158 12.916C438.334 12.9277 438.501 12.9482 438.659 12.9775C438.817 13.001 438.955 13.0303 439.072 13.0654H442.377V14.0059L440.602 14.2256C440.777 14.4541 440.924 14.7295 441.041 15.0518C441.158 15.374 441.217 15.7314 441.217 16.124C441.217 17.085 440.892 17.8496 440.241 18.418C439.591 18.9805 438.697 19.2617 437.561 19.2617C437.291 19.2617 437.016 19.2383 436.734 19.1914C436.447 19.3496 436.228 19.5254 436.075 19.7188C435.929 19.9121 435.855 20.1348 435.855 20.3867C435.855 20.5742 435.911 20.7236 436.022 20.835C436.14 20.9463 436.307 21.0283 436.523 21.0811C436.74 21.1279 437.001 21.1514 437.306 21.1514H439.002C440.051 21.1514 440.854 21.3711 441.41 21.8105C441.973 22.25 442.254 22.8916 442.254 23.7354C442.254 24.8018 441.82 25.6191 440.953 26.1875C440.086 26.7559 438.832 27.04 437.191 27.04ZM437.235 25.8975C438.032 25.8975 438.691 25.8154 439.213 25.6514C439.74 25.4932 440.133 25.2617 440.391 24.957C440.654 24.6582 440.786 24.3008 440.786 23.8848C440.786 23.498 440.698 23.2051 440.522 23.0059C440.347 22.8125 440.089 22.6836 439.749 22.6191C439.409 22.5488 438.993 22.5137 438.501 22.5137H436.831C436.397 22.5137 436.02 22.5811 435.697 22.7158C435.375 22.8506 435.126 23.0498 434.95 23.3135C434.78 23.5771 434.695 23.9053 434.695 24.2979C434.695 24.8193 434.915 25.2148 435.354 25.4844C435.794 25.7598 436.421 25.8975 437.235 25.8975ZM437.613 18.1982C438.311 18.1982 438.835 18.0225 439.187 17.6709C439.538 17.3193 439.714 16.8066 439.714 16.1328C439.714 15.4121 439.535 14.873 439.178 14.5156C438.82 14.1523 438.293 13.9707 437.596 13.9707C436.928 13.9707 436.412 14.1582 436.049 14.5332C435.691 14.9023 435.513 15.4443 435.513 16.1592C435.513 16.8154 435.694 17.3193 436.058 17.6709C436.421 18.0225 436.939 18.1982 437.613 18.1982ZM450.41 13.083V22.7158H448.951V13.083H450.41ZM449.698 9.47949C449.938 9.47949 450.144 9.55859 450.313 9.7168C450.489 9.86914 450.577 10.1094 450.577 10.4375C450.577 10.7598 450.489 11 450.313 11.1582C450.144 11.3164 449.938 11.3955 449.698 11.3955C449.446 11.3955 449.235 11.3164 449.065 11.1582C448.901 11 448.819 10.7598 448.819 10.4375C448.819 10.1094 448.901 9.86914 449.065 9.7168C449.235 9.55859 449.446 9.47949 449.698 9.47949ZM458.065 12.9072C459.208 12.9072 460.072 13.1885 460.658 13.751C461.244 14.3076 461.537 15.2041 461.537 16.4404V22.7158H460.096V16.5371C460.096 15.7344 459.911 15.1338 459.542 14.7354C459.179 14.3369 458.619 14.1377 457.863 14.1377C456.797 14.1377 456.047 14.4395 455.613 15.043C455.18 15.6465 454.963 16.5225 454.963 17.6709V22.7158H453.504V13.083H454.682L454.901 14.4717H454.98C455.186 14.1318 455.446 13.8477 455.763 13.6191C456.079 13.3848 456.434 13.209 456.826 13.0918C457.219 12.9688 457.632 12.9072 458.065 12.9072ZM467.971 22.8916C466.752 22.8916 465.785 22.4756 465.07 21.6436C464.361 20.8115 464.007 19.5752 464.007 17.9346C464.007 16.2764 464.37 15.0254 465.097 14.1816C465.823 13.332 466.79 12.9072 467.997 12.9072C468.507 12.9072 468.952 12.9746 469.333 13.1094C469.714 13.2441 470.042 13.4258 470.317 13.6543C470.593 13.877 470.824 14.1318 471.012 14.4189H471.117C471.094 14.2373 471.07 13.9883 471.047 13.6719C471.023 13.3555 471.012 13.0977 471.012 12.8984V9.04004H472.471V22.7158H471.293L471.073 21.3447H471.012C470.83 21.6318 470.599 21.8926 470.317 22.127C470.042 22.3613 469.711 22.5488 469.324 22.6895C468.943 22.8242 468.492 22.8916 467.971 22.8916ZM468.199 21.6787C469.23 21.6787 469.96 21.3857 470.388 20.7998C470.815 20.2139 471.029 19.3438 471.029 18.1895V17.9258C471.029 16.7012 470.824 15.7607 470.414 15.1045C470.01 14.4482 469.271 14.1201 468.199 14.1201C467.303 14.1201 466.632 14.4658 466.187 15.1572C465.741 15.8428 465.519 16.7803 465.519 17.9697C465.519 19.1533 465.738 20.0674 466.178 20.7119C466.623 21.3564 467.297 21.6787 468.199 21.6787ZM483.519 13.083V22.7158H482.323L482.112 21.3623H482.033C481.834 21.6963 481.576 21.9775 481.26 22.2061C480.943 22.4346 480.586 22.6045 480.188 22.7158C479.795 22.833 479.376 22.8916 478.931 22.8916C478.169 22.8916 477.53 22.7686 477.015 22.5225C476.499 22.2764 476.109 21.8955 475.846 21.3799C475.588 20.8643 475.459 20.2021 475.459 19.3936V13.083H476.936V19.2881C476.936 20.0908 477.117 20.6914 477.48 21.0898C477.844 21.4824 478.397 21.6787 479.142 21.6787C479.856 21.6787 480.425 21.5439 480.847 21.2744C481.274 21.0049 481.582 20.6094 481.77 20.0879C481.957 19.5605 482.051 18.916 482.051 18.1543V13.083H483.519ZM492.835 20.0791C492.835 20.6943 492.68 21.2129 492.369 21.6348C492.064 22.0508 491.625 22.3643 491.051 22.5752C490.482 22.7861 489.803 22.8916 489.012 22.8916C488.338 22.8916 487.755 22.8389 487.263 22.7334C486.771 22.6279 486.34 22.4785 485.971 22.2852V20.9404C486.363 21.1338 486.832 21.3096 487.377 21.4678C487.922 21.626 488.479 21.7051 489.047 21.7051C489.879 21.7051 490.482 21.5703 490.857 21.3008C491.232 21.0312 491.42 20.665 491.42 20.2021C491.42 19.9385 491.344 19.707 491.191 19.5078C491.045 19.3027 490.796 19.1064 490.444 18.9189C490.093 18.7256 489.606 18.5146 488.985 18.2861C488.37 18.0518 487.837 17.8203 487.386 17.5918C486.94 17.3574 486.595 17.0732 486.349 16.7393C486.108 16.4053 485.988 15.9717 485.988 15.4385C485.988 14.624 486.316 14 486.973 13.5664C487.635 13.127 488.502 12.9072 489.574 12.9072C490.154 12.9072 490.696 12.9658 491.2 13.083C491.71 13.1943 492.185 13.3467 492.624 13.54L492.132 14.709C491.733 14.5391 491.309 14.3955 490.857 14.2783C490.406 14.1611 489.946 14.1025 489.478 14.1025C488.804 14.1025 488.285 14.2139 487.922 14.4365C487.564 14.6592 487.386 14.9639 487.386 15.3506C487.386 15.6494 487.468 15.8955 487.632 16.0889C487.802 16.2822 488.071 16.4639 488.44 16.6338C488.81 16.8037 489.296 17.0029 489.899 17.2314C490.503 17.4541 491.024 17.6855 491.464 17.9258C491.903 18.1602 492.24 18.4473 492.475 18.7871C492.715 19.1211 492.835 19.5518 492.835 20.0791ZM498.293 21.6963C498.533 21.6963 498.779 21.6758 499.031 21.6348C499.283 21.5938 499.488 21.5439 499.646 21.4854V22.6191C499.477 22.6953 499.239 22.7598 498.935 22.8125C498.636 22.8652 498.343 22.8916 498.056 22.8916C497.546 22.8916 497.083 22.8037 496.667 22.6279C496.251 22.4463 495.917 22.1416 495.665 21.7139C495.419 21.2861 495.296 20.6943 495.296 19.9385V14.2256H493.925V13.5137L495.305 12.9424L495.885 10.8506H496.764V13.083H499.585V14.2256H496.764V19.8945C496.764 20.498 496.901 20.9492 497.177 21.248C497.458 21.5469 497.83 21.6963 498.293 21.6963ZM505.975 12.9072C506.168 12.9072 506.37 12.9189 506.581 12.9424C506.792 12.96 506.979 12.9863 507.144 13.0215L506.959 14.375C506.801 14.334 506.625 14.3018 506.432 14.2783C506.238 14.2549 506.057 14.2432 505.887 14.2432C505.5 14.2432 505.134 14.3223 504.788 14.4805C504.448 14.6328 504.149 14.8555 503.892 15.1484C503.634 15.4355 503.432 15.7842 503.285 16.1943C503.139 16.5986 503.065 17.0498 503.065 17.5479V22.7158H501.598V13.083H502.811L502.969 14.8584H503.03C503.229 14.501 503.47 14.1758 503.751 13.8828C504.032 13.584 504.357 13.3467 504.727 13.1709C505.102 12.9951 505.518 12.9072 505.975 12.9072ZM507.442 13.083H509.007L511.134 18.6729C511.257 19.001 511.371 19.3174 511.477 19.6221C511.582 19.9209 511.676 20.208 511.758 20.4834C511.84 20.7588 511.904 21.0254 511.951 21.2832H512.013C512.095 20.9902 512.212 20.6064 512.364 20.1318C512.517 19.6514 512.681 19.1621 512.856 18.6641L514.869 13.083H516.442L512.25 24.1309C512.027 24.7227 511.767 25.2383 511.468 25.6777C511.175 26.1172 510.817 26.4541 510.396 26.6885C509.974 26.9287 509.464 27.0488 508.866 27.0488C508.591 27.0488 508.348 27.0312 508.137 26.9961C507.926 26.9668 507.744 26.9316 507.592 26.8906V25.7217C507.721 25.751 507.876 25.7773 508.058 25.8008C508.245 25.8242 508.438 25.8359 508.638 25.8359C509.001 25.8359 509.314 25.7656 509.578 25.625C509.848 25.4902 510.079 25.291 510.272 25.0273C510.466 24.7637 510.633 24.4502 510.773 24.0869L511.301 22.7334L507.442 13.083ZM517.761 21.8018C517.761 21.3916 517.86 21.1016 518.06 20.9316C518.259 20.7559 518.502 20.668 518.789 20.668C519.088 20.668 519.34 20.7559 519.545 20.9316C519.75 21.1016 519.853 21.3916 519.853 21.8018C519.853 22.2061 519.75 22.502 519.545 22.6895C519.34 22.8711 519.088 22.9619 518.789 22.9619C518.502 22.9619 518.259 22.8711 518.06 22.6895C517.86 22.502 517.761 22.2061 517.761 21.8018ZM72.8584 52.7158V39.8662H74.3525V51.3799H80.0566V52.7158H72.8584ZM90.3486 47.8818C90.3486 48.6729 90.2461 49.3789 90.041 50C89.8359 50.6211 89.54 51.1455 89.1533 51.5732C88.7666 52.001 88.2979 52.3291 87.7471 52.5576C87.2021 52.7803 86.584 52.8916 85.8926 52.8916C85.248 52.8916 84.6562 52.7803 84.1172 52.5576C83.584 52.3291 83.1211 52.001 82.7285 51.5732C82.3418 51.1455 82.04 50.6211 81.8232 50C81.6123 49.3789 81.5068 48.6729 81.5068 47.8818C81.5068 46.8271 81.6855 45.9307 82.043 45.1924C82.4004 44.4482 82.9102 43.8828 83.5723 43.4961C84.2402 43.1035 85.0342 42.9072 85.9541 42.9072C86.833 42.9072 87.6006 43.1035 88.2568 43.4961C88.9189 43.8887 89.4316 44.457 89.7949 45.2012C90.1641 45.9395 90.3486 46.833 90.3486 47.8818ZM83.0186 47.8818C83.0186 48.6553 83.1211 49.3262 83.3262 49.8945C83.5312 50.4629 83.8477 50.9023 84.2754 51.2129C84.7031 51.5234 85.2539 51.6787 85.9277 51.6787C86.5957 51.6787 87.1436 51.5234 87.5713 51.2129C88.0049 50.9023 88.3242 50.4629 88.5293 49.8945C88.7344 49.3262 88.8369 48.6553 88.8369 47.8818C88.8369 47.1143 88.7344 46.4521 88.5293 45.8955C88.3242 45.333 88.0078 44.8994 87.5801 44.5947C87.1523 44.29 86.5986 44.1377 85.9189 44.1377C84.917 44.1377 84.1816 44.4688 83.7129 45.1309C83.25 45.793 83.0186 46.71 83.0186 47.8818ZM97.248 42.9072C97.4414 42.9072 97.6436 42.9189 97.8545 42.9424C98.0654 42.96 98.2529 42.9863 98.417 43.0215L98.2324 44.375C98.0742 44.334 97.8984 44.3018 97.7051 44.2783C97.5117 44.2549 97.3301 44.2432 97.1602 44.2432C96.7734 44.2432 96.4072 44.3223 96.0615 44.4805C95.7217 44.6328 95.4229 44.8555 95.165 45.1484C94.9072 45.4355 94.7051 45.7842 94.5586 46.1943C94.4121 46.5986 94.3389 47.0498 94.3389 47.5479V52.7158H92.8711V43.083H94.084L94.2422 44.8584H94.3037C94.5029 44.501 94.7432 44.1758 95.0244 43.8828C95.3057 43.584 95.6309 43.3467 96 43.1709C96.375 42.9951 96.791 42.9072 97.248 42.9072ZM103.945 42.9072C104.766 42.9072 105.469 43.0889 106.055 43.4521C106.641 43.8154 107.089 44.3252 107.399 44.9814C107.71 45.6318 107.865 46.3936 107.865 47.2666V48.1719H101.212C101.229 49.3027 101.511 50.1641 102.056 50.7559C102.601 51.3477 103.368 51.6436 104.358 51.6436C104.968 51.6436 105.507 51.5879 105.976 51.4766C106.444 51.3652 106.931 51.2012 107.435 50.9844V52.2676C106.948 52.4844 106.465 52.6426 105.984 52.7422C105.51 52.8418 104.947 52.8916 104.297 52.8916C103.371 52.8916 102.562 52.7041 101.871 52.3291C101.186 51.9482 100.652 51.3916 100.271 50.6592C99.8906 49.9268 99.7002 49.0303 99.7002 47.9697C99.7002 46.9326 99.873 46.0361 100.219 45.2803C100.57 44.5186 101.062 43.9326 101.695 43.5225C102.334 43.1123 103.084 42.9072 103.945 42.9072ZM103.928 44.1025C103.148 44.1025 102.527 44.3574 102.064 44.8672C101.602 45.377 101.326 46.0889 101.238 47.0029H106.336C106.33 46.4287 106.239 45.9248 106.063 45.4912C105.894 45.0518 105.633 44.7119 105.281 44.4717C104.93 44.2256 104.479 44.1025 103.928 44.1025ZM120.803 42.9072C121.863 42.9072 122.663 43.1855 123.202 43.7422C123.741 44.293 124.011 45.1807 124.011 46.4053V52.7158H122.569V46.4756C122.569 45.6963 122.399 45.1133 122.06 44.7266C121.726 44.334 121.228 44.1377 120.565 44.1377C119.634 44.1377 118.957 44.4072 118.535 44.9463C118.113 45.4854 117.902 46.2793 117.902 47.3281V52.7158H116.452V46.4756C116.452 45.9541 116.376 45.5205 116.224 45.1748C116.077 44.8291 115.854 44.5713 115.556 44.4014C115.263 44.2256 114.891 44.1377 114.439 44.1377C113.801 44.1377 113.288 44.2695 112.901 44.5332C112.515 44.7969 112.233 45.1895 112.058 45.7109C111.888 46.2266 111.803 46.8623 111.803 47.6182V52.7158H110.344V43.083H111.521L111.741 44.4453H111.82C112.014 44.1113 112.257 43.8301 112.55 43.6016C112.843 43.373 113.171 43.2002 113.534 43.083C113.897 42.9658 114.284 42.9072 114.694 42.9072C115.427 42.9072 116.039 43.0449 116.531 43.3203C117.029 43.5898 117.39 44.0029 117.612 44.5596H117.691C118.008 44.0029 118.441 43.5898 118.992 43.3203C119.543 43.0449 120.146 42.9072 120.803 42.9072ZM131.903 52.7158V39.8662H133.397V52.7158H131.903ZM141.237 42.9072C142.438 42.9072 143.396 43.3203 144.111 44.1465C144.826 44.9727 145.184 46.2148 145.184 47.873C145.184 48.9688 145.02 49.8887 144.691 50.6328C144.363 51.377 143.9 51.9395 143.303 52.3203C142.711 52.7012 142.011 52.8916 141.202 52.8916C140.692 52.8916 140.244 52.8242 139.857 52.6895C139.471 52.5547 139.14 52.373 138.864 52.1445C138.589 51.916 138.36 51.667 138.179 51.3975H138.073C138.091 51.626 138.111 51.9014 138.135 52.2236C138.164 52.5459 138.179 52.8271 138.179 53.0674V57.0225H136.711V43.083H137.915L138.108 44.5068H138.179C138.366 44.2139 138.595 43.9473 138.864 43.707C139.134 43.4609 139.462 43.2676 139.849 43.127C140.241 42.9805 140.704 42.9072 141.237 42.9072ZM140.982 44.1377C140.314 44.1377 139.775 44.2666 139.365 44.5244C138.961 44.7822 138.665 45.1689 138.478 45.6846C138.29 46.1943 138.19 46.8359 138.179 47.6094V47.8906C138.179 48.7051 138.267 49.3936 138.442 49.9561C138.624 50.5186 138.92 50.9463 139.33 51.2393C139.746 51.5322 140.303 51.6787 141 51.6787C141.598 51.6787 142.096 51.5176 142.494 51.1953C142.893 50.873 143.188 50.4248 143.382 49.8506C143.581 49.2705 143.681 48.6055 143.681 47.8555C143.681 46.7188 143.458 45.8164 143.013 45.1484C142.573 44.4746 141.896 44.1377 140.982 44.1377ZM153.964 50.0791C153.964 50.6943 153.809 51.2129 153.498 51.6348C153.193 52.0508 152.754 52.3643 152.18 52.5752C151.611 52.7861 150.932 52.8916 150.141 52.8916C149.467 52.8916 148.884 52.8389 148.392 52.7334C147.899 52.6279 147.469 52.4785 147.1 52.2852V50.9404C147.492 51.1338 147.961 51.3096 148.506 51.4678C149.051 51.626 149.607 51.7051 150.176 51.7051C151.008 51.7051 151.611 51.5703 151.986 51.3008C152.361 51.0312 152.549 50.665 152.549 50.2021C152.549 49.9385 152.473 49.707 152.32 49.5078C152.174 49.3027 151.925 49.1064 151.573 48.9189C151.222 48.7256 150.735 48.5146 150.114 48.2861C149.499 48.0518 148.966 47.8203 148.515 47.5918C148.069 47.3574 147.724 47.0732 147.478 46.7393C147.237 46.4053 147.117 45.9717 147.117 45.4385C147.117 44.624 147.445 44 148.102 43.5664C148.764 43.127 149.631 42.9072 150.703 42.9072C151.283 42.9072 151.825 42.9658 152.329 43.083C152.839 43.1943 153.313 43.3467 153.753 43.54L153.261 44.709C152.862 44.5391 152.438 44.3955 151.986 44.2783C151.535 44.1611 151.075 44.1025 150.606 44.1025C149.933 44.1025 149.414 44.2139 149.051 44.4365C148.693 44.6592 148.515 44.9639 148.515 45.3506C148.515 45.6494 148.597 45.8955 148.761 46.0889C148.931 46.2822 149.2 46.4639 149.569 46.6338C149.938 46.8037 150.425 47.0029 151.028 47.2314C151.632 47.4541 152.153 47.6855 152.593 47.9258C153.032 48.1602 153.369 48.4473 153.604 48.7871C153.844 49.1211 153.964 49.5518 153.964 50.0791ZM164.265 43.083V52.7158H163.069L162.858 51.3623H162.779C162.58 51.6963 162.322 51.9775 162.006 52.2061C161.689 52.4346 161.332 52.6045 160.934 52.7158C160.541 52.833 160.122 52.8916 159.677 52.8916C158.915 52.8916 158.276 52.7686 157.761 52.5225C157.245 52.2764 156.855 51.8955 156.592 51.3799C156.334 50.8643 156.205 50.2021 156.205 49.3936V43.083H157.682V49.2881C157.682 50.0908 157.863 50.6914 158.227 51.0898C158.59 51.4824 159.144 51.6787 159.888 51.6787C160.603 51.6787 161.171 51.5439 161.593 51.2744C162.021 51.0049 162.328 50.6094 162.516 50.0879C162.703 49.5605 162.797 48.916 162.797 48.1543V43.083H164.265ZM177.809 42.9072C178.869 42.9072 179.669 43.1855 180.208 43.7422C180.747 44.293 181.017 45.1807 181.017 46.4053V52.7158H179.575V46.4756C179.575 45.6963 179.405 45.1133 179.065 44.7266C178.731 44.334 178.233 44.1377 177.571 44.1377C176.64 44.1377 175.963 44.4072 175.541 44.9463C175.119 45.4854 174.908 46.2793 174.908 47.3281V52.7158H173.458V46.4756C173.458 45.9541 173.382 45.5205 173.229 45.1748C173.083 44.8291 172.86 44.5713 172.562 44.4014C172.269 44.2256 171.896 44.1377 171.445 44.1377C170.807 44.1377 170.294 44.2695 169.907 44.5332C169.521 44.7969 169.239 45.1895 169.063 45.7109C168.894 46.2266 168.809 46.8623 168.809 47.6182V52.7158H167.35V43.083H168.527L168.747 44.4453H168.826C169.02 44.1113 169.263 43.8301 169.556 43.6016C169.849 43.373 170.177 43.2002 170.54 43.083C170.903 42.9658 171.29 42.9072 171.7 42.9072C172.433 42.9072 173.045 43.0449 173.537 43.3203C174.035 43.5898 174.396 44.0029 174.618 44.5596H174.697C175.014 44.0029 175.447 43.5898 175.998 43.3203C176.549 43.0449 177.152 42.9072 177.809 42.9072ZM194.921 50.0791C194.921 50.6943 194.766 51.2129 194.455 51.6348C194.15 52.0508 193.711 52.3643 193.137 52.5752C192.568 52.7861 191.889 52.8916 191.098 52.8916C190.424 52.8916 189.841 52.8389 189.349 52.7334C188.856 52.6279 188.426 52.4785 188.057 52.2852V50.9404C188.449 51.1338 188.918 51.3096 189.463 51.4678C190.008 51.626 190.564 51.7051 191.133 51.7051C191.965 51.7051 192.568 51.5703 192.943 51.3008C193.318 51.0312 193.506 50.665 193.506 50.2021C193.506 49.9385 193.43 49.707 193.277 49.5078C193.131 49.3027 192.882 49.1064 192.53 48.9189C192.179 48.7256 191.692 48.5146 191.071 48.2861C190.456 48.0518 189.923 47.8203 189.472 47.5918C189.026 47.3574 188.681 47.0732 188.435 46.7393C188.194 46.4053 188.074 45.9717 188.074 45.4385C188.074 44.624 188.402 44 189.059 43.5664C189.721 43.127 190.588 42.9072 191.66 42.9072C192.24 42.9072 192.782 42.9658 193.286 43.083C193.796 43.1943 194.271 43.3467 194.71 43.54L194.218 44.709C193.819 44.5391 193.395 44.3955 192.943 44.2783C192.492 44.1611 192.032 44.1025 191.563 44.1025C190.89 44.1025 190.371 44.2139 190.008 44.4365C189.65 44.6592 189.472 44.9639 189.472 45.3506C189.472 45.6494 189.554 45.8955 189.718 46.0889C189.888 46.2822 190.157 46.4639 190.526 46.6338C190.896 46.8037 191.382 47.0029 191.985 47.2314C192.589 47.4541 193.11 47.6855 193.55 47.9258C193.989 48.1602 194.326 48.4473 194.561 48.7871C194.801 49.1211 194.921 49.5518 194.921 50.0791ZM198.727 43.083V52.7158H197.268V43.083H198.727ZM198.015 39.4795C198.255 39.4795 198.46 39.5586 198.63 39.7168C198.806 39.8691 198.894 40.1094 198.894 40.4375C198.894 40.7598 198.806 41 198.63 41.1582C198.46 41.3164 198.255 41.3955 198.015 41.3955C197.763 41.3955 197.552 41.3164 197.382 41.1582C197.218 41 197.136 40.7598 197.136 40.4375C197.136 40.1094 197.218 39.8691 197.382 39.7168C197.552 39.5586 197.763 39.4795 198.015 39.4795ZM212.279 42.9072C213.34 42.9072 214.14 43.1855 214.679 43.7422C215.218 44.293 215.487 45.1807 215.487 46.4053V52.7158H214.046V46.4756C214.046 45.6963 213.876 45.1133 213.536 44.7266C213.202 44.334 212.704 44.1377 212.042 44.1377C211.11 44.1377 210.434 44.4072 210.012 44.9463C209.59 45.4854 209.379 46.2793 209.379 47.3281V52.7158H207.929V46.4756C207.929 45.9541 207.853 45.5205 207.7 45.1748C207.554 44.8291 207.331 44.5713 207.032 44.4014C206.739 44.2256 206.367 44.1377 205.916 44.1377C205.277 44.1377 204.765 44.2695 204.378 44.5332C203.991 44.7969 203.71 45.1895 203.534 45.7109C203.364 46.2266 203.279 46.8623 203.279 47.6182V52.7158H201.82V43.083H202.998L203.218 44.4453H203.297C203.49 44.1113 203.733 43.8301 204.026 43.6016C204.319 43.373 204.647 43.2002 205.011 43.083C205.374 42.9658 205.761 42.9072 206.171 42.9072C206.903 42.9072 207.516 43.0449 208.008 43.3203C208.506 43.5898 208.866 44.0029 209.089 44.5596H209.168C209.484 44.0029 209.918 43.5898 210.469 43.3203C211.02 43.0449 211.623 42.9072 212.279 42.9072ZM223.011 42.9072C224.212 42.9072 225.17 43.3203 225.885 44.1465C226.6 44.9727 226.957 46.2148 226.957 47.873C226.957 48.9688 226.793 49.8887 226.465 50.6328C226.137 51.377 225.674 51.9395 225.076 52.3203C224.484 52.7012 223.784 52.8916 222.976 52.8916C222.466 52.8916 222.018 52.8242 221.631 52.6895C221.244 52.5547 220.913 52.373 220.638 52.1445C220.362 51.916 220.134 51.667 219.952 51.3975H219.847C219.864 51.626 219.885 51.9014 219.908 52.2236C219.938 52.5459 219.952 52.8271 219.952 53.0674V57.0225H218.484V43.083H219.688L219.882 44.5068H219.952C220.14 44.2139 220.368 43.9473 220.638 43.707C220.907 43.4609 221.235 43.2676 221.622 43.127C222.015 42.9805 222.478 42.9072 223.011 42.9072ZM222.756 44.1377C222.088 44.1377 221.549 44.2666 221.139 44.5244C220.734 44.7822 220.438 45.1689 220.251 45.6846C220.063 46.1943 219.964 46.8359 219.952 47.6094V47.8906C219.952 48.7051 220.04 49.3936 220.216 49.9561C220.397 50.5186 220.693 50.9463 221.104 51.2393C221.52 51.5322 222.076 51.6787 222.773 51.6787C223.371 51.6787 223.869 51.5176 224.268 51.1953C224.666 50.873 224.962 50.4248 225.155 49.8506C225.354 49.2705 225.454 48.6055 225.454 47.8555C225.454 46.7188 225.231 45.8164 224.786 45.1484C224.347 44.4746 223.67 44.1377 222.756 44.1377ZM230.974 52.7158H229.506V39.04H230.974V52.7158ZM232.538 43.083H234.103L236.229 48.6729C236.353 49.001 236.467 49.3174 236.572 49.6221C236.678 49.9209 236.771 50.208 236.854 50.4834C236.936 50.7588 237 51.0254 237.047 51.2832H237.108C237.19 50.9902 237.308 50.6064 237.46 50.1318C237.612 49.6514 237.776 49.1621 237.952 48.6641L239.965 43.083H241.538L237.346 54.1309C237.123 54.7227 236.862 55.2383 236.563 55.6777C236.271 56.1172 235.913 56.4541 235.491 56.6885C235.069 56.9287 234.56 57.0488 233.962 57.0488C233.687 57.0488 233.443 57.0312 233.232 56.9961C233.021 56.9668 232.84 56.9316 232.688 56.8906V55.7217C232.816 55.751 232.972 55.7773 233.153 55.8008C233.341 55.8242 233.534 55.8359 233.733 55.8359C234.097 55.8359 234.41 55.7656 234.674 55.625C234.943 55.4902 235.175 55.291 235.368 55.0273C235.562 54.7637 235.729 54.4502 235.869 54.0869L236.396 52.7334L232.538 43.083ZM251.18 52.8916C249.961 52.8916 248.994 52.4756 248.279 51.6436C247.57 50.8115 247.216 49.5752 247.216 47.9346C247.216 46.2764 247.579 45.0254 248.306 44.1816C249.032 43.332 249.999 42.9072 251.206 42.9072C251.716 42.9072 252.161 42.9746 252.542 43.1094C252.923 43.2441 253.251 43.4258 253.526 43.6543C253.802 43.877 254.033 44.1318 254.221 44.4189H254.326C254.303 44.2373 254.279 43.9883 254.256 43.6719C254.232 43.3555 254.221 43.0977 254.221 42.8984V39.04H255.68V52.7158H254.502L254.282 51.3447H254.221C254.039 51.6318 253.808 51.8926 253.526 52.127C253.251 52.3613 252.92 52.5488 252.533 52.6895C252.152 52.8242 251.701 52.8916 251.18 52.8916ZM251.408 51.6787C252.439 51.6787 253.169 51.3857 253.597 50.7998C254.024 50.2139 254.238 49.3438 254.238 48.1895V47.9258C254.238 46.7012 254.033 45.7607 253.623 45.1045C253.219 44.4482 252.48 44.1201 251.408 44.1201C250.512 44.1201 249.841 44.4658 249.396 45.1572C248.95 45.8428 248.728 46.7803 248.728 47.9697C248.728 49.1533 248.947 50.0674 249.387 50.7119C249.832 51.3564 250.506 51.6787 251.408 51.6787ZM266.728 43.083V52.7158H265.532L265.321 51.3623H265.242C265.043 51.6963 264.785 51.9775 264.469 52.2061C264.152 52.4346 263.795 52.6045 263.396 52.7158C263.004 52.833 262.585 52.8916 262.14 52.8916C261.378 52.8916 260.739 52.7686 260.224 52.5225C259.708 52.2764 259.318 51.8955 259.055 51.3799C258.797 50.8643 258.668 50.2021 258.668 49.3936V43.083H260.145V49.2881C260.145 50.0908 260.326 50.6914 260.689 51.0898C261.053 51.4824 261.606 51.6787 262.351 51.6787C263.065 51.6787 263.634 51.5439 264.056 51.2744C264.483 51.0049 264.791 50.6094 264.979 50.0879C265.166 49.5605 265.26 48.916 265.26 48.1543V43.083H266.728ZM280.271 42.9072C281.332 42.9072 282.132 43.1855 282.671 43.7422C283.21 44.293 283.479 45.1807 283.479 46.4053V52.7158H282.038V46.4756C282.038 45.6963 281.868 45.1133 281.528 44.7266C281.194 44.334 280.696 44.1377 280.034 44.1377C279.103 44.1377 278.426 44.4072 278.004 44.9463C277.582 45.4854 277.371 46.2793 277.371 47.3281V52.7158H275.921V46.4756C275.921 45.9541 275.845 45.5205 275.692 45.1748C275.546 44.8291 275.323 44.5713 275.024 44.4014C274.731 44.2256 274.359 44.1377 273.908 44.1377C273.27 44.1377 272.757 44.2695 272.37 44.5332C271.983 44.7969 271.702 45.1895 271.526 45.7109C271.356 46.2266 271.271 46.8623 271.271 47.6182V52.7158H269.812V43.083H270.99L271.21 44.4453H271.289C271.482 44.1113 271.726 43.8301 272.019 43.6016C272.312 43.373 272.64 43.2002 273.003 43.083C273.366 42.9658 273.753 42.9072 274.163 42.9072C274.896 42.9072 275.508 43.0449 276 43.3203C276.498 43.5898 276.858 44.0029 277.081 44.5596H277.16C277.477 44.0029 277.91 43.5898 278.461 43.3203C279.012 43.0449 279.615 42.9072 280.271 42.9072ZM296.936 42.9072C297.996 42.9072 298.796 43.1855 299.335 43.7422C299.874 44.293 300.144 45.1807 300.144 46.4053V52.7158H298.702V46.4756C298.702 45.6963 298.532 45.1133 298.192 44.7266C297.858 44.334 297.36 44.1377 296.698 44.1377C295.767 44.1377 295.09 44.4072 294.668 44.9463C294.246 45.4854 294.035 46.2793 294.035 47.3281V52.7158H292.585V46.4756C292.585 45.9541 292.509 45.5205 292.356 45.1748C292.21 44.8291 291.987 44.5713 291.688 44.4014C291.396 44.2256 291.023 44.1377 290.572 44.1377C289.934 44.1377 289.421 44.2695 289.034 44.5332C288.647 44.7969 288.366 45.1895 288.19 45.7109C288.021 46.2266 287.936 46.8623 287.936 47.6182V52.7158H286.477V43.083H287.654L287.874 44.4453H287.953C288.146 44.1113 288.39 43.8301 288.683 43.6016C288.976 43.373 289.304 43.2002 289.667 43.083C290.03 42.9658 290.417 42.9072 290.827 42.9072C291.56 42.9072 292.172 43.0449 292.664 43.3203C293.162 43.5898 293.522 44.0029 293.745 44.5596H293.824C294.141 44.0029 294.574 43.5898 295.125 43.3203C295.676 43.0449 296.279 42.9072 296.936 42.9072ZM301.62 43.083H303.185L305.312 48.6729C305.435 49.001 305.549 49.3174 305.654 49.6221C305.76 49.9209 305.854 50.208 305.936 50.4834C306.018 50.7588 306.082 51.0254 306.129 51.2832H306.19C306.272 50.9902 306.39 50.6064 306.542 50.1318C306.694 49.6514 306.858 49.1621 307.034 48.6641L309.047 43.083H310.62L306.428 54.1309C306.205 54.7227 305.944 55.2383 305.646 55.6777C305.353 56.1172 304.995 56.4541 304.573 56.6885C304.151 56.9287 303.642 57.0488 303.044 57.0488C302.769 57.0488 302.525 57.0312 302.314 56.9961C302.104 56.9668 301.922 56.9316 301.77 56.8906V55.7217C301.898 55.751 302.054 55.7773 302.235 55.8008C302.423 55.8242 302.616 55.8359 302.815 55.8359C303.179 55.8359 303.492 55.7656 303.756 55.625C304.025 55.4902 304.257 55.291 304.45 55.0273C304.644 54.7637 304.811 54.4502 304.951 54.0869L305.479 52.7334L301.62 43.083ZM319.945 51.6963C320.186 51.6963 320.432 51.6758 320.684 51.6348C320.936 51.5938 321.141 51.5439 321.299 51.4854V52.6191C321.129 52.6953 320.892 52.7598 320.587 52.8125C320.288 52.8652 319.995 52.8916 319.708 52.8916C319.198 52.8916 318.735 52.8037 318.319 52.6279C317.903 52.4463 317.569 52.1416 317.317 51.7139C317.071 51.2861 316.948 50.6943 316.948 49.9385V44.2256H315.577V43.5137L316.957 42.9424L317.537 40.8506H318.416V43.083H321.237V44.2256H318.416V49.8945C318.416 50.498 318.554 50.9492 318.829 51.248C319.11 51.5469 319.482 51.6963 319.945 51.6963ZM326.959 42.9072C327.779 42.9072 328.482 43.0889 329.068 43.4521C329.654 43.8154 330.103 44.3252 330.413 44.9814C330.724 45.6318 330.879 46.3936 330.879 47.2666V48.1719H324.226C324.243 49.3027 324.524 50.1641 325.069 50.7559C325.614 51.3477 326.382 51.6436 327.372 51.6436C327.981 51.6436 328.521 51.5879 328.989 51.4766C329.458 51.3652 329.944 51.2012 330.448 50.9844V52.2676C329.962 52.4844 329.479 52.6426 328.998 52.7422C328.523 52.8418 327.961 52.8916 327.311 52.8916C326.385 52.8916 325.576 52.7041 324.885 52.3291C324.199 51.9482 323.666 51.3916 323.285 50.6592C322.904 49.9268 322.714 49.0303 322.714 47.9697C322.714 46.9326 322.887 46.0361 323.232 45.2803C323.584 44.5186 324.076 43.9326 324.709 43.5225C325.348 43.1123 326.098 42.9072 326.959 42.9072ZM326.941 44.1025C326.162 44.1025 325.541 44.3574 325.078 44.8672C324.615 45.377 324.34 46.0889 324.252 47.0029H329.35C329.344 46.4287 329.253 45.9248 329.077 45.4912C328.907 45.0518 328.646 44.7119 328.295 44.4717C327.943 44.2256 327.492 44.1025 326.941 44.1025ZM335.651 47.7852L332.32 43.083H333.99L336.53 46.792L339.062 43.083H340.714L337.383 47.7852L340.898 52.7158H339.229L336.53 48.7871L333.814 52.7158H332.162L335.651 47.7852ZM345.891 51.6963C346.131 51.6963 346.377 51.6758 346.629 51.6348C346.881 51.5938 347.086 51.5439 347.244 51.4854V52.6191C347.074 52.6953 346.837 52.7598 346.532 52.8125C346.233 52.8652 345.94 52.8916 345.653 52.8916C345.144 52.8916 344.681 52.8037 344.265 52.6279C343.849 52.4463 343.515 52.1416 343.263 51.7139C343.017 51.2861 342.894 50.6943 342.894 49.9385V44.2256H341.522V43.5137L342.902 42.9424L343.482 40.8506H344.361V43.083H347.183V44.2256H344.361V49.8945C344.361 50.498 344.499 50.9492 344.774 51.248C345.056 51.5469 345.428 51.6963 345.891 51.6963ZM362.177 47.8818C362.177 48.6729 362.074 49.3789 361.869 50C361.664 50.6211 361.368 51.1455 360.981 51.5732C360.595 52.001 360.126 52.3291 359.575 52.5576C359.03 52.7803 358.412 52.8916 357.721 52.8916C357.076 52.8916 356.484 52.7803 355.945 52.5576C355.412 52.3291 354.949 52.001 354.557 51.5732C354.17 51.1455 353.868 50.6211 353.651 50C353.44 49.3789 353.335 48.6729 353.335 47.8818C353.335 46.8271 353.514 45.9307 353.871 45.1924C354.229 44.4482 354.738 43.8828 355.4 43.4961C356.068 43.1035 356.862 42.9072 357.782 42.9072C358.661 42.9072 359.429 43.1035 360.085 43.4961C360.747 43.8887 361.26 44.457 361.623 45.2012C361.992 45.9395 362.177 46.833 362.177 47.8818ZM354.847 47.8818C354.847 48.6553 354.949 49.3262 355.154 49.8945C355.359 50.4629 355.676 50.9023 356.104 51.2129C356.531 51.5234 357.082 51.6787 357.756 51.6787C358.424 51.6787 358.972 51.5234 359.399 51.2129C359.833 50.9023 360.152 50.4629 360.357 49.8945C360.562 49.3262 360.665 48.6553 360.665 47.8818C360.665 47.1143 360.562 46.4521 360.357 45.8955C360.152 45.333 359.836 44.8994 359.408 44.5947C358.98 44.29 358.427 44.1377 357.747 44.1377C356.745 44.1377 356.01 44.4688 355.541 45.1309C355.078 45.793 354.847 46.71 354.847 47.8818ZM368.988 44.2256H366.589V52.7158H365.13V44.2256H363.425V43.5225L365.13 43.0391V42.3975C365.13 41.5889 365.25 40.9326 365.49 40.4287C365.73 39.9189 366.079 39.5439 366.536 39.3037C366.993 39.0635 367.55 38.9434 368.206 38.9434C368.575 38.9434 368.912 38.9756 369.217 39.04C369.527 39.1045 369.8 39.1777 370.034 39.2598L369.656 40.4111C369.457 40.3467 369.231 40.2881 368.979 40.2354C368.733 40.1768 368.481 40.1475 368.224 40.1475C367.667 40.1475 367.254 40.3291 366.984 40.6924C366.721 41.0498 366.589 41.6123 366.589 42.3799V43.083H368.988V44.2256ZM378.551 51.6963C378.791 51.6963 379.037 51.6758 379.289 51.6348C379.541 51.5938 379.746 51.5439 379.904 51.4854V52.6191C379.734 52.6953 379.497 52.7598 379.192 52.8125C378.894 52.8652 378.601 52.8916 378.313 52.8916C377.804 52.8916 377.341 52.8037 376.925 52.6279C376.509 52.4463 376.175 52.1416 375.923 51.7139C375.677 51.2861 375.554 50.6943 375.554 49.9385V44.2256H374.183V43.5137L375.562 42.9424L376.143 40.8506H377.021V43.083H379.843V44.2256H377.021V49.8945C377.021 50.498 377.159 50.9492 377.435 51.248C377.716 51.5469 378.088 51.6963 378.551 51.6963ZM383.314 39.04V43.127C383.314 43.3613 383.309 43.5986 383.297 43.8389C383.285 44.0732 383.265 44.29 383.235 44.4893H383.332C383.531 44.1494 383.783 43.8652 384.088 43.6367C384.398 43.4023 384.75 43.2266 385.143 43.1094C385.535 42.9863 385.951 42.9248 386.391 42.9248C387.164 42.9248 387.809 43.0479 388.324 43.2939C388.846 43.54 389.235 43.9209 389.493 44.4365C389.757 44.9521 389.889 45.6201 389.889 46.4404V52.7158H388.447V46.5371C388.447 45.7344 388.263 45.1338 387.894 44.7354C387.53 44.3369 386.971 44.1377 386.215 44.1377C385.5 44.1377 384.929 44.2754 384.501 44.5508C384.079 44.8203 383.774 45.2188 383.587 45.7461C383.405 46.2734 383.314 46.918 383.314 47.6797V52.7158H381.855V39.04H383.314ZM396.604 42.9072C397.424 42.9072 398.127 43.0889 398.713 43.4521C399.299 43.8154 399.747 44.3252 400.058 44.9814C400.368 45.6318 400.523 46.3936 400.523 47.2666V48.1719H393.87C393.888 49.3027 394.169 50.1641 394.714 50.7559C395.259 51.3477 396.026 51.6436 397.017 51.6436C397.626 51.6436 398.165 51.5879 398.634 51.4766C399.103 51.3652 399.589 51.2012 400.093 50.9844V52.2676C399.606 52.4844 399.123 52.6426 398.643 52.7422C398.168 52.8418 397.605 52.8916 396.955 52.8916C396.029 52.8916 395.221 52.7041 394.529 52.3291C393.844 51.9482 393.311 51.3916 392.93 50.6592C392.549 49.9268 392.358 49.0303 392.358 47.9697C392.358 46.9326 392.531 46.0361 392.877 45.2803C393.229 44.5186 393.721 43.9326 394.354 43.5225C394.992 43.1123 395.742 42.9072 396.604 42.9072ZM396.586 44.1025C395.807 44.1025 395.186 44.3574 394.723 44.8672C394.26 45.377 393.984 46.0889 393.896 47.0029H398.994C398.988 46.4287 398.897 45.9248 398.722 45.4912C398.552 45.0518 398.291 44.7119 397.939 44.4717C397.588 44.2256 397.137 44.1025 396.586 44.1025ZM412.204 42.9072C413.405 42.9072 414.363 43.3203 415.078 44.1465C415.793 44.9727 416.15 46.2148 416.15 47.873C416.15 48.9688 415.986 49.8887 415.658 50.6328C415.33 51.377 414.867 51.9395 414.27 52.3203C413.678 52.7012 412.978 52.8916 412.169 52.8916C411.659 52.8916 411.211 52.8242 410.824 52.6895C410.438 52.5547 410.106 52.373 409.831 52.1445C409.556 51.916 409.327 51.667 409.146 51.3975H409.04C409.058 51.626 409.078 51.9014 409.102 52.2236C409.131 52.5459 409.146 52.8271 409.146 53.0674V57.0225H407.678V43.083H408.882L409.075 44.5068H409.146C409.333 44.2139 409.562 43.9473 409.831 43.707C410.101 43.4609 410.429 43.2676 410.815 43.127C411.208 42.9805 411.671 42.9072 412.204 42.9072ZM411.949 44.1377C411.281 44.1377 410.742 44.2666 410.332 44.5244C409.928 44.7822 409.632 45.1689 409.444 45.6846C409.257 46.1943 409.157 46.8359 409.146 47.6094V47.8906C409.146 48.7051 409.233 49.3936 409.409 49.9561C409.591 50.5186 409.887 50.9463 410.297 51.2393C410.713 51.5322 411.27 51.6787 411.967 51.6787C412.564 51.6787 413.062 51.5176 413.461 51.1953C413.859 50.873 414.155 50.4248 414.349 49.8506C414.548 49.2705 414.647 48.6055 414.647 47.8555C414.647 46.7188 414.425 45.8164 413.979 45.1484C413.54 44.4746 412.863 44.1377 411.949 44.1377ZM423.076 42.9072C423.27 42.9072 423.472 42.9189 423.683 42.9424C423.894 42.96 424.081 42.9863 424.245 43.0215L424.061 44.375C423.902 44.334 423.727 44.3018 423.533 44.2783C423.34 44.2549 423.158 44.2432 422.988 44.2432C422.602 44.2432 422.235 44.3223 421.89 44.4805C421.55 44.6328 421.251 44.8555 420.993 45.1484C420.735 45.4355 420.533 45.7842 420.387 46.1943C420.24 46.5986 420.167 47.0498 420.167 47.5479V52.7158H418.699V43.083H419.912L420.07 44.8584H420.132C420.331 44.501 420.571 44.1758 420.853 43.8828C421.134 43.584 421.459 43.3467 421.828 43.1709C422.203 42.9951 422.619 42.9072 423.076 42.9072ZM427.523 43.083V52.7158H426.064V43.083H427.523ZM426.812 39.4795C427.052 39.4795 427.257 39.5586 427.427 39.7168C427.603 39.8691 427.69 40.1094 427.69 40.4375C427.69 40.7598 427.603 41 427.427 41.1582C427.257 41.3164 427.052 41.3955 426.812 41.3955C426.56 41.3955 426.349 41.3164 426.179 41.1582C426.015 41 425.933 40.7598 425.933 40.4375C425.933 40.1094 426.015 39.8691 426.179 39.7168C426.349 39.5586 426.56 39.4795 426.812 39.4795ZM435.179 42.9072C436.321 42.9072 437.186 43.1885 437.771 43.751C438.357 44.3076 438.65 45.2041 438.65 46.4404V52.7158H437.209V46.5371C437.209 45.7344 437.024 45.1338 436.655 44.7354C436.292 44.3369 435.732 44.1377 434.977 44.1377C433.91 44.1377 433.16 44.4395 432.727 45.043C432.293 45.6465 432.076 46.5225 432.076 47.6709V52.7158H430.617V43.083H431.795L432.015 44.4717H432.094C432.299 44.1318 432.56 43.8477 432.876 43.6191C433.192 43.3848 433.547 43.209 433.939 43.0918C434.332 42.9688 434.745 42.9072 435.179 42.9072ZM444.768 51.6963C445.008 51.6963 445.254 51.6758 445.506 51.6348C445.758 51.5938 445.963 51.5439 446.121 51.4854V52.6191C445.951 52.6953 445.714 52.7598 445.409 52.8125C445.11 52.8652 444.817 52.8916 444.53 52.8916C444.021 52.8916 443.558 52.8037 443.142 52.6279C442.726 52.4463 442.392 52.1416 442.14 51.7139C441.894 51.2861 441.771 50.6943 441.771 49.9385V44.2256H440.399V43.5137L441.779 42.9424L442.359 40.8506H443.238V43.083H446.06V44.2256H443.238V49.8945C443.238 50.498 443.376 50.9492 443.651 51.248C443.933 51.5469 444.305 51.6963 444.768 51.6963ZM449.531 43.083V52.7158H448.072V43.083H449.531ZM448.819 39.4795C449.06 39.4795 449.265 39.5586 449.435 39.7168C449.61 39.8691 449.698 40.1094 449.698 40.4375C449.698 40.7598 449.61 41 449.435 41.1582C449.265 41.3164 449.06 41.3955 448.819 41.3955C448.567 41.3955 448.356 41.3164 448.187 41.1582C448.022 41 447.94 40.7598 447.94 40.4375C447.94 40.1094 448.022 39.8691 448.187 39.7168C448.356 39.5586 448.567 39.4795 448.819 39.4795ZM457.187 42.9072C458.329 42.9072 459.193 43.1885 459.779 43.751C460.365 44.3076 460.658 45.2041 460.658 46.4404V52.7158H459.217V46.5371C459.217 45.7344 459.032 45.1338 458.663 44.7354C458.3 44.3369 457.74 44.1377 456.984 44.1377C455.918 44.1377 455.168 44.4395 454.734 45.043C454.301 45.6465 454.084 46.5225 454.084 47.6709V52.7158H452.625V43.083H453.803L454.022 44.4717H454.102C454.307 44.1318 454.567 43.8477 454.884 43.6191C455.2 43.3848 455.555 43.209 455.947 43.0918C456.34 42.9688 456.753 42.9072 457.187 42.9072ZM466.354 57.04C465.088 57.04 464.112 56.8027 463.427 56.3281C462.741 55.8594 462.398 55.2002 462.398 54.3506C462.398 53.7471 462.589 53.2314 462.97 52.8037C463.356 52.376 463.89 52.0918 464.569 51.9512C464.317 51.834 464.101 51.6582 463.919 51.4238C463.743 51.1895 463.655 50.9199 463.655 50.6152C463.655 50.2637 463.752 49.9561 463.945 49.6924C464.145 49.4229 464.446 49.165 464.851 48.9189C464.347 48.7139 463.937 48.3682 463.62 47.8818C463.31 47.3896 463.154 46.8184 463.154 46.168C463.154 45.4766 463.298 44.8877 463.585 44.4014C463.872 43.9092 464.288 43.5342 464.833 43.2764C465.378 43.0186 466.037 42.8896 466.811 42.8896C466.98 42.8896 467.15 42.8984 467.32 42.916C467.496 42.9277 467.663 42.9482 467.821 42.9775C467.979 43.001 468.117 43.0303 468.234 43.0654H471.539V44.0059L469.764 44.2256C469.939 44.4541 470.086 44.7295 470.203 45.0518C470.32 45.374 470.379 45.7314 470.379 46.124C470.379 47.085 470.054 47.8496 469.403 48.418C468.753 48.9805 467.859 49.2617 466.723 49.2617C466.453 49.2617 466.178 49.2383 465.896 49.1914C465.609 49.3496 465.39 49.5254 465.237 49.7188C465.091 49.9121 465.018 50.1348 465.018 50.3867C465.018 50.5742 465.073 50.7236 465.185 50.835C465.302 50.9463 465.469 51.0283 465.686 51.0811C465.902 51.1279 466.163 51.1514 466.468 51.1514H468.164C469.213 51.1514 470.016 51.3711 470.572 51.8105C471.135 52.25 471.416 52.8916 471.416 53.7354C471.416 54.8018 470.982 55.6191 470.115 56.1875C469.248 56.7559 467.994 57.04 466.354 57.04ZM466.397 55.8975C467.194 55.8975 467.854 55.8154 468.375 55.6514C468.902 55.4932 469.295 55.2617 469.553 54.957C469.816 54.6582 469.948 54.3008 469.948 53.8848C469.948 53.498 469.86 53.2051 469.685 53.0059C469.509 52.8125 469.251 52.6836 468.911 52.6191C468.571 52.5488 468.155 52.5137 467.663 52.5137H465.993C465.56 52.5137 465.182 52.5811 464.859 52.7158C464.537 52.8506 464.288 53.0498 464.112 53.3135C463.942 53.5771 463.857 53.9053 463.857 54.2979C463.857 54.8193 464.077 55.2148 464.517 55.4844C464.956 55.7598 465.583 55.8975 466.397 55.8975ZM466.775 48.1982C467.473 48.1982 467.997 48.0225 468.349 47.6709C468.7 47.3193 468.876 46.8066 468.876 46.1328C468.876 45.4121 468.697 44.873 468.34 44.5156C467.982 44.1523 467.455 43.9707 466.758 43.9707C466.09 43.9707 465.574 44.1582 465.211 44.5332C464.854 44.9023 464.675 45.4443 464.675 46.1592C464.675 46.8154 464.856 47.3193 465.22 47.6709C465.583 48.0225 466.102 48.1982 466.775 48.1982Z" fill="#525C60"/>
<circle cx="159" cy="139.716" r="30" fill="#EFF6F1"/>
<path d="M162.659 132.263C163.723 132.266 164.743 132.675 165.496 133.4C166.249 134.124 166.673 135.107 166.676 136.132V143.868C166.673 144.894 166.249 145.876 165.496 146.601C164.743 147.326 163.723 147.734 162.659 147.737H154.624C153.56 147.734 152.54 147.326 151.787 146.601C151.034 145.876 150.61 144.894 150.607 143.868V136.132C150.61 135.107 151.034 134.124 151.787 133.4C152.54 132.675 153.56 132.266 154.624 132.263H162.659ZM162.659 130.716H154.624C151.531 130.716 149 133.153 149 136.132V143.868C149 146.847 151.531 149.284 154.624 149.284H162.659C165.752 149.284 168.283 146.847 168.283 143.868V136.132C168.283 133.153 165.752 130.716 162.659 130.716Z" fill="#274C5B"/>
<path d="M163.863 136.133C163.625 136.133 163.392 136.065 163.194 135.937C162.996 135.809 162.841 135.628 162.75 135.416C162.659 135.204 162.635 134.971 162.681 134.746C162.728 134.521 162.843 134.314 163.011 134.151C163.18 133.989 163.394 133.879 163.628 133.834C163.862 133.789 164.104 133.812 164.325 133.9C164.545 133.988 164.733 134.136 164.865 134.327C164.998 134.518 165.068 134.743 165.068 134.972C165.069 135.125 165.038 135.276 164.977 135.417C164.917 135.558 164.828 135.686 164.716 135.793C164.604 135.901 164.471 135.987 164.325 136.045C164.179 136.103 164.022 136.133 163.863 136.133ZM158.641 136.906C159.277 136.906 159.898 137.088 160.427 137.428C160.955 137.768 161.367 138.251 161.61 138.817C161.854 139.382 161.917 140.004 161.793 140.605C161.669 141.205 161.363 141.757 160.914 142.189C160.464 142.622 159.891 142.917 159.268 143.036C158.645 143.156 157.998 143.095 157.411 142.86C156.824 142.626 156.322 142.229 155.969 141.72C155.616 141.211 155.427 140.613 155.427 140.001C155.428 139.18 155.767 138.394 156.369 137.813C156.972 137.233 157.789 136.907 158.641 136.906ZM158.641 135.359C157.688 135.359 156.756 135.631 155.963 136.141C155.17 136.651 154.552 137.376 154.187 138.224C153.822 139.073 153.727 140.006 153.913 140.907C154.099 141.807 154.558 142.634 155.232 143.283C155.906 143.933 156.765 144.375 157.701 144.554C158.636 144.733 159.605 144.641 160.486 144.29C161.367 143.938 162.12 143.343 162.649 142.58C163.179 141.817 163.462 140.919 163.462 140.001C163.462 138.77 162.954 137.589 162.05 136.718C161.146 135.848 159.92 135.359 158.641 135.359Z" fill="#274C5B"/>
<circle cx="234" cy="139.716" r="30" fill="#EFF6F1"/>
<path fill-rule="evenodd" clip-rule="evenodd" d="M243.283 140C243.283 134.873 238.966 130.716 233.641 130.716C228.317 130.716 224 134.873 224 140C224 144.634 227.525 148.475 232.135 149.172V142.685H229.686V140H232.135V137.955C232.135 135.628 233.575 134.342 235.777 134.342C236.832 134.342 237.935 134.524 237.935 134.524V136.809H236.719C235.522 136.809 235.147 137.524 235.147 138.259V140H237.821L237.394 142.685H235.148V149.173C239.758 148.476 243.283 144.635 243.283 140Z" fill="#274C5B"/>
<circle cx="309" cy="139.716" r="30" fill="#EFF6F1"/>
<path d="M319.66 133.674C318.885 134.011 318.065 134.233 317.226 134.333C318.108 133.816 318.771 132.996 319.091 132.026C318.257 132.513 317.347 132.855 316.398 133.037C315.999 132.619 315.519 132.286 314.987 132.059C314.455 131.831 313.882 131.715 313.303 131.716C310.961 131.716 309.065 133.584 309.065 135.887C309.064 136.207 309.1 136.526 309.175 136.838C307.495 136.759 305.85 136.331 304.346 135.58C302.841 134.829 301.51 133.772 300.437 132.478C300.061 133.112 299.862 133.836 299.861 134.574C299.861 136.02 300.615 137.298 301.755 138.047C301.08 138.031 300.418 137.853 299.827 137.526V137.578C299.827 139.601 301.291 141.284 303.228 141.667C302.863 141.764 302.488 141.813 302.111 141.813C301.844 141.814 301.577 141.788 301.314 141.736C301.853 143.393 303.42 144.598 305.276 144.633C303.768 145.795 301.916 146.424 300.011 146.419C299.673 146.418 299.336 146.398 299 146.359C300.937 147.596 303.189 148.25 305.488 148.244C313.294 148.244 317.559 141.887 317.559 136.373C317.559 136.192 317.554 136.011 317.546 135.835C318.373 135.246 319.089 134.514 319.66 133.674Z" fill="#274C5B"/>
<circle cx="384" cy="139.716" r="30" fill="#EFF6F1"/>
<path d="M383.797 129.716C378.387 129.716 374 134.1 374 139.508C374 143.517 376.414 146.962 379.865 148.479C379.839 147.797 379.86 146.975 380.035 146.232C380.223 145.436 381.295 140.894 381.295 140.894C381.295 140.894 380.98 140.269 380.98 139.346C380.98 137.895 381.82 136.811 382.869 136.811C383.762 136.811 384.19 137.48 384.19 138.28C384.19 139.176 383.617 140.514 383.324 141.755C383.079 142.795 383.845 143.639 384.873 143.639C386.727 143.639 387.978 141.257 387.978 138.433C387.978 136.286 386.53 134.682 383.902 134.682C380.932 134.682 379.078 136.898 379.078 139.373C379.078 140.225 379.331 140.828 379.725 141.292C379.904 141.506 379.93 141.593 379.865 141.838C379.817 142.017 379.712 142.45 379.664 142.625C379.598 142.874 379.397 142.962 379.174 142.87C377.805 142.31 377.166 140.815 377.166 139.128C377.166 136.347 379.515 133.012 384.168 133.012C387.908 133.012 390.37 135.718 390.37 138.621C390.37 142.463 388.231 145.331 385.082 145.331C384.024 145.331 383.031 144.758 382.69 144.111C382.69 144.111 382.122 146.367 381.999 146.804C381.794 147.56 381.387 148.312 381.015 148.903C381.917 149.168 382.852 149.304 383.792 149.305C389.202 149.305 393.589 144.92 393.589 139.512C393.589 134.105 389.207 129.716 383.797 129.716Z" fill="#274C5B"/>
</svg>
